{
  "header": {
    "keySignatures": [],
    "meta": [],
    "name": "",
    "ppq": 48,
    "tempos": [],
    "timeSignatures": []
  },
  "tracks": [
    {
      "channel": 0,
      "controlChanges": {},
      "pitchBends": [],
      "instrument": {
        "family": "piano",
        "number": 0,
        "name": "acoustic grand piano"
      },
      "name": "",
      "notes": [
        {
          "duration": 0.6145833333333334,
          "durationTicks": 59,
          "midi": 36,
          "name": "C2",
          "ticks": 0,
          "time": 0,
          "velocity": 0.6299212598425197
        },
        {
          "duration": 0.6041666666666667,
          "durationTicks": 58,
          "midi": 48,
          "name": "C3",
          "ticks": 1,
          "time": 0.010416666666666666,
          "velocity": 0.5669291338582677
        },
        {
          "duration": 0.59375,
          "durationTicks": 57,
          "midi": 63,
          "name": "D#4",
          "ticks": 2,
          "time": 0.020833333333333332,
          "velocity": 0.5669291338582677
        },
        {
          "duration": 0.42708333333333337,
          "durationTicks": 41,
          "midi": 62,
          "name": "D4",
          "ticks": 18,
          "time": 0.1875,
          "velocity": 0.5039370078740157
        },
        {
          "duration": 0.43750000000000006,
          "durationTicks": 42,
          "midi": 60,
          "name": "C4",
          "ticks": 29,
          "time": 0.3020833333333333,
          "velocity": 0.5669291338582677
        },
        {
          "duration": 0.65625,
          "durationTicks": 63,
          "midi": 63,
          "name": "D#4",
          "ticks": 38,
          "time": 0.3958333333333333,
          "velocity": 0.6299212598425197
        },
        {
          "duration": 4.229166666666666,
          "durationTicks": 406,
          "midi": 62,
          "name": "D4",
          "ticks": 49,
          "time": 0.5104166666666666,
          "velocity": 0.6299212598425197
        },
        {
          "duration": 1.78125,
          "durationTicks": 171,
          "midi": 60,
          "name": "C4",
          "ticks": 59,
          "time": 0.6145833333333334,
          "velocity": 0.5669291338582677
        },
        {
          "duration": 0.04166666666666663,
          "durationTicks": 4,
          "midi": 67,
          "name": "G4",
          "ticks": 72,
          "time": 0.75,
          "velocity": 0.5669291338582677
        },
        {
          "duration": 0.29166666666666663,
          "durationTicks": 28,
          "midi": 51,
          "name": "D#3",
          "ticks": 73,
          "time": 0.7604166666666666,
          "velocity": 0.5039370078740157
        },
        {
          "duration": 0.29166666666666663,
          "durationTicks": 28,
          "midi": 55,
          "name": "G3",
          "ticks": 73,
          "time": 0.7604166666666666,
          "velocity": 0.5039370078740157
        },
        {
          "duration": 0.19791666666666663,
          "durationTicks": 19,
          "midi": 65,
          "name": "F4",
          "ticks": 82,
          "time": 0.8541666666666666,
          "velocity": 0.6299212598425197
        },
        {
          "duration": 1.4270833333333335,
          "durationTicks": 137,
          "midi": 63,
          "name": "D#4",
          "ticks": 93,
          "time": 0.96875,
          "velocity": 0.5039370078740157
        },
        {
          "duration": 0.125,
          "durationTicks": 12,
          "midi": 48,
          "name": "C3",
          "ticks": 104,
          "time": 1.0833333333333333,
          "velocity": 0.5669291338582677
        },
        {
          "duration": 0.11458333333333326,
          "durationTicks": 11,
          "midi": 36,
          "name": "C2",
          "ticks": 105,
          "time": 1.09375,
          "velocity": 0.3779527559055118
        },
        {
          "duration": 0.05208333333333326,
          "durationTicks": 5,
          "midi": 72,
          "name": "C5",
          "ticks": 105,
          "time": 1.09375,
          "velocity": 0.7559055118110236
        },
        {
          "duration": 0.13541666666666674,
          "durationTicks": 13,
          "midi": 70,
          "name": "A#4",
          "ticks": 116,
          "time": 1.2083333333333333,
          "velocity": 0.6929133858267716
        },
        {
          "duration": 0.08333333333333326,
          "durationTicks": 8,
          "midi": 68,
          "name": "G#4",
          "ticks": 127,
          "time": 1.3229166666666667,
          "velocity": 0.6299212598425197
        },
        {
          "duration": 0.25,
          "durationTicks": 24,
          "midi": 36,
          "name": "C2",
          "ticks": 135,
          "time": 1.40625,
          "velocity": 0.5669291338582677
        },
        {
          "duration": 0.23958333333333326,
          "durationTicks": 23,
          "midi": 48,
          "name": "C3",
          "ticks": 136,
          "time": 1.4166666666666667,
          "velocity": 0.5669291338582677
        },
        {
          "duration": 0.04166666666666674,
          "durationTicks": 4,
          "midi": 67,
          "name": "G4",
          "ticks": 137,
          "time": 1.4270833333333333,
          "velocity": 0.7559055118110236
        },
        {
          "duration": 0.11458333333333326,
          "durationTicks": 11,
          "midi": 74,
          "name": "D5",
          "ticks": 148,
          "time": 1.5416666666666667,
          "velocity": 0.6929133858267716
        },
        {
          "duration": 0.125,
          "durationTicks": 12,
          "midi": 75,
          "name": "D#5",
          "ticks": 159,
          "time": 1.65625,
          "velocity": 0.6929133858267716
        },
        {
          "duration": 0.04166666666666674,
          "durationTicks": 4,
          "midi": 77,
          "name": "F5",
          "ticks": 171,
          "time": 1.78125,
          "velocity": 0.5669291338582677
        },
        {
          "duration": 0.22916666666666674,
          "durationTicks": 22,
          "midi": 55,
          "name": "G3",
          "ticks": 172,
          "time": 1.7916666666666667,
          "velocity": 0.5669291338582677
        },
        {
          "duration": 0.22916666666666674,
          "durationTicks": 22,
          "midi": 59,
          "name": "B3",
          "ticks": 172,
          "time": 1.7916666666666667,
          "velocity": 0.5669291338582677
        },
        {
          "duration": 0.21875000000000022,
          "durationTicks": 21,
          "midi": 65,
          "name": "F4",
          "ticks": 173,
          "time": 1.8020833333333333,
          "velocity": 0.5039370078740157
        },
        {
          "duration": 0.12500000000000022,
          "durationTicks": 12,
          "midi": 79,
          "name": "G5",
          "ticks": 182,
          "time": 1.8958333333333333,
          "velocity": 0.6929133858267716
        },
        {
          "duration": 0.10416666666666652,
          "durationTicks": 10,
          "midi": 80,
          "name": "G#5",
          "ticks": 194,
          "time": 2.0208333333333335,
          "velocity": 0.6929133858267716
        },
        {
          "duration": 1.677083333333333,
          "durationTicks": 161,
          "midi": 63,
          "name": "D#4",
          "ticks": 206,
          "time": 2.1458333333333335,
          "velocity": 0.6929133858267716
        },
        {
          "duration": 0.25,
          "durationTicks": 24,
          "midi": 79,
          "name": "G5",
          "ticks": 206,
          "time": 2.1458333333333335,
          "velocity": 0.6929133858267716
        },
        {
          "duration": 1.6666666666666665,
          "durationTicks": 160,
          "midi": 60,
          "name": "C4",
          "ticks": 207,
          "time": 2.15625,
          "velocity": 0.5669291338582677
        },
        {
          "duration": 0.22916666666666696,
          "durationTicks": 22,
          "midi": 55,
          "name": "G3",
          "ticks": 208,
          "time": 2.1666666666666665,
          "velocity": 0.5039370078740157
        },
        {
          "duration": 0.13541666666666696,
          "durationTicks": 13,
          "midi": 86,
          "name": "D6",
          "ticks": 217,
          "time": 2.2604166666666665,
          "velocity": 0.7559055118110236
        },
        {
          "duration": 0.0625,
          "durationTicks": 6,
          "midi": 87,
          "name": "D#6",
          "ticks": 230,
          "time": 2.3958333333333335,
          "velocity": 0.6299212598425197
        },
        {
          "duration": 0.125,
          "durationTicks": 12,
          "midi": 48,
          "name": "C3",
          "ticks": 237,
          "time": 2.46875,
          "velocity": 0.5669291338582677
        },
        {
          "duration": 0.11458333333333348,
          "durationTicks": 11,
          "midi": 36,
          "name": "C2",
          "ticks": 238,
          "time": 2.4791666666666665,
          "velocity": 0.5039370078740157
        },
        {
          "duration": 0.11458333333333348,
          "durationTicks": 11,
          "midi": 89,
          "name": "F6",
          "ticks": 238,
          "time": 2.4791666666666665,
          "velocity": 0.7559055118110236
        },
        {
          "duration": 0.11458333333333348,
          "durationTicks": 11,
          "midi": 91,
          "name": "G6",
          "ticks": 249,
          "time": 2.59375,
          "velocity": 0.6929133858267716
        },
        {
          "duration": 0.125,
          "durationTicks": 12,
          "midi": 92,
          "name": "G#6",
          "ticks": 261,
          "time": 2.71875,
          "velocity": 0.6299212598425197
        },
        {
          "duration": 0.27083333333333304,
          "durationTicks": 26,
          "midi": 48,
          "name": "C3",
          "ticks": 272,
          "time": 2.8333333333333335,
          "velocity": 0.6299212598425197
        },
        {
          "duration": 0.2604166666666665,
          "durationTicks": 25,
          "midi": 36,
          "name": "C2",
          "ticks": 273,
          "time": 2.84375,
          "velocity": 0.6299212598425197
        },
        {
          "duration": 0.2604166666666665,
          "durationTicks": 25,
          "midi": 91,
          "name": "G6",
          "ticks": 273,
          "time": 2.84375,
          "velocity": 0.6929133858267716
        },
        {
          "duration": 0.11458333333333304,
          "durationTicks": 11,
          "midi": 86,
          "name": "D6",
          "ticks": 287,
          "time": 2.9895833333333335,
          "velocity": 0.6299212598425197
        },
        {
          "duration": 0.11458333333333348,
          "durationTicks": 11,
          "midi": 87,
          "name": "D#6",
          "ticks": 298,
          "time": 3.1041666666666665,
          "velocity": 0.6299212598425197
        },
        {
          "duration": 0.2604166666666665,
          "durationTicks": 25,
          "midi": 55,
          "name": "G3",
          "ticks": 309,
          "time": 3.21875,
          "velocity": 0.5039370078740157
        },
        {
          "duration": 0.2604166666666665,
          "durationTicks": 25,
          "midi": 59,
          "name": "B3",
          "ticks": 309,
          "time": 3.21875,
          "velocity": 0.5039370078740157
        },
        {
          "duration": 0.25,
          "durationTicks": 24,
          "midi": 65,
          "name": "F4",
          "ticks": 310,
          "time": 3.2291666666666665,
          "velocity": 0.5039370078740157
        },
        {
          "duration": 0.25,
          "durationTicks": 24,
          "midi": 84,
          "name": "C6",
          "ticks": 310,
          "time": 3.2291666666666665,
          "velocity": 0.6299212598425197
        },
        {
          "duration": 0.13541666666666652,
          "durationTicks": 13,
          "midi": 87,
          "name": "D#6",
          "ticks": 321,
          "time": 3.34375,
          "velocity": 0.5669291338582677
        },
        {
          "duration": 0.07291666666666696,
          "durationTicks": 7,
          "midi": 86,
          "name": "D6",
          "ticks": 334,
          "time": 3.4791666666666665,
          "velocity": 0.6299212598425197
        },
        {
          "duration": 0.23958333333333304,
          "durationTicks": 23,
          "midi": 84,
          "name": "C6",
          "ticks": 344,
          "time": 3.5833333333333335,
          "velocity": 0.6299212598425197
        },
        {
          "duration": 0.645833333333333,
          "durationTicks": 62,
          "midi": 63,
          "name": "D#4",
          "ticks": 345,
          "time": 3.59375,
          "velocity": 0.6299212598425197
        },
        {
          "duration": 1.0312500000000004,
          "durationTicks": 99,
          "midi": 60,
          "name": "C4",
          "ticks": 346,
          "time": 3.6041666666666665,
          "velocity": 0.5039370078740157
        },
        {
          "duration": 0.20833333333333304,
          "durationTicks": 20,
          "midi": 55,
          "name": "G3",
          "ticks": 347,
          "time": 3.6145833333333335,
          "velocity": 0.4409448818897638
        },
        {
          "duration": 0.125,
          "durationTicks": 12,
          "midi": 79,
          "name": "G5",
          "ticks": 355,
          "time": 3.6979166666666665,
          "velocity": 0.6929133858267716
        },
        {
          "duration": 0.05208333333333348,
          "durationTicks": 5,
          "midi": 75,
          "name": "D#5",
          "ticks": 367,
          "time": 3.8229166666666665,
          "velocity": 0.5669291338582677
        },
        {
          "duration": 0.23958333333333348,
          "durationTicks": 23,
          "midi": 48,
          "name": "C3",
          "ticks": 379,
          "time": 3.9479166666666665,
          "velocity": 0.4409448818897638
        },
        {
          "duration": 0.23958333333333348,
          "durationTicks": 23,
          "midi": 72,
          "name": "C5",
          "ticks": 379,
          "time": 3.9479166666666665,
          "velocity": 0.6299212598425197
        },
        {
          "duration": 0.13541666666666696,
          "durationTicks": 13,
          "midi": 67,
          "name": "G4",
          "ticks": 389,
          "time": 4.052083333333333,
          "velocity": 0.6299212598425197
        },
        {
          "duration": 1.875,
          "durationTicks": 180,
          "midi": 63,
          "name": "D#4",
          "ticks": 402,
          "time": 4.1875,
          "velocity": 0.5039370078740157
        },
        {
          "duration": 0.28125,
          "durationTicks": 27,
          "midi": 48,
          "name": "C3",
          "ticks": 412,
          "time": 4.291666666666667,
          "velocity": 0.5039370078740157
        },
        {
          "duration": 0.07291666666666696,
          "durationTicks": 7,
          "midi": 36,
          "name": "C2",
          "ticks": 413,
          "time": 4.302083333333333,
          "velocity": 0.4409448818897638
        },
        {
          "duration": 0.979166666666667,
          "durationTicks": 94,
          "midi": 60,
          "name": "C4",
          "ticks": 414,
          "time": 4.3125,
          "velocity": 0.5669291338582677
        },
        {
          "duration": 0.13541666666666696,
          "durationTicks": 13,
          "midi": 55,
          "name": "G3",
          "ticks": 426,
          "time": 4.4375,
          "velocity": 0.5039370078740157
        },
        {
          "duration": 1.177083333333333,
          "durationTicks": 113,
          "midi": 60,
          "name": "C4",
          "ticks": 439,
          "time": 4.572916666666667,
          "velocity": 0.5669291338582677
        },
        {
          "duration": 0.23958333333333393,
          "durationTicks": 23,
          "midi": 53,
          "name": "F3",
          "ticks": 449,
          "time": 4.677083333333333,
          "velocity": 0.4409448818897638
        },
        {
          "duration": 0.22916666666666696,
          "durationTicks": 22,
          "midi": 46,
          "name": "A#2",
          "ticks": 450,
          "time": 4.6875,
          "velocity": 0.4409448818897638
        },
        {
          "duration": 0.28125,
          "durationTicks": 27,
          "midi": 62,
          "name": "D4",
          "ticks": 450,
          "time": 4.6875,
          "velocity": 0.5669291338582677
        },
        {
          "duration": 0.11458333333333393,
          "durationTicks": 11,
          "midi": 58,
          "name": "A#3",
          "ticks": 461,
          "time": 4.802083333333333,
          "velocity": 0.5669291338582677
        },
        {
          "duration": 1.177083333333333,
          "durationTicks": 113,
          "midi": 62,
          "name": "D4",
          "ticks": 472,
          "time": 4.916666666666667,
          "velocity": 0.4409448818897638
        },
        {
          "duration": 1.135416666666667,
          "durationTicks": 109,
          "midi": 60,
          "name": "C4",
          "ticks": 483,
          "time": 5.03125,
          "velocity": 0.5039370078740157
        },
        {
          "duration": 0.25,
          "durationTicks": 24,
          "midi": 41,
          "name": "F2",
          "ticks": 484,
          "time": 5.041666666666667,
          "velocity": 0.3779527559055118
        },
        {
          "duration": 0.23958333333333393,
          "durationTicks": 23,
          "midi": 53,
          "name": "F3",
          "ticks": 485,
          "time": 5.052083333333333,
          "velocity": 0.4409448818897638
        },
        {
          "duration": 0.35416666666666696,
          "durationTicks": 34,
          "midi": 56,
          "name": "G#3",
          "ticks": 485,
          "time": 5.052083333333333,
          "velocity": 0.4409448818897638
        },
        {
          "duration": 0.125,
          "durationTicks": 12,
          "midi": 55,
          "name": "G3",
          "ticks": 496,
          "time": 5.166666666666667,
          "velocity": 0.5669291338582677
        },
        {
          "duration": 7.645833333333333,
          "durationTicks": 734,
          "midi": 56,
          "name": "G#3",
          "ticks": 508,
          "time": 5.291666666666667,
          "velocity": 0.5039370078740157
        },
        {
          "duration": 0.32291666666666696,
          "durationTicks": 31,
          "midi": 53,
          "name": "F3",
          "ticks": 521,
          "time": 5.427083333333333,
          "velocity": 0.5669291338582677
        },
        {
          "duration": 0.32291666666666696,
          "durationTicks": 31,
          "midi": 65,
          "name": "F4",
          "ticks": 521,
          "time": 5.427083333333333,
          "velocity": 0.6299212598425197
        },
        {
          "duration": 0.927083333333333,
          "durationTicks": 89,
          "midi": 60,
          "name": "C4",
          "ticks": 535,
          "time": 5.572916666666667,
          "velocity": 0.5669291338582677
        },
        {
          "duration": 1.135416666666667,
          "durationTicks": 109,
          "midi": 65,
          "name": "F4",
          "ticks": 548,
          "time": 5.708333333333333,
          "velocity": 0.4409448818897638
        },
        {
          "duration": 0.583333333333333,
          "durationTicks": 56,
          "midi": 63,
          "name": "D#4",
          "ticks": 559,
          "time": 5.822916666666667,
          "velocity": 0.6929133858267716
        },
        {
          "duration": 0.22916666666666696,
          "durationTicks": 22,
          "midi": 48,
          "name": "C3",
          "ticks": 560,
          "time": 5.833333333333333,
          "velocity": 0.5669291338582677
        },
        {
          "duration": 0.21875,
          "durationTicks": 21,
          "midi": 36,
          "name": "C2",
          "ticks": 561,
          "time": 5.84375,
          "velocity": 0.5669291338582677
        },
        {
          "duration": 0.45833333333333304,
          "durationTicks": 44,
          "midi": 62,
          "name": "D4",
          "ticks": 571,
          "time": 5.947916666666667,
          "velocity": 0.6299212598425197
        },
        {
          "duration": 2.208333333333334,
          "durationTicks": 212,
          "midi": 60,
          "name": "C4",
          "ticks": 582,
          "time": 6.0625,
          "velocity": 0.6299212598425197
        },
        {
          "duration": 0.645833333333333,
          "durationTicks": 62,
          "midi": 63,
          "name": "D#4",
          "ticks": 595,
          "time": 6.197916666666667,
          "velocity": 0.6929133858267716
        },
        {
          "duration": 0.19791666666666696,
          "durationTicks": 19,
          "midi": 51,
          "name": "D#3",
          "ticks": 596,
          "time": 6.208333333333333,
          "velocity": 0.5039370078740157
        },
        {
          "duration": 0.19791666666666696,
          "durationTicks": 19,
          "midi": 55,
          "name": "G3",
          "ticks": 596,
          "time": 6.208333333333333,
          "velocity": 0.5039370078740157
        },
        {
          "duration": 10.864583333333332,
          "durationTicks": 1043,
          "midi": 62,
          "name": "D4",
          "ticks": 606,
          "time": 6.3125,
          "velocity": 0.6299212598425197
        },
        {
          "duration": 3.354166666666667,
          "durationTicks": 322,
          "midi": 60,
          "name": "C4",
          "ticks": 617,
          "time": 6.427083333333333,
          "velocity": 0.6299212598425197
        },
        {
          "duration": 0.052083333333333925,
          "durationTicks": 5,
          "midi": 67,
          "name": "G4",
          "ticks": 629,
          "time": 6.552083333333333,
          "velocity": 0.6299212598425197
        },
        {
          "duration": 0.04166666666666696,
          "durationTicks": 4,
          "midi": 55,
          "name": "G3",
          "ticks": 630,
          "time": 6.5625,
          "velocity": 0.5669291338582677
        },
        {
          "duration": 0.27083333333333304,
          "durationTicks": 26,
          "midi": 51,
          "name": "D#3",
          "ticks": 631,
          "time": 6.572916666666667,
          "velocity": 0.4409448818897638
        },
        {
          "duration": 1.239583333333333,
          "durationTicks": 119,
          "midi": 65,
          "name": "F4",
          "ticks": 640,
          "time": 6.666666666666667,
          "velocity": 0.6299212598425197
        },
        {
          "duration": 1.489583333333334,
          "durationTicks": 143,
          "midi": 63,
          "name": "D#4",
          "ticks": 651,
          "time": 6.78125,
          "velocity": 0.5669291338582677
        },
        {
          "duration": 0.13541666666666607,
          "durationTicks": 13,
          "midi": 36,
          "name": "C2",
          "ticks": 664,
          "time": 6.916666666666667,
          "velocity": 0.5039370078740157
        },
        {
          "duration": 0.13541666666666607,
          "durationTicks": 13,
          "midi": 48,
          "name": "C3",
          "ticks": 664,
          "time": 6.916666666666667,
          "velocity": 0.5039370078740157
        },
        {
          "duration": 0.13541666666666607,
          "durationTicks": 13,
          "midi": 72,
          "name": "C5",
          "ticks": 664,
          "time": 6.916666666666667,
          "velocity": 0.6299212598425197
        },
        {
          "duration": 0.13541666666666696,
          "durationTicks": 13,
          "midi": 70,
          "name": "A#4",
          "ticks": 677,
          "time": 7.052083333333333,
          "velocity": 0.6929133858267716
        },
        {
          "duration": 0.08333333333333304,
          "durationTicks": 8,
          "midi": 68,
          "name": "G#4",
          "ticks": 688,
          "time": 7.166666666666667,
          "velocity": 0.5669291338582677
        },
        {
          "duration": 0.28125,
          "durationTicks": 27,
          "midi": 36,
          "name": "C2",
          "ticks": 698,
          "time": 7.270833333333333,
          "velocity": 0.5669291338582677
        },
        {
          "duration": 0.27083333333333304,
          "durationTicks": 26,
          "midi": 48,
          "name": "C3",
          "ticks": 699,
          "time": 7.28125,
          "velocity": 0.5669291338582677
        },
        {
          "duration": 0.2604166666666661,
          "durationTicks": 25,
          "midi": 67,
          "name": "G4",
          "ticks": 700,
          "time": 7.291666666666667,
          "velocity": 0.7559055118110236
        },
        {
          "duration": 0.125,
          "durationTicks": 12,
          "midi": 74,
          "name": "D5",
          "ticks": 713,
          "time": 7.427083333333333,
          "velocity": 0.7559055118110236
        },
        {
          "duration": 0.13541666666666696,
          "durationTicks": 13,
          "midi": 75,
          "name": "D#5",
          "ticks": 723,
          "time": 7.53125,
          "velocity": 0.7559055118110236
        },
        {
          "duration": 0.25,
          "durationTicks": 24,
          "midi": 59,
          "name": "B3",
          "ticks": 735,
          "time": 7.65625,
          "velocity": 0.5669291338582677
        },
        {
          "duration": 0.23958333333333304,
          "durationTicks": 23,
          "midi": 55,
          "name": "G3",
          "ticks": 736,
          "time": 7.666666666666667,
          "velocity": 0.5669291338582677
        },
        {
          "duration": 0.23958333333333304,
          "durationTicks": 23,
          "midi": 77,
          "name": "F5",
          "ticks": 736,
          "time": 7.666666666666667,
          "velocity": 0.5669291338582677
        },
        {
          "duration": 1.729166666666667,
          "durationTicks": 166,
          "midi": 65,
          "name": "F4",
          "ticks": 737,
          "time": 7.677083333333333,
          "velocity": 0.4409448818897638
        },
        {
          "duration": 0.11458333333333304,
          "durationTicks": 11,
          "midi": 79,
          "name": "G5",
          "ticks": 748,
          "time": 7.791666666666667,
          "velocity": 0.6929133858267716
        },
        {
          "duration": 0.11458333333333393,
          "durationTicks": 11,
          "midi": 80,
          "name": "G#5",
          "ticks": 759,
          "time": 7.90625,
          "velocity": 0.7559055118110236
        },
        {
          "duration": 1.75,
          "durationTicks": 168,
          "midi": 63,
          "name": "D#4",
          "ticks": 771,
          "time": 8.03125,
          "velocity": 0.6929133858267716
        },
        {
          "duration": 0.22916666666666785,
          "durationTicks": 22,
          "midi": 79,
          "name": "G5",
          "ticks": 772,
          "time": 8.041666666666666,
          "velocity": 0.7559055118110236
        },
        {
          "duration": 0.21875,
          "durationTicks": 21,
          "midi": 55,
          "name": "G3",
          "ticks": 773,
          "time": 8.052083333333334,
          "velocity": 0.5039370078740157
        },
        {
          "duration": 2.458333333333332,
          "durationTicks": 236,
          "midi": 60,
          "name": "C4",
          "ticks": 773,
          "time": 8.052083333333334,
          "velocity": 0.6299212598425197
        },
        {
          "duration": 0.125,
          "durationTicks": 12,
          "midi": 86,
          "name": "D6",
          "ticks": 782,
          "time": 8.145833333333334,
          "velocity": 0.7559055118110236
        },
        {
          "duration": 0.11458333333333215,
          "durationTicks": 11,
          "midi": 87,
          "name": "D#6",
          "ticks": 794,
          "time": 8.270833333333334,
          "velocity": 0.7559055118110236
        },
        {
          "duration": 0.25,
          "durationTicks": 24,
          "midi": 89,
          "name": "F6",
          "ticks": 806,
          "time": 8.395833333333334,
          "velocity": 0.6929133858267716
        },
        {
          "duration": 0.23958333333333393,
          "durationTicks": 23,
          "midi": 36,
          "name": "C2",
          "ticks": 807,
          "time": 8.40625,
          "velocity": 0.5669291338582677
        },
        {
          "duration": 0.23958333333333393,
          "durationTicks": 23,
          "midi": 48,
          "name": "C3",
          "ticks": 807,
          "time": 8.40625,
          "velocity": 0.6299212598425197
        },
        {
          "duration": 0.125,
          "durationTicks": 12,
          "midi": 91,
          "name": "G6",
          "ticks": 818,
          "time": 8.520833333333334,
          "velocity": 0.6929133858267716
        },
        {
          "duration": 0.125,
          "durationTicks": 12,
          "midi": 92,
          "name": "G#6",
          "ticks": 830,
          "time": 8.645833333333334,
          "velocity": 0.6929133858267716
        },
        {
          "duration": 0.2604166666666661,
          "durationTicks": 25,
          "midi": 48,
          "name": "C3",
          "ticks": 842,
          "time": 8.770833333333334,
          "velocity": 0.6929133858267716
        },
        {
          "duration": 0.25,
          "durationTicks": 24,
          "midi": 36,
          "name": "C2",
          "ticks": 843,
          "time": 8.78125,
          "velocity": 0.6299212598425197
        },
        {
          "duration": 0.25,
          "durationTicks": 24,
          "midi": 91,
          "name": "G6",
          "ticks": 843,
          "time": 8.78125,
          "velocity": 0.6929133858267716
        },
        {
          "duration": 0.125,
          "durationTicks": 12,
          "midi": 86,
          "name": "D6",
          "ticks": 855,
          "time": 8.90625,
          "velocity": 0.6929133858267716
        },
        {
          "duration": 0.10416666666666607,
          "durationTicks": 10,
          "midi": 87,
          "name": "D#6",
          "ticks": 867,
          "time": 9.03125,
          "velocity": 0.6929133858267716
        },
        {
          "duration": 0.25,
          "durationTicks": 24,
          "midi": 84,
          "name": "C6",
          "ticks": 879,
          "time": 9.15625,
          "velocity": 0.6929133858267716
        },
        {
          "duration": 7.812500000000002,
          "durationTicks": 750,
          "midi": 65,
          "name": "F4",
          "ticks": 880,
          "time": 9.166666666666666,
          "velocity": 0.5669291338582677
        },
        {
          "duration": 0.22916666666666607,
          "durationTicks": 22,
          "midi": 55,
          "name": "G3",
          "ticks": 881,
          "time": 9.177083333333334,
          "velocity": 0.6299212598425197
        },
        {
          "duration": 0.22916666666666607,
          "durationTicks": 22,
          "midi": 59,
          "name": "B3",
          "ticks": 881,
          "time": 9.177083333333334,
          "velocity": 0.6299212598425197
        },
        {
          "duration": 0.13541666666666607,
          "durationTicks": 13,
          "midi": 87,
          "name": "D#6",
          "ticks": 890,
          "time": 9.270833333333334,
          "velocity": 0.6929133858267716
        },
        {
          "duration": 0.11458333333333215,
          "durationTicks": 11,
          "midi": 86,
          "name": "D6",
          "ticks": 902,
          "time": 9.395833333333334,
          "velocity": 0.6299212598425197
        },
        {
          "duration": 0.2604166666666661,
          "durationTicks": 25,
          "midi": 84,
          "name": "C6",
          "ticks": 914,
          "time": 9.520833333333334,
          "velocity": 0.6929133858267716
        },
        {
          "duration": 3.395833333333334,
          "durationTicks": 326,
          "midi": 60,
          "name": "C4",
          "ticks": 916,
          "time": 9.541666666666666,
          "velocity": 0.6299212598425197
        },
        {
          "duration": 0.7291666666666679,
          "durationTicks": 70,
          "midi": 63,
          "name": "D#4",
          "ticks": 916,
          "time": 9.541666666666666,
          "velocity": 0.6299212598425197
        },
        {
          "duration": 0.125,
          "durationTicks": 12,
          "midi": 79,
          "name": "G5",
          "ticks": 927,
          "time": 9.65625,
          "velocity": 0.6299212598425197
        },
        {
          "duration": 0.052083333333333925,
          "durationTicks": 5,
          "midi": 75,
          "name": "D#5",
          "ticks": 939,
          "time": 9.78125,
          "velocity": 0.6299212598425197
        },
        {
          "duration": 0.15625,
          "durationTicks": 15,
          "midi": 72,
          "name": "C5",
          "ticks": 952,
          "time": 9.916666666666666,
          "velocity": 0.6929133858267716
        },
        {
          "duration": 0.14583333333333215,
          "durationTicks": 14,
          "midi": 48,
          "name": "C3",
          "ticks": 953,
          "time": 9.927083333333334,
          "velocity": 0.6299212598425197
        },
        {
          "duration": 0.13541666666666785,
          "durationTicks": 13,
          "midi": 67,
          "name": "G4",
          "ticks": 967,
          "time": 10.072916666666666,
          "velocity": 0.6929133858267716
        },
        {
          "duration": 1.145833333333334,
          "durationTicks": 110,
          "midi": 63,
          "name": "D#4",
          "ticks": 979,
          "time": 10.197916666666666,
          "velocity": 0.5039370078740157
        },
        {
          "duration": 3.0625,
          "durationTicks": 294,
          "midi": 60,
          "name": "C4",
          "ticks": 991,
          "time": 10.322916666666666,
          "velocity": 0.6929133858267716
        },
        {
          "duration": 0.16666666666666607,
          "durationTicks": 16,
          "midi": 48,
          "name": "C3",
          "ticks": 993,
          "time": 10.34375,
          "velocity": 0.6299212598425197
        },
        {
          "duration": 0.15625,
          "durationTicks": 15,
          "midi": 36,
          "name": "C2",
          "ticks": 994,
          "time": 10.354166666666666,
          "velocity": 0.5039370078740157
        },
        {
          "duration": 0.11458333333333393,
          "durationTicks": 11,
          "midi": 51,
          "name": "D#3",
          "ticks": 1047,
          "time": 10.90625,
          "velocity": 0.5669291338582677
        },
        {
          "duration": 0.14583333333333393,
          "durationTicks": 14,
          "midi": 75,
          "name": "D#5",
          "ticks": 1047,
          "time": 10.90625,
          "velocity": 0.6929133858267716
        },
        {
          "duration": 0.13541666666666785,
          "durationTicks": 13,
          "midi": 73,
          "name": "C#5",
          "ticks": 1060,
          "time": 11.041666666666666,
          "velocity": 0.6299212598425197
        },
        {
          "duration": 0.0625,
          "durationTicks": 6,
          "midi": 72,
          "name": "C5",
          "ticks": 1072,
          "time": 11.166666666666666,
          "velocity": 0.6299212598425197
        },
        {
          "duration": 1.65625,
          "durationTicks": 159,
          "midi": 63,
          "name": "D#4",
          "ticks": 1083,
          "time": 11.28125,
          "velocity": 0.6299212598425197
        },
        {
          "duration": 0.052083333333333925,
          "durationTicks": 5,
          "midi": 73,
          "name": "C#5",
          "ticks": 1083,
          "time": 11.28125,
          "velocity": 0.7559055118110236
        },
        {
          "duration": 0.17708333333333393,
          "durationTicks": 17,
          "midi": 58,
          "name": "A#3",
          "ticks": 1084,
          "time": 11.291666666666666,
          "velocity": 0.3779527559055118
        },
        {
          "duration": 0.08333333333333393,
          "durationTicks": 8,
          "midi": 72,
          "name": "C5",
          "ticks": 1095,
          "time": 11.40625,
          "velocity": 0.6299212598425197
        },
        {
          "duration": 0.09375,
          "durationTicks": 9,
          "midi": 70,
          "name": "A#4",
          "ticks": 1104,
          "time": 11.5,
          "velocity": 0.6299212598425197
        },
        {
          "duration": 0.0625,
          "durationTicks": 6,
          "midi": 73,
          "name": "C#5",
          "ticks": 1117,
          "time": 11.635416666666666,
          "velocity": 0.7559055118110236
        },
        {
          "duration": 0.05208333333333215,
          "durationTicks": 5,
          "midi": 61,
          "name": "C#4",
          "ticks": 1118,
          "time": 11.645833333333334,
          "velocity": 0.5669291338582677
        },
        {
          "duration": 0.20833333333333393,
          "durationTicks": 20,
          "midi": 55,
          "name": "G3",
          "ticks": 1119,
          "time": 11.65625,
          "velocity": 0.5039370078740157
        },
        {
          "duration": 0.10416666666666785,
          "durationTicks": 10,
          "midi": 72,
          "name": "C5",
          "ticks": 1129,
          "time": 11.760416666666666,
          "velocity": 0.5669291338582677
        },
        {
          "duration": 0.08333333333333215,
          "durationTicks": 8,
          "midi": 70,
          "name": "A#4",
          "ticks": 1139,
          "time": 11.864583333333334,
          "velocity": 0.6299212598425197
        },
        {
          "duration": 0.14583333333333393,
          "durationTicks": 14,
          "midi": 75,
          "name": "D#5",
          "ticks": 1152,
          "time": 12,
          "velocity": 0.8188976377952756
        },
        {
          "duration": 0.125,
          "durationTicks": 12,
          "midi": 51,
          "name": "D#3",
          "ticks": 1154,
          "time": 12.020833333333334,
          "velocity": 0.4409448818897638
        },
        {
          "duration": 0.09375,
          "durationTicks": 9,
          "midi": 73,
          "name": "C#5",
          "ticks": 1166,
          "time": 12.145833333333334,
          "velocity": 0.5039370078740157
        },
        {
          "duration": 0.10416666666666785,
          "durationTicks": 10,
          "midi": 72,
          "name": "C5",
          "ticks": 1174,
          "time": 12.229166666666666,
          "velocity": 0.5669291338582677
        },
        {
          "duration": 0.03125,
          "durationTicks": 3,
          "midi": 44,
          "name": "G#2",
          "ticks": 1187,
          "time": 12.364583333333334,
          "velocity": 0.5669291338582677
        },
        {
          "duration": 0.23958333333333393,
          "durationTicks": 23,
          "midi": 73,
          "name": "C#5",
          "ticks": 1189,
          "time": 12.385416666666666,
          "velocity": 0.6929133858267716
        },
        {
          "duration": 0.10416666666666607,
          "durationTicks": 10,
          "midi": 72,
          "name": "C5",
          "ticks": 1202,
          "time": 12.520833333333334,
          "velocity": 0.6929133858267716
        },
        {
          "duration": 0.08333333333333393,
          "durationTicks": 8,
          "midi": 70,
          "name": "A#4",
          "ticks": 1212,
          "time": 12.625,
          "velocity": 0.6299212598425197
        },
        {
          "duration": 2.020833333333334,
          "durationTicks": 194,
          "midi": 60,
          "name": "C4",
          "ticks": 1224,
          "time": 12.75,
          "velocity": 0.5669291338582677
        },
        {
          "duration": 0.1875,
          "durationTicks": 18,
          "midi": 72,
          "name": "C5",
          "ticks": 1224,
          "time": 12.75,
          "velocity": 0.6299212598425197
        },
        {
          "duration": 0.625,
          "durationTicks": 60,
          "midi": 63,
          "name": "D#4",
          "ticks": 1225,
          "time": 12.760416666666666,
          "velocity": 0.4409448818897638
        },
        {
          "duration": 0.6145833333333321,
          "durationTicks": 59,
          "midi": 56,
          "name": "G#3",
          "ticks": 1226,
          "time": 12.770833333333334,
          "velocity": 0.3779527559055118
        },
        {
          "duration": 0.0625,
          "durationTicks": 6,
          "midi": 70,
          "name": "A#4",
          "ticks": 1236,
          "time": 12.875,
          "velocity": 0.6299212598425197
        },
        {
          "duration": 0.07291666666666785,
          "durationTicks": 7,
          "midi": 68,
          "name": "G#4",
          "ticks": 1246,
          "time": 12.979166666666666,
          "velocity": 0.6299212598425197
        },
        {
          "duration": 0.28125,
          "durationTicks": 27,
          "midi": 72,
          "name": "C5",
          "ticks": 1258,
          "time": 13.104166666666666,
          "velocity": 0.7559055118110236
        },
        {
          "duration": 2.760416666666666,
          "durationTicks": 265,
          "midi": 60,
          "name": "C4",
          "ticks": 1259,
          "time": 13.114583333333334,
          "velocity": 0.5039370078740157
        },
        {
          "duration": 1.270833333333334,
          "durationTicks": 122,
          "midi": 56,
          "name": "G#3",
          "ticks": 1260,
          "time": 13.125,
          "velocity": 0.31496062992125984
        },
        {
          "duration": 1.020833333333334,
          "durationTicks": 98,
          "midi": 63,
          "name": "D#4",
          "ticks": 1260,
          "time": 13.125,
          "velocity": 0.3779527559055118
        },
        {
          "duration": 0.16666666666666607,
          "durationTicks": 16,
          "midi": 70,
          "name": "A#4",
          "ticks": 1269,
          "time": 13.21875,
          "velocity": 0.6299212598425197
        },
        {
          "duration": 0.0625,
          "durationTicks": 6,
          "midi": 68,
          "name": "G#4",
          "ticks": 1279,
          "time": 13.322916666666666,
          "velocity": 0.6299212598425197
        },
        {
          "duration": 0.11458333333333215,
          "durationTicks": 11,
          "midi": 70,
          "name": "A#4",
          "ticks": 1292,
          "time": 13.458333333333334,
          "velocity": 0.6929133858267716
        },
        {
          "duration": 0.10416666666666607,
          "durationTicks": 10,
          "midi": 51,
          "name": "D#3",
          "ticks": 1293,
          "time": 13.46875,
          "velocity": 0.5039370078740157
        },
        {
          "duration": 0.13541666666666785,
          "durationTicks": 13,
          "midi": 68,
          "name": "G#4",
          "ticks": 1303,
          "time": 13.572916666666666,
          "velocity": 0.6299212598425197
        },
        {
          "duration": 0.07291666666666607,
          "durationTicks": 7,
          "midi": 67,
          "name": "G4",
          "ticks": 1316,
          "time": 13.708333333333334,
          "velocity": 0.6299212598425197
        },
        {
          "duration": 0.05208333333333215,
          "durationTicks": 5,
          "midi": 44,
          "name": "G#2",
          "ticks": 1325,
          "time": 13.802083333333334,
          "velocity": 0.5039370078740157
        },
        {
          "duration": 0.34375,
          "durationTicks": 33,
          "midi": 68,
          "name": "G#4",
          "ticks": 1325,
          "time": 13.802083333333334,
          "velocity": 0.7559055118110236
        },
        {
          "duration": 0.4583333333333339,
          "durationTicks": 44,
          "midi": 63,
          "name": "D#4",
          "ticks": 1338,
          "time": 13.9375,
          "velocity": 0.6929133858267716
        },
        {
          "duration": 0.71875,
          "durationTicks": 69,
          "midi": 68,
          "name": "G#4",
          "ticks": 1349,
          "time": 14.052083333333334,
          "velocity": 0.6299212598425197
        },
        {
          "duration": 0.34375,
          "durationTicks": 33,
          "midi": 70,
          "name": "A#4",
          "ticks": 1359,
          "time": 14.15625,
          "velocity": 0.8188976377952756
        },
        {
          "duration": 0.21875,
          "durationTicks": 21,
          "midi": 61,
          "name": "C#4",
          "ticks": 1361,
          "time": 14.177083333333334,
          "velocity": 0.5669291338582677
        },
        {
          "duration": 1.697916666666666,
          "durationTicks": 163,
          "midi": 63,
          "name": "D#4",
          "ticks": 1361,
          "time": 14.177083333333334,
          "velocity": 0.5669291338582677
        },
        {
          "duration": 0.5833333333333339,
          "durationTicks": 56,
          "midi": 56,
          "name": "G#3",
          "ticks": 1362,
          "time": 14.1875,
          "velocity": 0.3779527559055118
        },
        {
          "duration": 0.11458333333333393,
          "durationTicks": 11,
          "midi": 67,
          "name": "G4",
          "ticks": 1371,
          "time": 14.28125,
          "velocity": 0.6299212598425197
        },
        {
          "duration": 1.2083333333333321,
          "durationTicks": 116,
          "midi": 70,
          "name": "A#4",
          "ticks": 1379,
          "time": 14.364583333333334,
          "velocity": 0.6299212598425197
        },
        {
          "duration": 0.34375,
          "durationTicks": 33,
          "midi": 72,
          "name": "C5",
          "ticks": 1394,
          "time": 14.520833333333334,
          "velocity": 0.7559055118110236
        },
        {
          "duration": 1.34375,
          "durationTicks": 129,
          "midi": 56,
          "name": "G#3",
          "ticks": 1395,
          "time": 14.53125,
          "velocity": 0.5669291338582677
        },
        {
          "duration": 1.708333333333334,
          "durationTicks": 164,
          "midi": 60,
          "name": "C4",
          "ticks": 1396,
          "time": 14.541666666666666,
          "velocity": 0.5039370078740157
        },
        {
          "duration": 1.3125,
          "durationTicks": 126,
          "midi": 68,
          "name": "G#4",
          "ticks": 1407,
          "time": 14.65625,
          "velocity": 0.6299212598425197
        },
        {
          "duration": 0.4375,
          "durationTicks": 42,
          "midi": 72,
          "name": "C5",
          "ticks": 1418,
          "time": 14.770833333333334,
          "velocity": 0.6299212598425197
        },
        {
          "duration": 0.25,
          "durationTicks": 24,
          "midi": 75,
          "name": "D#5",
          "ticks": 1430,
          "time": 14.895833333333334,
          "velocity": 0.7559055118110236
        },
        {
          "duration": 0.22916666666666785,
          "durationTicks": 22,
          "midi": 51,
          "name": "D#3",
          "ticks": 1432,
          "time": 14.916666666666666,
          "velocity": 0.5039370078740157
        },
        {
          "duration": 0.11458333333333393,
          "durationTicks": 11,
          "midi": 73,
          "name": "C#5",
          "ticks": 1443,
          "time": 15.03125,
          "velocity": 0.6299212598425197
        },
        {
          "duration": 0.36458333333333215,
          "durationTicks": 35,
          "midi": 72,
          "name": "C5",
          "ticks": 1454,
          "time": 15.145833333333334,
          "velocity": 0.6299212598425197
        },
        {
          "duration": 0.28125,
          "durationTicks": 27,
          "midi": 44,
          "name": "G#2",
          "ticks": 1462,
          "time": 15.229166666666666,
          "velocity": 0.5669291338582677
        },
        {
          "duration": 0.22916666666666607,
          "durationTicks": 22,
          "midi": 73,
          "name": "C#5",
          "ticks": 1467,
          "time": 15.28125,
          "velocity": 0.6929133858267716
        },
        {
          "duration": 0.4791666666666661,
          "durationTicks": 46,
          "midi": 72,
          "name": "C5",
          "ticks": 1478,
          "time": 15.395833333333334,
          "velocity": 0.7559055118110236
        },
        {
          "duration": 0.3645833333333339,
          "durationTicks": 35,
          "midi": 70,
          "name": "A#4",
          "ticks": 1489,
          "time": 15.510416666666666,
          "velocity": 0.6929133858267716
        },
        {
          "duration": 6.15625,
          "durationTicks": 591,
          "midi": 60,
          "name": "C4",
          "ticks": 1500,
          "time": 15.625,
          "velocity": 0.6299212598425197
        },
        {
          "duration": 6.145833333333334,
          "durationTicks": 590,
          "midi": 56,
          "name": "G#3",
          "ticks": 1501,
          "time": 15.635416666666666,
          "velocity": 0.4409448818897638
        },
        {
          "duration": 0.6145833333333339,
          "durationTicks": 59,
          "midi": 72,
          "name": "C5",
          "ticks": 1501,
          "time": 15.635416666666666,
          "velocity": 0.6929133858267716
        },
        {
          "duration": 0.6041666666666661,
          "durationTicks": 58,
          "midi": 63,
          "name": "D#4",
          "ticks": 1502,
          "time": 15.645833333333334,
          "velocity": 0.5039370078740157
        },
        {
          "duration": 0.4895833333333339,
          "durationTicks": 47,
          "midi": 70,
          "name": "A#4",
          "ticks": 1513,
          "time": 15.760416666666666,
          "velocity": 0.6299212598425197
        },
        {
          "duration": 0.4791666666666661,
          "durationTicks": 46,
          "midi": 68,
          "name": "G#4",
          "ticks": 1523,
          "time": 15.864583333333334,
          "velocity": 0.5669291338582677
        },
        {
          "duration": 0.23958333333333215,
          "durationTicks": 23,
          "midi": 55,
          "name": "G3",
          "ticks": 1537,
          "time": 16.010416666666668,
          "velocity": 0.6299212598425197
        },
        {
          "duration": 7.322916666666664,
          "durationTicks": 703,
          "midi": 60,
          "name": "C4",
          "ticks": 1537,
          "time": 16.010416666666668,
          "velocity": 0.5039370078740157
        },
        {
          "duration": 3.28125,
          "durationTicks": 315,
          "midi": 72,
          "name": "C5",
          "ticks": 1537,
          "time": 16.010416666666668,
          "velocity": 0.6929133858267716
        },
        {
          "duration": 2.8125,
          "durationTicks": 270,
          "midi": 63,
          "name": "D#4",
          "ticks": 1538,
          "time": 16.020833333333332,
          "velocity": 0.5669291338582677
        },
        {
          "duration": 0.46875,
          "durationTicks": 45,
          "midi": 70,
          "name": "A#4",
          "ticks": 1550,
          "time": 16.145833333333332,
          "velocity": 0.5039370078740157
        },
        {
          "duration": 0.40625,
          "durationTicks": 39,
          "midi": 68,
          "name": "G#4",
          "ticks": 1556,
          "time": 16.208333333333332,
          "velocity": 0.6299212598425197
        },
        {
          "duration": 0.7291666666666679,
          "durationTicks": 70,
          "midi": 70,
          "name": "A#4",
          "ticks": 1571,
          "time": 16.364583333333332,
          "velocity": 0.6929133858267716
        },
        {
          "duration": 0.23958333333333215,
          "durationTicks": 23,
          "midi": 53,
          "name": "F3",
          "ticks": 1572,
          "time": 16.375,
          "velocity": 0.5669291338582677
        },
        {
          "duration": 0.5,
          "durationTicks": 48,
          "midi": 68,
          "name": "G#4",
          "ticks": 1582,
          "time": 16.479166666666668,
          "velocity": 0.6299212598425197
        },
        {
          "duration": 0.125,
          "durationTicks": 12,
          "midi": 67,
          "name": "G4",
          "ticks": 1594,
          "time": 16.604166666666668,
          "velocity": 0.5669291338582677
        },
        {
          "duration": 0.25,
          "durationTicks": 24,
          "midi": 46,
          "name": "A#2",
          "ticks": 1606,
          "time": 16.729166666666668,
          "velocity": 0.5669291338582677
        },
        {
          "duration": 0.6875,
          "durationTicks": 66,
          "midi": 68,
          "name": "G#4",
          "ticks": 1607,
          "time": 16.739583333333332,
          "velocity": 0.6929133858267716
        },
        {
          "duration": 1.2708333333333357,
          "durationTicks": 122,
          "midi": 65,
          "name": "F4",
          "ticks": 1619,
          "time": 16.864583333333332,
          "velocity": 0.6299212598425197
        },
        {
          "duration": 0.375,
          "durationTicks": 36,
          "midi": 70,
          "name": "A#4",
          "ticks": 1630,
          "time": 16.979166666666668,
          "velocity": 0.6929133858267716
        },
        {
          "duration": 0.2395833333333357,
          "durationTicks": 23,
          "midi": 58,
          "name": "A#3",
          "ticks": 1643,
          "time": 17.114583333333332,
          "velocity": 0.4409448818897638
        },
        {
          "duration": 0.6458333333333357,
          "durationTicks": 62,
          "midi": 62,
          "name": "D4",
          "ticks": 1643,
          "time": 17.114583333333332,
          "velocity": 0.4409448818897638
        },
        {
          "duration": 0.6979166666666679,
          "durationTicks": 67,
          "midi": 68,
          "name": "G#4",
          "ticks": 1643,
          "time": 17.114583333333332,
          "velocity": 0.6929133858267716
        },
        {
          "duration": 0.22916666666666785,
          "durationTicks": 22,
          "midi": 53,
          "name": "F3",
          "ticks": 1644,
          "time": 17.125,
          "velocity": 0.4409448818897638
        },
        {
          "duration": 0.53125,
          "durationTicks": 51,
          "midi": 70,
          "name": "A#4",
          "ticks": 1654,
          "time": 17.229166666666668,
          "velocity": 0.6299212598425197
        },
        {
          "duration": 0.78125,
          "durationTicks": 75,
          "midi": 68,
          "name": "G#4",
          "ticks": 1666,
          "time": 17.354166666666668,
          "velocity": 0.6929133858267716
        },
        {
          "duration": 0.29166666666666785,
          "durationTicks": 28,
          "midi": 58,
          "name": "A#3",
          "ticks": 1677,
          "time": 17.46875,
          "velocity": 0.4409448818897638
        },
        {
          "duration": 0.28125,
          "durationTicks": 27,
          "midi": 53,
          "name": "F3",
          "ticks": 1678,
          "time": 17.479166666666668,
          "velocity": 0.5039370078740157
        },
        {
          "duration": 8.15625,
          "durationTicks": 783,
          "midi": 62,
          "name": "D4",
          "ticks": 1678,
          "time": 17.479166666666668,
          "velocity": 0.5039370078740157
        },
        {
          "duration": 0.28125,
          "durationTicks": 27,
          "midi": 67,
          "name": "G4",
          "ticks": 1678,
          "time": 17.479166666666668,
          "velocity": 0.7559055118110236
        },
        {
          "duration": 1.59375,
          "durationTicks": 153,
          "midi": 70,
          "name": "A#4",
          "ticks": 1690,
          "time": 17.604166666666668,
          "velocity": 0.6929133858267716
        },
        {
          "duration": 0.5625,
          "durationTicks": 54,
          "midi": 68,
          "name": "G#4",
          "ticks": 1701,
          "time": 17.71875,
          "velocity": 0.6929133858267716
        },
        {
          "duration": 0.28125,
          "durationTicks": 27,
          "midi": 46,
          "name": "A#2",
          "ticks": 1714,
          "time": 17.854166666666668,
          "velocity": 0.4409448818897638
        },
        {
          "duration": 0.28125,
          "durationTicks": 27,
          "midi": 67,
          "name": "G4",
          "ticks": 1714,
          "time": 17.854166666666668,
          "velocity": 0.6299212598425197
        },
        {
          "duration": 1.2604166666666679,
          "durationTicks": 121,
          "midi": 68,
          "name": "G#4",
          "ticks": 1722,
          "time": 17.9375,
          "velocity": 0.7559055118110236
        },
        {
          "duration": 0.46875,
          "durationTicks": 45,
          "midi": 65,
          "name": "F4",
          "ticks": 1735,
          "time": 18.072916666666668,
          "velocity": 0.7559055118110236
        },
        {
          "duration": 0.2604166666666643,
          "durationTicks": 25,
          "midi": 51,
          "name": "D#3",
          "ticks": 1747,
          "time": 18.197916666666668,
          "velocity": 0.5669291338582677
        },
        {
          "duration": 2.125,
          "durationTicks": 204,
          "midi": 68,
          "name": "G#4",
          "ticks": 1749,
          "time": 18.21875,
          "velocity": 0.7559055118110236
        },
        {
          "duration": 0.125,
          "durationTicks": 12,
          "midi": 67,
          "name": "G4",
          "ticks": 1760,
          "time": 18.333333333333332,
          "velocity": 0.6299212598425197
        },
        {
          "duration": 0.375,
          "durationTicks": 36,
          "midi": 65,
          "name": "F4",
          "ticks": 1772,
          "time": 18.458333333333332,
          "velocity": 0.5669291338582677
        },
        {
          "duration": 0.625,
          "durationTicks": 60,
          "midi": 63,
          "name": "D#4",
          "ticks": 1783,
          "time": 18.572916666666668,
          "velocity": 0.5669291338582677
        },
        {
          "duration": 0.25,
          "durationTicks": 24,
          "midi": 58,
          "name": "A#3",
          "ticks": 1784,
          "time": 18.583333333333332,
          "velocity": 0.5039370078740157
        },
        {
          "duration": 1.6875,
          "durationTicks": 162,
          "midi": 63,
          "name": "D#4",
          "ticks": 1784,
          "time": 18.583333333333332,
          "velocity": 0.6299212598425197
        },
        {
          "duration": 16.447916666666668,
          "durationTicks": 1579,
          "midi": 65,
          "name": "F4",
          "ticks": 1795,
          "time": 18.697916666666668,
          "velocity": 0.5669291338582677
        },
        {
          "duration": 0.0625,
          "durationTicks": 6,
          "midi": 67,
          "name": "G4",
          "ticks": 1808,
          "time": 18.833333333333332,
          "velocity": 0.6299212598425197
        },
        {
          "duration": 1.7291666666666679,
          "durationTicks": 166,
          "midi": 63,
          "name": "D#4",
          "ticks": 1817,
          "time": 18.927083333333332,
          "velocity": 0.5669291338582677
        },
        {
          "duration": 0.26041666666666785,
          "durationTicks": 25,
          "midi": 55,
          "name": "G3",
          "ticks": 1818,
          "time": 18.9375,
          "velocity": 0.5039370078740157
        },
        {
          "duration": 2.885416666666668,
          "durationTicks": 277,
          "midi": 68,
          "name": "G#4",
          "ticks": 1820,
          "time": 18.958333333333332,
          "velocity": 0.6299212598425197
        },
        {
          "duration": 0.8854166666666679,
          "durationTicks": 85,
          "midi": 70,
          "name": "A#4",
          "ticks": 1832,
          "time": 19.083333333333332,
          "velocity": 0.6299212598425197
        },
        {
          "duration": 0.4479166666666643,
          "durationTicks": 43,
          "midi": 72,
          "name": "C5",
          "ticks": 1843,
          "time": 19.197916666666668,
          "velocity": 0.6299212598425197
        },
        {
          "duration": 0.25,
          "durationTicks": 24,
          "midi": 51,
          "name": "D#3",
          "ticks": 1855,
          "time": 19.322916666666668,
          "velocity": 0.5039370078740157
        },
        {
          "duration": 0.2395833333333357,
          "durationTicks": 23,
          "midi": 75,
          "name": "D#5",
          "ticks": 1856,
          "time": 19.333333333333332,
          "velocity": 0.6929133858267716
        },
        {
          "duration": 0.10416666666666785,
          "durationTicks": 10,
          "midi": 73,
          "name": "C#5",
          "ticks": 1869,
          "time": 19.46875,
          "velocity": 0.6299212598425197
        },
        {
          "duration": 0.35416666666666785,
          "durationTicks": 34,
          "midi": 72,
          "name": "C5",
          "ticks": 1878,
          "time": 19.5625,
          "velocity": 0.6929133858267716
        },
        {
          "duration": 0.0520833333333357,
          "durationTicks": 5,
          "midi": 46,
          "name": "A#2",
          "ticks": 1889,
          "time": 19.677083333333332,
          "velocity": 0.5669291338582677
        },
        {
          "duration": 0.0416666666666643,
          "durationTicks": 4,
          "midi": 73,
          "name": "C#5",
          "ticks": 1891,
          "time": 19.697916666666668,
          "velocity": 0.6929133858267716
        },
        {
          "duration": 0.28125,
          "durationTicks": 27,
          "midi": 72,
          "name": "C5",
          "ticks": 1903,
          "time": 19.822916666666668,
          "velocity": 0.6299212598425197
        },
        {
          "duration": 0.3541666666666643,
          "durationTicks": 34,
          "midi": 70,
          "name": "A#4",
          "ticks": 1912,
          "time": 19.916666666666668,
          "velocity": 0.6299212598425197
        },
        {
          "duration": 0.6041666666666679,
          "durationTicks": 58,
          "midi": 72,
          "name": "C5",
          "ticks": 1925,
          "time": 20.052083333333332,
          "velocity": 0.6929133858267716
        },
        {
          "duration": 0.20833333333333215,
          "durationTicks": 20,
          "midi": 61,
          "name": "C#4",
          "ticks": 1926,
          "time": 20.0625,
          "velocity": 0.5669291338582677
        },
        {
          "duration": 1.71875,
          "durationTicks": 165,
          "midi": 63,
          "name": "D#4",
          "ticks": 1926,
          "time": 20.0625,
          "velocity": 0.5039370078740157
        },
        {
          "duration": 0.0625,
          "durationTicks": 6,
          "midi": 55,
          "name": "G3",
          "ticks": 1927,
          "time": 20.072916666666668,
          "velocity": 0.4409448818897638
        },
        {
          "duration": 0.5833333333333321,
          "durationTicks": 56,
          "midi": 70,
          "name": "A#4",
          "ticks": 1935,
          "time": 20.15625,
          "velocity": 0.5669291338582677
        },
        {
          "duration": 1.9479166666666679,
          "durationTicks": 187,
          "midi": 68,
          "name": "G#4",
          "ticks": 1946,
          "time": 20.270833333333332,
          "velocity": 0.6299212598425197
        },
        {
          "duration": 0.23958333333333215,
          "durationTicks": 23,
          "midi": 55,
          "name": "G3",
          "ticks": 1960,
          "time": 20.416666666666668,
          "velocity": 0.5669291338582677
        },
        {
          "duration": 0.22916666666666785,
          "durationTicks": 22,
          "midi": 61,
          "name": "C#4",
          "ticks": 1961,
          "time": 20.427083333333332,
          "velocity": 0.5039370078740157
        },
        {
          "duration": 1.7916666666666679,
          "durationTicks": 172,
          "midi": 63,
          "name": "D#4",
          "ticks": 1961,
          "time": 20.427083333333332,
          "velocity": 0.4409448818897638
        },
        {
          "duration": 0.22916666666666785,
          "durationTicks": 22,
          "midi": 73,
          "name": "C#5",
          "ticks": 1961,
          "time": 20.427083333333332,
          "velocity": 0.7559055118110236
        },
        {
          "duration": 0.5520833333333321,
          "durationTicks": 53,
          "midi": 72,
          "name": "C5",
          "ticks": 1972,
          "time": 20.541666666666668,
          "velocity": 0.6299212598425197
        },
        {
          "duration": 0.8333333333333321,
          "durationTicks": 80,
          "midi": 70,
          "name": "A#4",
          "ticks": 1983,
          "time": 20.65625,
          "velocity": 0.6929133858267716
        },
        {
          "duration": 0.04166666666666785,
          "durationTicks": 4,
          "midi": 51,
          "name": "D#3",
          "ticks": 1997,
          "time": 20.802083333333332,
          "velocity": 0.5039370078740157
        },
        {
          "duration": 0.04166666666666785,
          "durationTicks": 4,
          "midi": 75,
          "name": "D#5",
          "ticks": 1998,
          "time": 20.8125,
          "velocity": 0.7559055118110236
        },
        {
          "duration": 0.0729166666666643,
          "durationTicks": 7,
          "midi": 73,
          "name": "C#5",
          "ticks": 2011,
          "time": 20.947916666666668,
          "velocity": 0.5039370078740157
        },
        {
          "duration": 0.40625,
          "durationTicks": 39,
          "midi": 72,
          "name": "C5",
          "ticks": 2018,
          "time": 21.020833333333332,
          "velocity": 0.7559055118110236
        },
        {
          "duration": 0.27083333333333215,
          "durationTicks": 26,
          "midi": 44,
          "name": "G#2",
          "ticks": 2031,
          "time": 21.15625,
          "velocity": 0.4409448818897638
        },
        {
          "duration": 0.2604166666666643,
          "durationTicks": 25,
          "midi": 73,
          "name": "C#5",
          "ticks": 2032,
          "time": 21.166666666666668,
          "velocity": 0.6929133858267716
        },
        {
          "duration": 0.45833333333333215,
          "durationTicks": 44,
          "midi": 72,
          "name": "C5",
          "ticks": 2047,
          "time": 21.322916666666668,
          "velocity": 0.6299212598425197
        },
        {
          "duration": 0.375,
          "durationTicks": 36,
          "midi": 70,
          "name": "A#4",
          "ticks": 2055,
          "time": 21.40625,
          "velocity": 0.6299212598425197
        },
        {
          "duration": 2.1875,
          "durationTicks": 210,
          "midi": 60,
          "name": "C4",
          "ticks": 2068,
          "time": 21.541666666666668,
          "velocity": 0.5669291338582677
        },
        {
          "duration": 0.6666666666666679,
          "durationTicks": 64,
          "midi": 56,
          "name": "G#3",
          "ticks": 2069,
          "time": 21.552083333333332,
          "velocity": 0.5669291338582677
        },
        {
          "duration": 1.4270833333333357,
          "durationTicks": 137,
          "midi": 63,
          "name": "D#4",
          "ticks": 2069,
          "time": 21.552083333333332,
          "velocity": 0.5039370078740157
        },
        {
          "duration": 0.6666666666666679,
          "durationTicks": 64,
          "midi": 72,
          "name": "C5",
          "ticks": 2069,
          "time": 21.552083333333332,
          "velocity": 0.5669291338582677
        },
        {
          "duration": 0.5520833333333321,
          "durationTicks": 53,
          "midi": 70,
          "name": "A#4",
          "ticks": 2080,
          "time": 21.666666666666668,
          "velocity": 0.6299212598425197
        },
        {
          "duration": 0.75,
          "durationTicks": 72,
          "midi": 68,
          "name": "G#4",
          "ticks": 2091,
          "time": 21.78125,
          "velocity": 0.5669291338582677
        },
        {
          "duration": 1.8125,
          "durationTicks": 174,
          "midi": 72,
          "name": "C5",
          "ticks": 2104,
          "time": 21.916666666666668,
          "velocity": 0.6929133858267716
        },
        {
          "duration": 1.3958333333333321,
          "durationTicks": 134,
          "midi": 56,
          "name": "G#3",
          "ticks": 2106,
          "time": 21.9375,
          "velocity": 0.3779527559055118
        },
        {
          "duration": 1.3854166666666643,
          "durationTicks": 133,
          "midi": 63,
          "name": "D#4",
          "ticks": 2107,
          "time": 21.947916666666668,
          "velocity": 0.3779527559055118
        },
        {
          "duration": 0.33333333333333215,
          "durationTicks": 32,
          "midi": 70,
          "name": "A#4",
          "ticks": 2116,
          "time": 22.041666666666668,
          "velocity": 0.6299212598425197
        },
        {
          "duration": 0.5729166666666679,
          "durationTicks": 55,
          "midi": 68,
          "name": "G#4",
          "ticks": 2126,
          "time": 22.145833333333332,
          "velocity": 0.5669291338582677
        },
        {
          "duration": 0.05208333333333215,
          "durationTicks": 5,
          "midi": 51,
          "name": "D#3",
          "ticks": 2142,
          "time": 22.3125,
          "velocity": 0.5039370078740157
        },
        {
          "duration": 1.0208333333333321,
          "durationTicks": 98,
          "midi": 70,
          "name": "A#4",
          "ticks": 2142,
          "time": 22.3125,
          "velocity": 0.6299212598425197
        },
        {
          "duration": 0.5625,
          "durationTicks": 54,
          "midi": 68,
          "name": "G#4",
          "ticks": 2152,
          "time": 22.416666666666668,
          "velocity": 0.5669291338582677
        },
        {
          "duration": 0.0833333333333357,
          "durationTicks": 8,
          "midi": 67,
          "name": "G4",
          "ticks": 2165,
          "time": 22.552083333333332,
          "velocity": 0.5669291338582677
        },
        {
          "duration": 0.0625,
          "durationTicks": 6,
          "midi": 44,
          "name": "G#2",
          "ticks": 2174,
          "time": 22.645833333333332,
          "velocity": 0.5669291338582677
        },
        {
          "duration": 1.0520833333333357,
          "durationTicks": 101,
          "midi": 68,
          "name": "G#4",
          "ticks": 2177,
          "time": 22.677083333333332,
          "velocity": 0.7559055118110236
        },
        {
          "duration": 0.9166666666666679,
          "durationTicks": 88,
          "midi": 63,
          "name": "D#4",
          "ticks": 2190,
          "time": 22.8125,
          "velocity": 0.5039370078740157
        },
        {
          "duration": 1.9479166666666679,
          "durationTicks": 187,
          "midi": 68,
          "name": "G#4",
          "ticks": 2198,
          "time": 22.895833333333332,
          "velocity": 0.6299212598425197
        },
        {
          "duration": 1.7291666666666643,
          "durationTicks": 166,
          "midi": 60,
          "name": "C4",
          "ticks": 2212,
          "time": 23.041666666666668,
          "velocity": 0.5039370078740157
        },
        {
          "duration": 0.6770833333333357,
          "durationTicks": 65,
          "midi": 56,
          "name": "G#3",
          "ticks": 2213,
          "time": 23.052083333333332,
          "velocity": 0.4409448818897638
        },
        {
          "duration": 1.71875,
          "durationTicks": 165,
          "midi": 63,
          "name": "D#4",
          "ticks": 2213,
          "time": 23.052083333333332,
          "velocity": 0.4409448818897638
        },
        {
          "duration": 1.4166666666666679,
          "durationTicks": 136,
          "midi": 70,
          "name": "A#4",
          "ticks": 2213,
          "time": 23.052083333333332,
          "velocity": 0.7559055118110236
        },
        {
          "duration": 0.1666666666666643,
          "durationTicks": 16,
          "midi": 67,
          "name": "G4",
          "ticks": 2224,
          "time": 23.166666666666668,
          "velocity": 0.5039370078740157
        },
        {
          "duration": 1.5208333333333321,
          "durationTicks": 146,
          "midi": 70,
          "name": "A#4",
          "ticks": 2232,
          "time": 23.25,
          "velocity": 0.5669291338582677
        },
        {
          "duration": 1.3541666666666643,
          "durationTicks": 130,
          "midi": 56,
          "name": "G#3",
          "ticks": 2248,
          "time": 23.416666666666668,
          "velocity": 0.4409448818897638
        },
        {
          "duration": 9.333333333333332,
          "durationTicks": 896,
          "midi": 60,
          "name": "C4",
          "ticks": 2248,
          "time": 23.416666666666668,
          "velocity": 0.5039370078740157
        },
        {
          "duration": 0.6458333333333321,
          "durationTicks": 62,
          "midi": 72,
          "name": "C5",
          "ticks": 2248,
          "time": 23.416666666666668,
          "velocity": 0.7559055118110236
        },
        {
          "duration": 2.5625,
          "durationTicks": 246,
          "midi": 63,
          "name": "D#4",
          "ticks": 2249,
          "time": 23.427083333333332,
          "velocity": 0.3779527559055118
        },
        {
          "duration": 1.65625,
          "durationTicks": 159,
          "midi": 68,
          "name": "G#4",
          "ticks": 2262,
          "time": 23.5625,
          "velocity": 0.5669291338582677
        },
        {
          "duration": 0.8229166666666679,
          "durationTicks": 79,
          "midi": 72,
          "name": "C5",
          "ticks": 2270,
          "time": 23.645833333333332,
          "velocity": 0.6299212598425197
        },
        {
          "duration": 0.29166666666666785,
          "durationTicks": 28,
          "midi": 51,
          "name": "D#3",
          "ticks": 2282,
          "time": 23.770833333333332,
          "velocity": 0.5039370078740157
        },
        {
          "duration": 0.28125,
          "durationTicks": 27,
          "midi": 75,
          "name": "D#5",
          "ticks": 2283,
          "time": 23.78125,
          "velocity": 0.6929133858267716
        },
        {
          "duration": 0.15625,
          "durationTicks": 15,
          "midi": 73,
          "name": "C#5",
          "ticks": 2295,
          "time": 23.90625,
          "velocity": 0.6299212598425197
        },
        {
          "duration": 0.75,
          "durationTicks": 72,
          "midi": 72,
          "name": "C5",
          "ticks": 2306,
          "time": 24.020833333333332,
          "velocity": 0.6299212598425197
        },
        {
          "duration": 0.0625,
          "durationTicks": 6,
          "midi": 73,
          "name": "C#5",
          "ticks": 2318,
          "time": 24.145833333333332,
          "velocity": 0.6299212598425197
        },
        {
          "duration": 0.30208333333333215,
          "durationTicks": 29,
          "midi": 44,
          "name": "G#2",
          "ticks": 2320,
          "time": 24.166666666666668,
          "velocity": 0.5669291338582677
        },
        {
          "duration": 0.9270833333333321,
          "durationTicks": 89,
          "midi": 72,
          "name": "C5",
          "ticks": 2332,
          "time": 24.291666666666668,
          "velocity": 0.5669291338582677
        },
        {
          "duration": 0.8333333333333321,
          "durationTicks": 80,
          "midi": 70,
          "name": "A#4",
          "ticks": 2341,
          "time": 24.385416666666668,
          "velocity": 0.6299212598425197
        },
        {
          "duration": 10.614583333333336,
          "durationTicks": 1019,
          "midi": 60,
          "name": "C4",
          "ticks": 2355,
          "time": 24.53125,
          "velocity": 0.5039370078740157
        },
        {
          "duration": 7.135416666666668,
          "durationTicks": 685,
          "midi": 72,
          "name": "C5",
          "ticks": 2355,
          "time": 24.53125,
          "velocity": 0.5669291338582677
        },
        {
          "duration": 10.354166666666668,
          "durationTicks": 994,
          "midi": 56,
          "name": "G#3",
          "ticks": 2356,
          "time": 24.541666666666668,
          "velocity": 0.4409448818897638
        },
        {
          "duration": 3.375,
          "durationTicks": 324,
          "midi": 63,
          "name": "D#4",
          "ticks": 2356,
          "time": 24.541666666666668,
          "velocity": 0.3779527559055118
        },
        {
          "duration": 1,
          "durationTicks": 96,
          "midi": 70,
          "name": "A#4",
          "ticks": 2365,
          "time": 24.635416666666668,
          "velocity": 0.6299212598425197
        },
        {
          "duration": 0.8645833333333357,
          "durationTicks": 83,
          "midi": 68,
          "name": "G#4",
          "ticks": 2378,
          "time": 24.770833333333332,
          "velocity": 0.5669291338582677
        },
        {
          "duration": 0.3125,
          "durationTicks": 30,
          "midi": 51,
          "name": "D#3",
          "ticks": 2391,
          "time": 24.90625,
          "velocity": 0.5669291338582677
        },
        {
          "duration": 7.895833333333336,
          "durationTicks": 758,
          "midi": 72,
          "name": "C5",
          "ticks": 2391,
          "time": 24.90625,
          "velocity": 0.5669291338582677
        },
        {
          "duration": 1.34375,
          "durationTicks": 129,
          "midi": 70,
          "name": "A#4",
          "ticks": 2402,
          "time": 25.020833333333332,
          "velocity": 0.5669291338582677
        },
        {
          "duration": 6.385416666666668,
          "durationTicks": 613,
          "midi": 68,
          "name": "G#4",
          "ticks": 2415,
          "time": 25.15625,
          "velocity": 0.6299212598425197
        },
        {
          "duration": 0.0520833333333357,
          "durationTicks": 5,
          "midi": 44,
          "name": "G#2",
          "ticks": 2429,
          "time": 25.302083333333332,
          "velocity": 0.4409448818897638
        },
        {
          "duration": 1.4375,
          "durationTicks": 138,
          "midi": 70,
          "name": "A#4",
          "ticks": 2429,
          "time": 25.302083333333332,
          "velocity": 0.6929133858267716
        },
        {
          "duration": 6.572916666666664,
          "durationTicks": 631,
          "midi": 68,
          "name": "G#4",
          "ticks": 2440,
          "time": 25.416666666666668,
          "velocity": 0.5669291338582677
        },
        {
          "duration": 102.63541666666667,
          "durationTicks": 9853,
          "midi": 62,
          "name": "D4",
          "ticks": 2453,
          "time": 25.552083333333332,
          "velocity": 0.5669291338582677
        },
        {
          "duration": 0.33333333333333215,
          "durationTicks": 32,
          "midi": 39,
          "name": "D#2",
          "ticks": 2463,
          "time": 25.65625,
          "velocity": 0.5039370078740157
        },
        {
          "duration": 7.041666666666668,
          "durationTicks": 676,
          "midi": 63,
          "name": "D#4",
          "ticks": 2468,
          "time": 25.708333333333332,
          "velocity": 0.6929133858267716
        },
        {
          "duration": 0.27083333333333215,
          "durationTicks": 26,
          "midi": 51,
          "name": "D#3",
          "ticks": 2469,
          "time": 25.71875,
          "velocity": 0.5669291338582677
        },
        {
          "duration": 0.125,
          "durationTicks": 12,
          "midi": 67,
          "name": "G4",
          "ticks": 2483,
          "time": 25.864583333333332,
          "velocity": 0.5669291338582677
        },
        {
          "duration": 0.10416666666666785,
          "durationTicks": 10,
          "midi": 75,
          "name": "D#5",
          "ticks": 2495,
          "time": 25.989583333333332,
          "velocity": 0.5039370078740157
        },
        {
          "duration": 0.28125,
          "durationTicks": 27,
          "midi": 58,
          "name": "A#3",
          "ticks": 2504,
          "time": 26.083333333333332,
          "velocity": 0.5039370078740157
        },
        {
          "duration": 5.885416666666664,
          "durationTicks": 565,
          "midi": 70,
          "name": "A#4",
          "ticks": 2506,
          "time": 26.104166666666668,
          "velocity": 0.5669291338582677
        },
        {
          "duration": 0.1354166666666643,
          "durationTicks": 13,
          "midi": 67,
          "name": "G4",
          "ticks": 2518,
          "time": 26.229166666666668,
          "velocity": 0.6299212598425197
        },
        {
          "duration": 0.09375,
          "durationTicks": 9,
          "midi": 79,
          "name": "G5",
          "ticks": 2531,
          "time": 26.364583333333332,
          "velocity": 0.5039370078740157
        },
        {
          "duration": 0.25,
          "durationTicks": 24,
          "midi": 55,
          "name": "G3",
          "ticks": 2543,
          "time": 26.489583333333332,
          "velocity": 0.5039370078740157
        },
        {
          "duration": 0.25,
          "durationTicks": 24,
          "midi": 75,
          "name": "D#5",
          "ticks": 2543,
          "time": 26.489583333333332,
          "velocity": 0.6299212598425197
        },
        {
          "duration": 6.145833333333332,
          "durationTicks": 590,
          "midi": 70,
          "name": "A#4",
          "ticks": 2554,
          "time": 26.604166666666668,
          "velocity": 0.6929133858267716
        },
        {
          "duration": 0.1458333333333357,
          "durationTicks": 14,
          "midi": 82,
          "name": "A#5",
          "ticks": 2567,
          "time": 26.739583333333332,
          "velocity": 0.6929133858267716
        },
        {
          "duration": 0.3229166666666643,
          "durationTicks": 31,
          "midi": 51,
          "name": "D#3",
          "ticks": 2578,
          "time": 26.854166666666668,
          "velocity": 0.5039370078740157
        },
        {
          "duration": 0.3125,
          "durationTicks": 30,
          "midi": 79,
          "name": "G5",
          "ticks": 2579,
          "time": 26.864583333333332,
          "velocity": 0.6929133858267716
        },
        {
          "duration": 0.1875,
          "durationTicks": 18,
          "midi": 75,
          "name": "D#5",
          "ticks": 2591,
          "time": 26.989583333333332,
          "velocity": 0.6929133858267716
        },
        {
          "duration": 0.0625,
          "durationTicks": 6,
          "midi": 87,
          "name": "D#6",
          "ticks": 2603,
          "time": 27.114583333333332,
          "velocity": 0.6299212598425197
        },
        {
          "duration": 0.0520833333333357,
          "durationTicks": 5,
          "midi": 39,
          "name": "D#2",
          "ticks": 2615,
          "time": 27.239583333333332,
          "velocity": 0.5669291338582677
        },
        {
          "duration": 0.32291666666666785,
          "durationTicks": 31,
          "midi": 51,
          "name": "D#3",
          "ticks": 2615,
          "time": 27.239583333333332,
          "velocity": 0.5669291338582677
        },
        {
          "duration": 0.30208333333333215,
          "durationTicks": 29,
          "midi": 85,
          "name": "C#6",
          "ticks": 2617,
          "time": 27.260416666666668,
          "velocity": 0.7559055118110236
        },
        {
          "duration": 0.19791666666666785,
          "durationTicks": 19,
          "midi": 82,
          "name": "A#5",
          "ticks": 2627,
          "time": 27.364583333333332,
          "velocity": 0.6929133858267716
        },
        {
          "duration": 0.08333333333333215,
          "durationTicks": 8,
          "midi": 87,
          "name": "D#6",
          "ticks": 2638,
          "time": 27.479166666666668,
          "velocity": 0.6299212598425197
        },
        {
          "duration": 6.802083333333332,
          "durationTicks": 653,
          "midi": 63,
          "name": "D#4",
          "ticks": 2650,
          "time": 27.604166666666668,
          "velocity": 0.5669291338582677
        },
        {
          "duration": 0.3020833333333357,
          "durationTicks": 29,
          "midi": 51,
          "name": "D#3",
          "ticks": 2651,
          "time": 27.614583333333332,
          "velocity": 0.5669291338582677
        },
        {
          "duration": 0.29166666666666785,
          "durationTicks": 28,
          "midi": 84,
          "name": "C6",
          "ticks": 2652,
          "time": 27.625,
          "velocity": 0.6929133858267716
        },
        {
          "duration": 0.1875,
          "durationTicks": 18,
          "midi": 80,
          "name": "G#5",
          "ticks": 2662,
          "time": 27.729166666666668,
          "velocity": 0.5669291338582677
        },
        {
          "duration": 0.0625,
          "durationTicks": 6,
          "midi": 87,
          "name": "D#6",
          "ticks": 2674,
          "time": 27.854166666666668,
          "velocity": 0.6299212598425197
        },
        {
          "duration": 0.3125,
          "durationTicks": 30,
          "midi": 51,
          "name": "D#3",
          "ticks": 2685,
          "time": 27.96875,
          "velocity": 0.5669291338582677
        },
        {
          "duration": 0.29166666666666785,
          "durationTicks": 28,
          "midi": 82,
          "name": "A#5",
          "ticks": 2687,
          "time": 27.989583333333332,
          "velocity": 0.6929133858267716
        },
        {
          "duration": 0.19791666666666785,
          "durationTicks": 19,
          "midi": 79,
          "name": "G5",
          "ticks": 2696,
          "time": 28.083333333333332,
          "velocity": 0.7559055118110236
        },
        {
          "duration": 0.07291666666666785,
          "durationTicks": 7,
          "midi": 87,
          "name": "D#6",
          "ticks": 2708,
          "time": 28.208333333333332,
          "velocity": 0.7559055118110236
        },
        {
          "duration": 0.9583333333333321,
          "durationTicks": 92,
          "midi": 51,
          "name": "D#3",
          "ticks": 2721,
          "time": 28.34375,
          "velocity": 0.6299212598425197
        },
        {
          "duration": 0.34375,
          "durationTicks": 33,
          "midi": 80,
          "name": "G#5",
          "ticks": 2721,
          "time": 28.34375,
          "velocity": 0.7559055118110236
        },
        {
          "duration": 0.22916666666666785,
          "durationTicks": 22,
          "midi": 77,
          "name": "F5",
          "ticks": 2732,
          "time": 28.458333333333332,
          "velocity": 0.6929133858267716
        },
        {
          "duration": 0.11458333333333215,
          "durationTicks": 11,
          "midi": 89,
          "name": "F6",
          "ticks": 2743,
          "time": 28.572916666666668,
          "velocity": 0.7559055118110236
        },
        {
          "duration": 1.0416666666666679,
          "durationTicks": 100,
          "midi": 51,
          "name": "D#3",
          "ticks": 2754,
          "time": 28.6875,
          "velocity": 0.6299212598425197
        },
        {
          "duration": 0.04166666666666785,
          "durationTicks": 4,
          "midi": 39,
          "name": "D#2",
          "ticks": 2756,
          "time": 28.708333333333332,
          "velocity": 0.6299212598425197
        },
        {
          "duration": 0.35416666666666785,
          "durationTicks": 34,
          "midi": 85,
          "name": "C#6",
          "ticks": 2756,
          "time": 28.708333333333332,
          "velocity": 0.7559055118110236
        },
        {
          "duration": 0.22916666666666785,
          "durationTicks": 22,
          "midi": 82,
          "name": "A#5",
          "ticks": 2768,
          "time": 28.833333333333332,
          "velocity": 0.7559055118110236
        },
        {
          "duration": 0.125,
          "durationTicks": 12,
          "midi": 87,
          "name": "D#6",
          "ticks": 2778,
          "time": 28.9375,
          "velocity": 0.6929133858267716
        },
        {
          "duration": 1.0104166666666679,
          "durationTicks": 97,
          "midi": 51,
          "name": "D#3",
          "ticks": 2790,
          "time": 29.0625,
          "velocity": 0.6299212598425197
        },
        {
          "duration": 0.2291666666666643,
          "durationTicks": 22,
          "midi": 39,
          "name": "D#2",
          "ticks": 2791,
          "time": 29.072916666666668,
          "velocity": 0.5669291338582677
        },
        {
          "duration": 0.2291666666666643,
          "durationTicks": 22,
          "midi": 84,
          "name": "C6",
          "ticks": 2791,
          "time": 29.072916666666668,
          "velocity": 0.6929133858267716
        },
        {
          "duration": 0.1354166666666643,
          "durationTicks": 13,
          "midi": 80,
          "name": "G#5",
          "ticks": 2800,
          "time": 29.166666666666668,
          "velocity": 0.6929133858267716
        },
        {
          "duration": 0.09375,
          "durationTicks": 9,
          "midi": 87,
          "name": "D#6",
          "ticks": 2813,
          "time": 29.302083333333332,
          "velocity": 0.6299212598425197
        },
        {
          "duration": 1.0416666666666679,
          "durationTicks": 100,
          "midi": 51,
          "name": "D#3",
          "ticks": 2825,
          "time": 29.427083333333332,
          "velocity": 0.6299212598425197
        },
        {
          "duration": 0.29166666666666785,
          "durationTicks": 28,
          "midi": 39,
          "name": "D#2",
          "ticks": 2826,
          "time": 29.4375,
          "velocity": 0.6299212598425197
        },
        {
          "duration": 0.29166666666666785,
          "durationTicks": 28,
          "midi": 82,
          "name": "A#5",
          "ticks": 2826,
          "time": 29.4375,
          "velocity": 0.6929133858267716
        },
        {
          "duration": 0.1770833333333357,
          "durationTicks": 17,
          "midi": 79,
          "name": "G5",
          "ticks": 2837,
          "time": 29.552083333333332,
          "velocity": 0.6929133858267716
        },
        {
          "duration": 0.0625,
          "durationTicks": 6,
          "midi": 87,
          "name": "D#6",
          "ticks": 2848,
          "time": 29.666666666666668,
          "velocity": 0.6299212598425197
        },
        {
          "duration": 0.96875,
          "durationTicks": 93,
          "midi": 51,
          "name": "D#3",
          "ticks": 2861,
          "time": 29.802083333333332,
          "velocity": 0.6929133858267716
        },
        {
          "duration": 0.2708333333333357,
          "durationTicks": 26,
          "midi": 80,
          "name": "G#5",
          "ticks": 2861,
          "time": 29.802083333333332,
          "velocity": 0.7559055118110236
        },
        {
          "duration": 0.16666666666666785,
          "durationTicks": 16,
          "midi": 77,
          "name": "F5",
          "ticks": 2871,
          "time": 29.90625,
          "velocity": 0.6929133858267716
        },
        {
          "duration": 0.0520833333333357,
          "durationTicks": 5,
          "midi": 89,
          "name": "F6",
          "ticks": 2882,
          "time": 30.020833333333332,
          "velocity": 0.7559055118110236
        },
        {
          "duration": 0.30208333333333215,
          "durationTicks": 29,
          "midi": 39,
          "name": "D#2",
          "ticks": 2896,
          "time": 30.166666666666668,
          "velocity": 0.6299212598425197
        },
        {
          "duration": 0.9895833333333321,
          "durationTicks": 95,
          "midi": 51,
          "name": "D#3",
          "ticks": 2896,
          "time": 30.166666666666668,
          "velocity": 0.7559055118110236
        },
        {
          "duration": 0.30208333333333215,
          "durationTicks": 29,
          "midi": 87,
          "name": "D#6",
          "ticks": 2896,
          "time": 30.166666666666668,
          "velocity": 0.7559055118110236
        },
        {
          "duration": 0.1875,
          "durationTicks": 18,
          "midi": 82,
          "name": "A#5",
          "ticks": 2907,
          "time": 30.28125,
          "velocity": 0.7559055118110236
        },
        {
          "duration": 0.10416666666666785,
          "durationTicks": 10,
          "midi": 85,
          "name": "C#6",
          "ticks": 2919,
          "time": 30.40625,
          "velocity": 0.6299212598425197
        },
        {
          "duration": 1.0208333333333357,
          "durationTicks": 98,
          "midi": 51,
          "name": "D#3",
          "ticks": 2930,
          "time": 30.520833333333332,
          "velocity": 0.6929133858267716
        },
        {
          "duration": 0.3958333333333357,
          "durationTicks": 38,
          "midi": 80,
          "name": "G#5",
          "ticks": 2930,
          "time": 30.520833333333332,
          "velocity": 0.7559055118110236
        },
        {
          "duration": 0.23958333333333215,
          "durationTicks": 23,
          "midi": 39,
          "name": "D#2",
          "ticks": 2931,
          "time": 30.53125,
          "velocity": 0.6299212598425197
        },
        {
          "duration": 0.1354166666666643,
          "durationTicks": 13,
          "midi": 77,
          "name": "F5",
          "ticks": 2941,
          "time": 30.635416666666668,
          "velocity": 0.6929133858267716
        },
        {
          "duration": 9.593750000000004,
          "durationTicks": 921,
          "midi": 80,
          "name": "G#5",
          "ticks": 2954,
          "time": 30.770833333333332,
          "velocity": 0.6929133858267716
        },
        {
          "duration": 1.09375,
          "durationTicks": 105,
          "midi": 51,
          "name": "D#3",
          "ticks": 2966,
          "time": 30.895833333333332,
          "velocity": 0.6929133858267716
        },
        {
          "duration": 0.25,
          "durationTicks": 24,
          "midi": 39,
          "name": "D#2",
          "ticks": 2967,
          "time": 30.90625,
          "velocity": 0.6299212598425197
        },
        {
          "duration": 0.39583333333333215,
          "durationTicks": 38,
          "midi": 75,
          "name": "D#5",
          "ticks": 2968,
          "time": 30.916666666666668,
          "velocity": 0.6929133858267716
        },
        {
          "duration": 0.11458333333333215,
          "durationTicks": 11,
          "midi": 73,
          "name": "C#5",
          "ticks": 2980,
          "time": 31.041666666666668,
          "velocity": 0.6929133858267716
        },
        {
          "duration": 1.9791666666666643,
          "durationTicks": 190,
          "midi": 75,
          "name": "D#5",
          "ticks": 2991,
          "time": 31.15625,
          "velocity": 0.6929133858267716
        },
        {
          "duration": 1.4583333333333321,
          "durationTicks": 140,
          "midi": 51,
          "name": "D#3",
          "ticks": 3004,
          "time": 31.291666666666668,
          "velocity": 0.6299212598425197
        },
        {
          "duration": 0.2395833333333357,
          "durationTicks": 23,
          "midi": 39,
          "name": "D#2",
          "ticks": 3005,
          "time": 31.302083333333332,
          "velocity": 0.6299212598425197
        },
        {
          "duration": 1.8958333333333321,
          "durationTicks": 182,
          "midi": 72,
          "name": "C5",
          "ticks": 3005,
          "time": 31.302083333333332,
          "velocity": 0.6929133858267716
        },
        {
          "duration": 1.34375,
          "durationTicks": 129,
          "midi": 68,
          "name": "G#4",
          "ticks": 3015,
          "time": 31.40625,
          "velocity": 0.7559055118110236
        },
        {
          "duration": 1.9583333333333321,
          "durationTicks": 188,
          "midi": 72,
          "name": "C5",
          "ticks": 3028,
          "time": 31.541666666666668,
          "velocity": 0.7559055118110236
        },
        {
          "duration": 1.4687499999999964,
          "durationTicks": 141,
          "midi": 51,
          "name": "D#3",
          "ticks": 3040,
          "time": 31.666666666666668,
          "velocity": 0.7559055118110236
        },
        {
          "duration": 0.3125,
          "durationTicks": 30,
          "midi": 39,
          "name": "D#2",
          "ticks": 3041,
          "time": 31.677083333333332,
          "velocity": 0.6299212598425197
        },
        {
          "duration": 1.9375000000000036,
          "durationTicks": 186,
          "midi": 70,
          "name": "A#4",
          "ticks": 3041,
          "time": 31.677083333333332,
          "velocity": 0.7559055118110236
        },
        {
          "duration": 0.1875,
          "durationTicks": 18,
          "midi": 67,
          "name": "G4",
          "ticks": 3053,
          "time": 31.802083333333332,
          "velocity": 0.7559055118110236
        },
        {
          "duration": 2.489583333333332,
          "durationTicks": 239,
          "midi": 68,
          "name": "G#4",
          "ticks": 3064,
          "time": 31.916666666666668,
          "velocity": 0.6929133858267716
        },
        {
          "duration": 2.78125,
          "durationTicks": 267,
          "midi": 70,
          "name": "A#4",
          "ticks": 3076,
          "time": 32.041666666666664,
          "velocity": 0.8188976377952756
        },
        {
          "duration": 1.4479166666666643,
          "durationTicks": 139,
          "midi": 51,
          "name": "D#3",
          "ticks": 3077,
          "time": 32.052083333333336,
          "velocity": 0.6929133858267716
        },
        {
          "duration": 0.6979166666666643,
          "durationTicks": 67,
          "midi": 61,
          "name": "C#4",
          "ticks": 3077,
          "time": 32.052083333333336,
          "velocity": 0.7559055118110236
        },
        {
          "duration": 3.25,
          "durationTicks": 312,
          "midi": 63,
          "name": "D#4",
          "ticks": 3078,
          "time": 32.0625,
          "velocity": 0.6929133858267716
        },
        {
          "duration": 0.5833333333333357,
          "durationTicks": 56,
          "midi": 67,
          "name": "G4",
          "ticks": 3088,
          "time": 32.166666666666664,
          "velocity": 0.6299212598425197
        },
        {
          "duration": 6.010416666666671,
          "durationTicks": 577,
          "midi": 70,
          "name": "A#4",
          "ticks": 3100,
          "time": 32.291666666666664,
          "velocity": 0.6299212598425197
        },
        {
          "duration": 1.96875,
          "durationTicks": 189,
          "midi": 72,
          "name": "C5",
          "ticks": 3114,
          "time": 32.4375,
          "velocity": 0.7559055118110236
        },
        {
          "duration": 3.0833333333333286,
          "durationTicks": 296,
          "midi": 60,
          "name": "C4",
          "ticks": 3116,
          "time": 32.458333333333336,
          "velocity": 0.6299212598425197
        },
        {
          "duration": 2.6875,
          "durationTicks": 258,
          "midi": 68,
          "name": "G#4",
          "ticks": 3116,
          "time": 32.458333333333336,
          "velocity": 0.6299212598425197
        },
        {
          "duration": 3.2604166666666643,
          "durationTicks": 313,
          "midi": 68,
          "name": "G#4",
          "ticks": 3129,
          "time": 32.59375,
          "velocity": 0.6929133858267716
        },
        {
          "duration": 5.729166666666664,
          "durationTicks": 550,
          "midi": 72,
          "name": "C5",
          "ticks": 3141,
          "time": 32.71875,
          "velocity": 0.6929133858267716
        },
        {
          "duration": 1.96875,
          "durationTicks": 189,
          "midi": 51,
          "name": "D#3",
          "ticks": 3152,
          "time": 32.833333333333336,
          "velocity": 0.6299212598425197
        },
        {
          "duration": 0.052083333333328596,
          "durationTicks": 5,
          "midi": 58,
          "name": "A#3",
          "ticks": 3152,
          "time": 32.833333333333336,
          "velocity": 0.6299212598425197
        },
        {
          "duration": 0.3020833333333286,
          "durationTicks": 29,
          "midi": 67,
          "name": "G4",
          "ticks": 3152,
          "time": 32.833333333333336,
          "velocity": 0.6929133858267716
        },
        {
          "duration": 5.96875,
          "durationTicks": 573,
          "midi": 75,
          "name": "D#5",
          "ticks": 3152,
          "time": 32.833333333333336,
          "velocity": 0.7559055118110236
        },
        {
          "duration": 0.1458333333333286,
          "durationTicks": 14,
          "midi": 73,
          "name": "C#5",
          "ticks": 3167,
          "time": 32.989583333333336,
          "velocity": 0.7559055118110236
        },
        {
          "duration": 5.760416666666671,
          "durationTicks": 553,
          "midi": 72,
          "name": "C5",
          "ticks": 3178,
          "time": 33.104166666666664,
          "velocity": 0.6929133858267716
        },
        {
          "duration": 0.03125,
          "durationTicks": 3,
          "midi": 39,
          "name": "D#2",
          "ticks": 3191,
          "time": 33.239583333333336,
          "velocity": 0.6299212598425197
        },
        {
          "duration": 2.0729166666666643,
          "durationTicks": 199,
          "midi": 51,
          "name": "D#3",
          "ticks": 3191,
          "time": 33.239583333333336,
          "velocity": 0.7559055118110236
        },
        {
          "duration": 0.2604166666666643,
          "durationTicks": 25,
          "midi": 73,
          "name": "C#5",
          "ticks": 3191,
          "time": 33.239583333333336,
          "velocity": 0.7559055118110236
        },
        {
          "duration": 5.8125,
          "durationTicks": 558,
          "midi": 72,
          "name": "C5",
          "ticks": 3204,
          "time": 33.375,
          "velocity": 0.6929133858267716
        },
        {
          "duration": 5.072916666666664,
          "durationTicks": 487,
          "midi": 70,
          "name": "A#4",
          "ticks": 3215,
          "time": 33.489583333333336,
          "velocity": 0.6929133858267716
        },
        {
          "duration": 2.3229166666666643,
          "durationTicks": 223,
          "midi": 63,
          "name": "D#4",
          "ticks": 3228,
          "time": 33.625,
          "velocity": 0.6929133858267716
        },
        {
          "duration": 6.052083333333336,
          "durationTicks": 581,
          "midi": 72,
          "name": "C5",
          "ticks": 3228,
          "time": 33.625,
          "velocity": 0.5669291338582677
        },
        {
          "duration": 3.75,
          "durationTicks": 360,
          "midi": 51,
          "name": "D#3",
          "ticks": 3229,
          "time": 33.635416666666664,
          "velocity": 0.5039370078740157
        },
        {
          "duration": 1.1666666666666714,
          "durationTicks": 112,
          "midi": 61,
          "name": "C#4",
          "ticks": 3229,
          "time": 33.635416666666664,
          "velocity": 0.6929133858267716
        },
        {
          "duration": 5.5625,
          "durationTicks": 534,
          "midi": 70,
          "name": "A#4",
          "ticks": 3239,
          "time": 33.739583333333336,
          "velocity": 0.6299212598425197
        },
        {
          "duration": 2.7395833333333286,
          "durationTicks": 263,
          "midi": 68,
          "name": "G#4",
          "ticks": 3251,
          "time": 33.864583333333336,
          "velocity": 0.6299212598425197
        },
        {
          "duration": 7.25,
          "durationTicks": 696,
          "midi": 72,
          "name": "C5",
          "ticks": 3265,
          "time": 34.010416666666664,
          "velocity": 0.7559055118110236
        },
        {
          "duration": 1.4270833333333357,
          "durationTicks": 137,
          "midi": 61,
          "name": "C#4",
          "ticks": 3267,
          "time": 34.03125,
          "velocity": 0.6299212598425197
        },
        {
          "duration": 2.1875,
          "durationTicks": 210,
          "midi": 63,
          "name": "D#4",
          "ticks": 3267,
          "time": 34.03125,
          "velocity": 0.5669291338582677
        },
        {
          "duration": 5.46875,
          "durationTicks": 525,
          "midi": 70,
          "name": "A#4",
          "ticks": 3276,
          "time": 34.125,
          "velocity": 0.6929133858267716
        },
        {
          "duration": 2.8125,
          "durationTicks": 270,
          "midi": 68,
          "name": "G#4",
          "ticks": 3287,
          "time": 34.239583333333336,
          "velocity": 0.6299212598425197
        },
        {
          "duration": 1.46875,
          "durationTicks": 141,
          "midi": 61,
          "name": "C#4",
          "ticks": 3301,
          "time": 34.385416666666664,
          "velocity": 0.6929133858267716
        },
        {
          "duration": 9.333333333333329,
          "durationTicks": 896,
          "midi": 51,
          "name": "D#3",
          "ticks": 3302,
          "time": 34.395833333333336,
          "velocity": 0.6299212598425197
        },
        {
          "duration": 8.854166666666664,
          "durationTicks": 850,
          "midi": 70,
          "name": "A#4",
          "ticks": 3303,
          "time": 34.40625,
          "velocity": 0.6929133858267716
        },
        {
          "duration": 0.28125,
          "durationTicks": 27,
          "midi": 67,
          "name": "G4",
          "ticks": 3314,
          "time": 34.520833333333336,
          "velocity": 0.5669291338582677
        },
        {
          "duration": 9.104166666666664,
          "durationTicks": 874,
          "midi": 70,
          "name": "A#4",
          "ticks": 3324,
          "time": 34.625,
          "velocity": 0.6929133858267716
        },
        {
          "duration": 3.3229166666666714,
          "durationTicks": 319,
          "midi": 68,
          "name": "G#4",
          "ticks": 3340,
          "time": 34.791666666666664,
          "velocity": 0.6929133858267716
        },
        {
          "duration": 0.34375,
          "durationTicks": 33,
          "midi": 44,
          "name": "G#2",
          "ticks": 3341,
          "time": 34.802083333333336,
          "velocity": 0.6929133858267716
        },
        {
          "duration": 3.1354166666666643,
          "durationTicks": 301,
          "midi": 56,
          "name": "G#3",
          "ticks": 3341,
          "time": 34.802083333333336,
          "velocity": 0.7559055118110236
        },
        {
          "duration": 2.4375,
          "durationTicks": 234,
          "midi": 60,
          "name": "C4",
          "ticks": 3341,
          "time": 34.802083333333336,
          "velocity": 0.5669291338582677
        },
        {
          "duration": 0.21875,
          "durationTicks": 21,
          "midi": 67,
          "name": "G4",
          "ticks": 3353,
          "time": 34.927083333333336,
          "velocity": 0.6299212598425197
        },
        {
          "duration": 0.8020833333333286,
          "durationTicks": 77,
          "midi": 65,
          "name": "F4",
          "ticks": 3365,
          "time": 35.052083333333336,
          "velocity": 0.5669291338582677
        },
        {
          "duration": 1.5104166666666643,
          "durationTicks": 145,
          "midi": 63,
          "name": "D#4",
          "ticks": 3378,
          "time": 35.1875,
          "velocity": 0.7559055118110236
        },
        {
          "duration": 9.010416666666671,
          "durationTicks": 865,
          "midi": 51,
          "name": "D#3",
          "ticks": 3379,
          "time": 35.197916666666664,
          "velocity": 0.6299212598425197
        },
        {
          "duration": 0.1041666666666643,
          "durationTicks": 10,
          "midi": 49,
          "name": "C#3",
          "ticks": 3390,
          "time": 35.3125,
          "velocity": 0.6929133858267716
        },
        {
          "duration": 0.9895833333333357,
          "durationTicks": 95,
          "midi": 61,
          "name": "C#4",
          "ticks": 3390,
          "time": 35.3125,
          "velocity": 0.6929133858267716
        },
        {
          "duration": 0.0833333333333357,
          "durationTicks": 8,
          "midi": 48,
          "name": "C3",
          "ticks": 3403,
          "time": 35.447916666666664,
          "velocity": 0.6299212598425197
        },
        {
          "duration": 2.8020833333333357,
          "durationTicks": 269,
          "midi": 60,
          "name": "C4",
          "ticks": 3403,
          "time": 35.447916666666664,
          "velocity": 0.7559055118110236
        },
        {
          "duration": 0.25,
          "durationTicks": 24,
          "midi": 49,
          "name": "C#3",
          "ticks": 3418,
          "time": 35.604166666666664,
          "velocity": 0.6299212598425197
        },
        {
          "duration": 1.4479166666666714,
          "durationTicks": 139,
          "midi": 61,
          "name": "C#4",
          "ticks": 3418,
          "time": 35.604166666666664,
          "velocity": 0.5669291338582677
        },
        {
          "duration": 2.90625,
          "durationTicks": 279,
          "midi": 68,
          "name": "G#4",
          "ticks": 3429,
          "time": 35.71875,
          "velocity": 0.6929133858267716
        },
        {
          "duration": 0.2916666666666714,
          "durationTicks": 28,
          "midi": 65,
          "name": "F4",
          "ticks": 3430,
          "time": 35.729166666666664,
          "velocity": 0.4409448818897638
        },
        {
          "duration": 1.6354166666666714,
          "durationTicks": 157,
          "midi": 63,
          "name": "D#4",
          "ticks": 3442,
          "time": 35.854166666666664,
          "velocity": 0.6299212598425197
        },
        {
          "duration": 0.0729166666666643,
          "durationTicks": 7,
          "midi": 37,
          "name": "C#2",
          "ticks": 3453,
          "time": 35.96875,
          "velocity": 0.6929133858267716
        },
        {
          "duration": 0.625,
          "durationTicks": 60,
          "midi": 65,
          "name": "F4",
          "ticks": 3454,
          "time": 35.979166666666664,
          "velocity": 0.6929133858267716
        },
        {
          "duration": 1.7083333333333357,
          "durationTicks": 164,
          "midi": 63,
          "name": "D#4",
          "ticks": 3466,
          "time": 36.104166666666664,
          "velocity": 0.5669291338582677
        },
        {
          "duration": 1.5833333333333357,
          "durationTicks": 152,
          "midi": 61,
          "name": "C#4",
          "ticks": 3478,
          "time": 36.229166666666664,
          "velocity": 0.5669291338582677
        },
        {
          "duration": 0.2395833333333286,
          "durationTicks": 23,
          "midi": 49,
          "name": "C#3",
          "ticks": 3491,
          "time": 36.364583333333336,
          "velocity": 0.6299212598425197
        },
        {
          "duration": 3.2291666666666643,
          "durationTicks": 310,
          "midi": 68,
          "name": "G#4",
          "ticks": 3491,
          "time": 36.364583333333336,
          "velocity": 0.5669291338582677
        },
        {
          "duration": 0.5729166666666714,
          "durationTicks": 55,
          "midi": 65,
          "name": "F4",
          "ticks": 3502,
          "time": 36.479166666666664,
          "velocity": 0.5669291338582677
        },
        {
          "duration": 5.229166666666671,
          "durationTicks": 502,
          "midi": 63,
          "name": "D#4",
          "ticks": 3514,
          "time": 36.604166666666664,
          "velocity": 0.5669291338582677
        },
        {
          "duration": 2.84375,
          "durationTicks": 273,
          "midi": 61,
          "name": "C#4",
          "ticks": 3528,
          "time": 36.75,
          "velocity": 0.5669291338582677
        },
        {
          "duration": 0.2916666666666714,
          "durationTicks": 28,
          "midi": 53,
          "name": "F3",
          "ticks": 3529,
          "time": 36.760416666666664,
          "velocity": 0.4409448818897638
        },
        {
          "duration": 0.2708333333333357,
          "durationTicks": 26,
          "midi": 49,
          "name": "C#3",
          "ticks": 3531,
          "time": 36.78125,
          "velocity": 0.3779527559055118
        },
        {
          "duration": 4.979166666666671,
          "durationTicks": 478,
          "midi": 68,
          "name": "G#4",
          "ticks": 3538,
          "time": 36.854166666666664,
          "velocity": 0.6299212598425197
        },
        {
          "duration": 0.40625,
          "durationTicks": 39,
          "midi": 65,
          "name": "F4",
          "ticks": 3550,
          "time": 36.979166666666664,
          "velocity": 0.5669291338582677
        },
        {
          "duration": 0.25,
          "durationTicks": 24,
          "midi": 66,
          "name": "F#4",
          "ticks": 3565,
          "time": 37.135416666666664,
          "velocity": 0.6299212598425197
        },
        {
          "duration": 0.09375,
          "durationTicks": 9,
          "midi": 44,
          "name": "G#2",
          "ticks": 3566,
          "time": 37.145833333333336,
          "velocity": 0.4409448818897638
        },
        {
          "duration": 9.28125,
          "durationTicks": 891,
          "midi": 51,
          "name": "D#3",
          "ticks": 3566,
          "time": 37.145833333333336,
          "velocity": 0.4409448818897638
        },
        {
          "duration": 1.6458333333333357,
          "durationTicks": 158,
          "midi": 60,
          "name": "C4",
          "ticks": 3567,
          "time": 37.15625,
          "velocity": 0.4409448818897638
        },
        {
          "duration": 0.6145833333333357,
          "durationTicks": 59,
          "midi": 65,
          "name": "F4",
          "ticks": 3579,
          "time": 37.28125,
          "velocity": 0.5669291338582677
        },
        {
          "duration": 6.34375,
          "durationTicks": 609,
          "midi": 63,
          "name": "D#4",
          "ticks": 3589,
          "time": 37.385416666666664,
          "velocity": 0.5669291338582677
        },
        {
          "duration": 5.385416666666664,
          "durationTicks": 517,
          "midi": 61,
          "name": "C#4",
          "ticks": 3603,
          "time": 37.53125,
          "velocity": 0.6299212598425197
        },
        {
          "duration": 0.2708333333333357,
          "durationTicks": 26,
          "midi": 49,
          "name": "C#3",
          "ticks": 3604,
          "time": 37.541666666666664,
          "velocity": 0.5039370078740157
        },
        {
          "duration": 0.2708333333333357,
          "durationTicks": 26,
          "midi": 53,
          "name": "F3",
          "ticks": 3604,
          "time": 37.541666666666664,
          "velocity": 0.5669291338582677
        },
        {
          "duration": 0.15625,
          "durationTicks": 15,
          "midi": 54,
          "name": "F#3",
          "ticks": 3615,
          "time": 37.65625,
          "velocity": 0.5669291338582677
        },
        {
          "duration": 6.78125,
          "durationTicks": 651,
          "midi": 63,
          "name": "D#4",
          "ticks": 3616,
          "time": 37.666666666666664,
          "velocity": 0.5669291338582677
        },
        {
          "duration": 0.6666666666666643,
          "durationTicks": 64,
          "midi": 56,
          "name": "G#3",
          "ticks": 3627,
          "time": 37.78125,
          "velocity": 0.5669291338582677
        },
        {
          "duration": 1.2083333333333357,
          "durationTicks": 116,
          "midi": 65,
          "name": "F4",
          "ticks": 3628,
          "time": 37.791666666666664,
          "velocity": 0.6929133858267716
        },
        {
          "duration": 0.1875,
          "durationTicks": 18,
          "midi": 66,
          "name": "F#4",
          "ticks": 3641,
          "time": 37.927083333333336,
          "velocity": 0.6929133858267716
        },
        {
          "duration": 0.1666666666666714,
          "durationTicks": 16,
          "midi": 58,
          "name": "A#3",
          "ticks": 3643,
          "time": 37.947916666666664,
          "velocity": 0.5039370078740157
        },
        {
          "duration": 5.21875,
          "durationTicks": 501,
          "midi": 68,
          "name": "G#4",
          "ticks": 3652,
          "time": 38.041666666666664,
          "velocity": 0.7559055118110236
        },
        {
          "duration": 9.125,
          "durationTicks": 876,
          "midi": 70,
          "name": "A#4",
          "ticks": 3665,
          "time": 38.177083333333336,
          "velocity": 0.6929133858267716
        },
        {
          "duration": 1.875,
          "durationTicks": 180,
          "midi": 60,
          "name": "C4",
          "ticks": 3667,
          "time": 38.197916666666664,
          "velocity": 0.5039370078740157
        },
        {
          "duration": 9.302083333333336,
          "durationTicks": 893,
          "midi": 72,
          "name": "C5",
          "ticks": 3678,
          "time": 38.3125,
          "velocity": 0.6299212598425197
        },
        {
          "duration": 0.8541666666666643,
          "durationTicks": 82,
          "midi": 56,
          "name": "G#3",
          "ticks": 3680,
          "time": 38.333333333333336,
          "velocity": 0.5039370078740157
        },
        {
          "duration": 9.177083333333336,
          "durationTicks": 881,
          "midi": 70,
          "name": "A#4",
          "ticks": 3690,
          "time": 38.4375,
          "velocity": 0.6299212598425197
        },
        {
          "duration": 5.15625,
          "durationTicks": 495,
          "midi": 68,
          "name": "G#4",
          "ticks": 3703,
          "time": 38.572916666666664,
          "velocity": 0.6299212598425197
        },
        {
          "duration": 2.8125,
          "durationTicks": 270,
          "midi": 60,
          "name": "C4",
          "ticks": 3705,
          "time": 38.59375,
          "velocity": 0.3779527559055118
        },
        {
          "duration": 0.1875,
          "durationTicks": 18,
          "midi": 66,
          "name": "F#4",
          "ticks": 3707,
          "time": 38.614583333333336,
          "velocity": 0.31496062992125984
        },
        {
          "duration": 1.2708333333333357,
          "durationTicks": 122,
          "midi": 75,
          "name": "D#5",
          "ticks": 3712,
          "time": 38.666666666666664,
          "velocity": 0.6929133858267716
        },
        {
          "duration": 9.302083333333329,
          "durationTicks": 893,
          "midi": 72,
          "name": "C5",
          "ticks": 3725,
          "time": 38.802083333333336,
          "velocity": 0.6929133858267716
        },
        {
          "duration": 0.25,
          "durationTicks": 24,
          "midi": 49,
          "name": "C#3",
          "ticks": 3738,
          "time": 38.9375,
          "velocity": 0.5039370078740157
        },
        {
          "duration": 0.8125,
          "durationTicks": 78,
          "midi": 56,
          "name": "G#3",
          "ticks": 3738,
          "time": 38.9375,
          "velocity": 0.5669291338582677
        },
        {
          "duration": 0.2395833333333357,
          "durationTicks": 23,
          "midi": 73,
          "name": "C#5",
          "ticks": 3739,
          "time": 38.947916666666664,
          "velocity": 0.6929133858267716
        },
        {
          "duration": 3.9583333333333286,
          "durationTicks": 380,
          "midi": 65,
          "name": "F4",
          "ticks": 3740,
          "time": 38.958333333333336,
          "velocity": 0.5039370078740157
        },
        {
          "duration": 20.25,
          "durationTicks": 1944,
          "midi": 72,
          "name": "C5",
          "ticks": 3751,
          "time": 39.072916666666664,
          "velocity": 0.6299212598425197
        },
        {
          "duration": 9.697916666666664,
          "durationTicks": 931,
          "midi": 70,
          "name": "A#4",
          "ticks": 3762,
          "time": 39.1875,
          "velocity": 0.6299212598425197
        },
        {
          "duration": 4.895833333333336,
          "durationTicks": 470,
          "midi": 68,
          "name": "G#4",
          "ticks": 3774,
          "time": 39.3125,
          "velocity": 0.6929133858267716
        },
        {
          "duration": 4.395833333333329,
          "durationTicks": 422,
          "midi": 61,
          "name": "C#4",
          "ticks": 3776,
          "time": 39.333333333333336,
          "velocity": 0.4409448818897638
        },
        {
          "duration": 0.25,
          "durationTicks": 24,
          "midi": 49,
          "name": "C#3",
          "ticks": 3777,
          "time": 39.34375,
          "velocity": 0.3779527559055118
        },
        {
          "duration": 0.25,
          "durationTicks": 24,
          "midi": 53,
          "name": "F3",
          "ticks": 3777,
          "time": 39.34375,
          "velocity": 0.4409448818897638
        },
        {
          "duration": 0.1458333333333357,
          "durationTicks": 14,
          "midi": 54,
          "name": "F#3",
          "ticks": 3787,
          "time": 39.447916666666664,
          "velocity": 0.5669291338582677
        },
        {
          "duration": 10.71875,
          "durationTicks": 1029,
          "midi": 70,
          "name": "A#4",
          "ticks": 3787,
          "time": 39.447916666666664,
          "velocity": 0.6299212598425197
        },
        {
          "duration": 21.9375,
          "durationTicks": 2106,
          "midi": 72,
          "name": "C5",
          "ticks": 3800,
          "time": 39.583333333333336,
          "velocity": 0.6929133858267716
        },
        {
          "duration": 4.614583333333336,
          "durationTicks": 443,
          "midi": 56,
          "name": "G#3",
          "ticks": 3801,
          "time": 39.59375,
          "velocity": 0.5039370078740157
        },
        {
          "duration": 0.1979166666666643,
          "durationTicks": 19,
          "midi": 73,
          "name": "C#5",
          "ticks": 3815,
          "time": 39.739583333333336,
          "velocity": 0.6929133858267716
        },
        {
          "duration": 0.1875,
          "durationTicks": 18,
          "midi": 58,
          "name": "A#3",
          "ticks": 3816,
          "time": 39.75,
          "velocity": 0.5669291338582677
        },
        {
          "duration": 1.3020833333333357,
          "durationTicks": 125,
          "midi": 75,
          "name": "D#5",
          "ticks": 3826,
          "time": 39.854166666666664,
          "velocity": 0.6299212598425197
        },
        {
          "duration": 0.0833333333333286,
          "durationTicks": 8,
          "midi": 77,
          "name": "F5",
          "ticks": 3839,
          "time": 39.989583333333336,
          "velocity": 0.6929133858267716
        },
        {
          "duration": 4.614583333333336,
          "durationTicks": 443,
          "midi": 60,
          "name": "C4",
          "ticks": 3840,
          "time": 40,
          "velocity": 0.5039370078740157
        },
        {
          "duration": 0.2395833333333357,
          "durationTicks": 23,
          "midi": 78,
          "name": "F#5",
          "ticks": 3852,
          "time": 40.125,
          "velocity": 0.6299212598425197
        },
        {
          "duration": 0.21875,
          "durationTicks": 21,
          "midi": 58,
          "name": "A#3",
          "ticks": 3854,
          "time": 40.145833333333336,
          "velocity": 0.5669291338582677
        },
        {
          "duration": 0.6354166666666714,
          "durationTicks": 61,
          "midi": 80,
          "name": "G#5",
          "ticks": 3865,
          "time": 40.260416666666664,
          "velocity": 0.6299212598425197
        },
        {
          "duration": 0.1458333333333286,
          "durationTicks": 14,
          "midi": 82,
          "name": "A#5",
          "ticks": 3875,
          "time": 40.364583333333336,
          "velocity": 0.6299212598425197
        },
        {
          "duration": 0.0729166666666714,
          "durationTicks": 7,
          "midi": 44,
          "name": "G#2",
          "ticks": 3886,
          "time": 40.479166666666664,
          "velocity": 0.5039370078740157
        },
        {
          "duration": 0.3645833333333357,
          "durationTicks": 35,
          "midi": 84,
          "name": "C6",
          "ticks": 3891,
          "time": 40.53125,
          "velocity": 0.6929133858267716
        },
        {
          "duration": 0.2395833333333357,
          "durationTicks": 23,
          "midi": 82,
          "name": "A#5",
          "ticks": 3903,
          "time": 40.65625,
          "velocity": 0.5669291338582677
        },
        {
          "duration": 2.1458333333333286,
          "durationTicks": 206,
          "midi": 80,
          "name": "G#5",
          "ticks": 3914,
          "time": 40.770833333333336,
          "velocity": 0.6299212598425197
        },
        {
          "duration": 0.0520833333333357,
          "durationTicks": 5,
          "midi": 78,
          "name": "F#5",
          "ticks": 3928,
          "time": 40.916666666666664,
          "velocity": 0.6299212598425197
        },
        {
          "duration": 7.072916666666664,
          "durationTicks": 679,
          "midi": 75,
          "name": "D#5",
          "ticks": 3939,
          "time": 41.03125,
          "velocity": 0.5669291338582677
        },
        {
          "duration": 20.75,
          "durationTicks": 1992,
          "midi": 72,
          "name": "C5",
          "ticks": 3951,
          "time": 41.15625,
          "velocity": 0.6299212598425197
        },
        {
          "duration": 3.59375,
          "durationTicks": 345,
          "midi": 68,
          "name": "G#4",
          "ticks": 3965,
          "time": 41.302083333333336,
          "velocity": 0.6299212598425197
        },
        {
          "duration": 5.083333333333336,
          "durationTicks": 488,
          "midi": 60,
          "name": "C4",
          "ticks": 3969,
          "time": 41.34375,
          "velocity": 0.31496062992125984
        },
        {
          "duration": 3.28125,
          "durationTicks": 315,
          "midi": 63,
          "name": "D#4",
          "ticks": 4007,
          "time": 41.739583333333336,
          "velocity": 0.5669291338582677
        },
        {
          "duration": 0.71875,
          "durationTicks": 69,
          "midi": 49,
          "name": "C#3",
          "ticks": 4051,
          "time": 42.197916666666664,
          "velocity": 0.3779527559055118
        },
        {
          "duration": 0.6979166666666643,
          "durationTicks": 67,
          "midi": 85,
          "name": "C#6",
          "ticks": 4053,
          "time": 42.21875,
          "velocity": 0.6299212598425197
        },
        {
          "duration": 0.5833333333333286,
          "durationTicks": 56,
          "midi": 84,
          "name": "C6",
          "ticks": 4064,
          "time": 42.333333333333336,
          "velocity": 0.5669291338582677
        },
        {
          "duration": 0.46875,
          "durationTicks": 45,
          "midi": 82,
          "name": "A#5",
          "ticks": 4075,
          "time": 42.447916666666664,
          "velocity": 0.6929133858267716
        },
        {
          "duration": 14.90625,
          "durationTicks": 1431,
          "midi": 80,
          "name": "G#5",
          "ticks": 4090,
          "time": 42.604166666666664,
          "velocity": 0.5669291338582677
        },
        {
          "duration": 1.875,
          "durationTicks": 180,
          "midi": 61,
          "name": "C#4",
          "ticks": 4092,
          "time": 42.625,
          "velocity": 0.5039370078740157
        },
        {
          "duration": 0.75,
          "durationTicks": 72,
          "midi": 65,
          "name": "F4",
          "ticks": 4092,
          "time": 42.625,
          "velocity": 0.3779527559055118
        },
        {
          "duration": 0.1770833333333286,
          "durationTicks": 17,
          "midi": 77,
          "name": "F5",
          "ticks": 4103,
          "time": 42.739583333333336,
          "velocity": 0.6299212598425197
        },
        {
          "duration": 0.052083333333328596,
          "durationTicks": 5,
          "midi": 73,
          "name": "C#5",
          "ticks": 4115,
          "time": 42.864583333333336,
          "velocity": 0.5669291338582677
        },
        {
          "duration": 0.052083333333328596,
          "durationTicks": 5,
          "midi": 49,
          "name": "C#3",
          "ticks": 4130,
          "time": 43.020833333333336,
          "velocity": 0.4409448818897638
        },
        {
          "duration": 16.30208333333333,
          "durationTicks": 1565,
          "midi": 70,
          "name": "A#4",
          "ticks": 4130,
          "time": 43.020833333333336,
          "velocity": 0.5669291338582677
        },
        {
          "duration": 0.0520833333333357,
          "durationTicks": 5,
          "midi": 53,
          "name": "F3",
          "ticks": 4132,
          "time": 43.041666666666664,
          "velocity": 0.3779527559055118
        },
        {
          "duration": 2.6145833333333357,
          "durationTicks": 251,
          "midi": 68,
          "name": "G#4",
          "ticks": 4141,
          "time": 43.135416666666664,
          "velocity": 0.5669291338582677
        },
        {
          "duration": 0.9479166666666714,
          "durationTicks": 91,
          "midi": 65,
          "name": "F4",
          "ticks": 4153,
          "time": 43.260416666666664,
          "velocity": 0.6299212598425197
        },
        {
          "duration": 2.6979166666666714,
          "durationTicks": 259,
          "midi": 68,
          "name": "G#4",
          "ticks": 4168,
          "time": 43.416666666666664,
          "velocity": 0.5669291338582677
        },
        {
          "duration": 1.4583333333333357,
          "durationTicks": 140,
          "midi": 61,
          "name": "C#4",
          "ticks": 4170,
          "time": 43.4375,
          "velocity": 0.4409448818897638
        },
        {
          "duration": 5.4375,
          "durationTicks": 522,
          "midi": 51,
          "name": "D#3",
          "ticks": 4171,
          "time": 43.447916666666664,
          "velocity": 0.3779527559055118
        },
        {
          "duration": 0.28125,
          "durationTicks": 27,
          "midi": 55,
          "name": "G3",
          "ticks": 4171,
          "time": 43.447916666666664,
          "velocity": 0.31496062992125984
        },
        {
          "duration": 18.197916666666664,
          "durationTicks": 1747,
          "midi": 70,
          "name": "A#4",
          "ticks": 4181,
          "time": 43.552083333333336,
          "velocity": 0.5669291338582677
        },
        {
          "duration": 1.6041666666666714,
          "durationTicks": 154,
          "midi": 63,
          "name": "D#4",
          "ticks": 4192,
          "time": 43.666666666666664,
          "velocity": 0.5669291338582677
        },
        {
          "duration": 0.3645833333333357,
          "durationTicks": 35,
          "midi": 44,
          "name": "G#2",
          "ticks": 4209,
          "time": 43.84375,
          "velocity": 0.4409448818897638
        },
        {
          "duration": 5.541666666666671,
          "durationTicks": 532,
          "midi": 51,
          "name": "D#3",
          "ticks": 4210,
          "time": 43.854166666666664,
          "velocity": 0.4409448818897638
        },
        {
          "duration": 3.1458333333333357,
          "durationTicks": 302,
          "midi": 56,
          "name": "G#3",
          "ticks": 4210,
          "time": 43.854166666666664,
          "velocity": 0.3779527559055118
        },
        {
          "duration": 3.4479166666666714,
          "durationTicks": 331,
          "midi": 68,
          "name": "G#4",
          "ticks": 4210,
          "time": 43.854166666666664,
          "velocity": 0.6299212598425197
        },
        {
          "duration": 0.21875,
          "durationTicks": 21,
          "midi": 67,
          "name": "G4",
          "ticks": 4223,
          "time": 43.989583333333336,
          "velocity": 0.5669291338582677
        },
        {
          "duration": 0.9791666666666714,
          "durationTicks": 94,
          "midi": 65,
          "name": "F4",
          "ticks": 4234,
          "time": 44.104166666666664,
          "velocity": 0.5669291338582677
        },
        {
          "duration": 1.4895833333333357,
          "durationTicks": 143,
          "midi": 63,
          "name": "D#4",
          "ticks": 4249,
          "time": 44.260416666666664,
          "velocity": 0.6299212598425197
        },
        {
          "duration": 0.1770833333333286,
          "durationTicks": 17,
          "midi": 48,
          "name": "C3",
          "ticks": 4250,
          "time": 44.270833333333336,
          "velocity": 0.5039370078740157
        },
        {
          "duration": 1,
          "durationTicks": 96,
          "midi": 61,
          "name": "C#4",
          "ticks": 4259,
          "time": 44.364583333333336,
          "velocity": 0.5039370078740157
        },
        {
          "duration": 0.0729166666666643,
          "durationTicks": 7,
          "midi": 46,
          "name": "A#2",
          "ticks": 4260,
          "time": 44.375,
          "velocity": 0.5669291338582677
        },
        {
          "duration": 0.09375,
          "durationTicks": 9,
          "midi": 44,
          "name": "G#2",
          "ticks": 4270,
          "time": 44.479166666666664,
          "velocity": 0.6299212598425197
        },
        {
          "duration": 2.8645833333333357,
          "durationTicks": 275,
          "midi": 60,
          "name": "C4",
          "ticks": 4273,
          "time": 44.510416666666664,
          "velocity": 0.6299212598425197
        },
        {
          "duration": 0.2916666666666714,
          "durationTicks": 28,
          "midi": 49,
          "name": "C#3",
          "ticks": 4282,
          "time": 44.604166666666664,
          "velocity": 0.5669291338582677
        },
        {
          "duration": 1.4583333333333357,
          "durationTicks": 140,
          "midi": 61,
          "name": "C#4",
          "ticks": 4287,
          "time": 44.65625,
          "velocity": 0.5669291338582677
        },
        {
          "duration": 2.90625,
          "durationTicks": 279,
          "midi": 68,
          "name": "G#4",
          "ticks": 4299,
          "time": 44.78125,
          "velocity": 0.6299212598425197
        },
        {
          "duration": 1.6458333333333286,
          "durationTicks": 158,
          "midi": 63,
          "name": "D#4",
          "ticks": 4310,
          "time": 44.895833333333336,
          "velocity": 0.5669291338582677
        },
        {
          "duration": 0.125,
          "durationTicks": 12,
          "midi": 37,
          "name": "C#2",
          "ticks": 4321,
          "time": 45.010416666666664,
          "velocity": 0.6299212598425197
        },
        {
          "duration": 0.71875,
          "durationTicks": 69,
          "midi": 65,
          "name": "F4",
          "ticks": 4323,
          "time": 45.03125,
          "velocity": 0.5669291338582677
        },
        {
          "duration": 1.7291666666666643,
          "durationTicks": 166,
          "midi": 63,
          "name": "D#4",
          "ticks": 4335,
          "time": 45.15625,
          "velocity": 0.6299212598425197
        },
        {
          "duration": 1.6145833333333286,
          "durationTicks": 155,
          "midi": 61,
          "name": "C#4",
          "ticks": 4346,
          "time": 45.270833333333336,
          "velocity": 0.5669291338582677
        },
        {
          "duration": 0.3333333333333357,
          "durationTicks": 32,
          "midi": 49,
          "name": "C#3",
          "ticks": 4360,
          "time": 45.416666666666664,
          "velocity": 0.5669291338582677
        },
        {
          "duration": 2.6875,
          "durationTicks": 258,
          "midi": 68,
          "name": "G#4",
          "ticks": 4360,
          "time": 45.416666666666664,
          "velocity": 0.6299212598425197
        },
        {
          "duration": 0.5833333333333357,
          "durationTicks": 56,
          "midi": 65,
          "name": "F4",
          "ticks": 4371,
          "time": 45.53125,
          "velocity": 0.5039370078740157
        },
        {
          "duration": 2.4583333333333286,
          "durationTicks": 236,
          "midi": 63,
          "name": "D#4",
          "ticks": 4382,
          "time": 45.645833333333336,
          "velocity": 0.5669291338582677
        },
        {
          "duration": 2.7083333333333357,
          "durationTicks": 260,
          "midi": 61,
          "name": "C#4",
          "ticks": 4396,
          "time": 45.791666666666664,
          "velocity": 0.6299212598425197
        },
        {
          "duration": 0.3125,
          "durationTicks": 30,
          "midi": 53,
          "name": "F3",
          "ticks": 4397,
          "time": 45.802083333333336,
          "velocity": 0.5669291338582677
        },
        {
          "duration": 0.2916666666666714,
          "durationTicks": 28,
          "midi": 49,
          "name": "C#3",
          "ticks": 4399,
          "time": 45.822916666666664,
          "velocity": 0.3779527559055118
        },
        {
          "duration": 2.5833333333333357,
          "durationTicks": 248,
          "midi": 68,
          "name": "G#4",
          "ticks": 4408,
          "time": 45.916666666666664,
          "velocity": 0.6299212598425197
        },
        {
          "duration": 0.3958333333333357,
          "durationTicks": 38,
          "midi": 65,
          "name": "F4",
          "ticks": 4419,
          "time": 46.03125,
          "velocity": 0.5669291338582677
        },
        {
          "duration": 0.25,
          "durationTicks": 24,
          "midi": 66,
          "name": "F#4",
          "ticks": 4433,
          "time": 46.177083333333336,
          "velocity": 0.6929133858267716
        },
        {
          "duration": 0.2395833333333357,
          "durationTicks": 23,
          "midi": 44,
          "name": "G#2",
          "ticks": 4434,
          "time": 46.1875,
          "velocity": 0.5039370078740157
        },
        {
          "duration": 7.15625,
          "durationTicks": 687,
          "midi": 51,
          "name": "D#3",
          "ticks": 4435,
          "time": 46.197916666666664,
          "velocity": 0.4409448818897638
        },
        {
          "duration": 1.90625,
          "durationTicks": 183,
          "midi": 60,
          "name": "C4",
          "ticks": 4435,
          "time": 46.197916666666664,
          "velocity": 0.5039370078740157
        },
        {
          "duration": 0.6354166666666643,
          "durationTicks": 61,
          "midi": 65,
          "name": "F4",
          "ticks": 4446,
          "time": 46.3125,
          "velocity": 0.5039370078740157
        },
        {
          "duration": 2.4583333333333286,
          "durationTicks": 236,
          "midi": 63,
          "name": "D#4",
          "ticks": 4457,
          "time": 46.427083333333336,
          "velocity": 0.5669291338582677
        },
        {
          "duration": 3.1354166666666643,
          "durationTicks": 301,
          "midi": 61,
          "name": "C#4",
          "ticks": 4472,
          "time": 46.583333333333336,
          "velocity": 0.5669291338582677
        },
        {
          "duration": 0.2916666666666643,
          "durationTicks": 28,
          "midi": 53,
          "name": "F3",
          "ticks": 4473,
          "time": 46.59375,
          "velocity": 0.5039370078740157
        },
        {
          "duration": 0.28125,
          "durationTicks": 27,
          "midi": 49,
          "name": "C#3",
          "ticks": 4474,
          "time": 46.604166666666664,
          "velocity": 0.5669291338582677
        },
        {
          "duration": 0.1666666666666643,
          "durationTicks": 16,
          "midi": 54,
          "name": "F#3",
          "ticks": 4485,
          "time": 46.71875,
          "velocity": 0.5039370078740157
        },
        {
          "duration": 2.6770833333333357,
          "durationTicks": 257,
          "midi": 63,
          "name": "D#4",
          "ticks": 4485,
          "time": 46.71875,
          "velocity": 0.5669291338582677
        },
        {
          "duration": 0.7916666666666714,
          "durationTicks": 76,
          "midi": 56,
          "name": "G#3",
          "ticks": 4495,
          "time": 46.822916666666664,
          "velocity": 0.5039370078740157
        },
        {
          "duration": 1.6666666666666643,
          "durationTicks": 160,
          "midi": 65,
          "name": "F4",
          "ticks": 4496,
          "time": 46.833333333333336,
          "velocity": 0.6929133858267716
        },
        {
          "duration": 0.3125,
          "durationTicks": 30,
          "midi": 66,
          "name": "F#4",
          "ticks": 4511,
          "time": 46.989583333333336,
          "velocity": 0.6929133858267716
        },
        {
          "duration": 0.3020833333333357,
          "durationTicks": 29,
          "midi": 58,
          "name": "A#3",
          "ticks": 4512,
          "time": 47,
          "velocity": 0.6299212598425197
        },
        {
          "duration": 2.28125,
          "durationTicks": 219,
          "midi": 68,
          "name": "G#4",
          "ticks": 4523,
          "time": 47.114583333333336,
          "velocity": 0.6929133858267716
        },
        {
          "duration": 15.083333333333336,
          "durationTicks": 1448,
          "midi": 70,
          "name": "A#4",
          "ticks": 4533,
          "time": 47.21875,
          "velocity": 0.6929133858267716
        },
        {
          "duration": 2.1666666666666714,
          "durationTicks": 208,
          "midi": 60,
          "name": "C4",
          "ticks": 4534,
          "time": 47.229166666666664,
          "velocity": 0.5669291338582677
        },
        {
          "duration": 15.84375,
          "durationTicks": 1521,
          "midi": 72,
          "name": "C5",
          "ticks": 4548,
          "time": 47.375,
          "velocity": 0.6929133858267716
        },
        {
          "duration": 0.7083333333333286,
          "durationTicks": 68,
          "midi": 56,
          "name": "G#3",
          "ticks": 4550,
          "time": 47.395833333333336,
          "velocity": 0.5669291338582677
        },
        {
          "duration": 15.59375,
          "durationTicks": 1497,
          "midi": 70,
          "name": "A#4",
          "ticks": 4559,
          "time": 47.489583333333336,
          "velocity": 0.5669291338582677
        },
        {
          "duration": 9.510416666666664,
          "durationTicks": 913,
          "midi": 68,
          "name": "G#4",
          "ticks": 4571,
          "time": 47.614583333333336,
          "velocity": 0.6299212598425197
        },
        {
          "duration": 0.0416666666666643,
          "durationTicks": 4,
          "midi": 66,
          "name": "F#4",
          "ticks": 4578,
          "time": 47.6875,
          "velocity": 0.31496062992125984
        },
        {
          "duration": 11.84375,
          "durationTicks": 1137,
          "midi": 75,
          "name": "D#5",
          "ticks": 4585,
          "time": 47.760416666666664,
          "velocity": 0.7559055118110236
        },
        {
          "duration": 3.6145833333333357,
          "durationTicks": 347,
          "midi": 60,
          "name": "C4",
          "ticks": 4587,
          "time": 47.78125,
          "velocity": 0.5669291338582677
        },
        {
          "duration": 16.729166666666664,
          "durationTicks": 1606,
          "midi": 72,
          "name": "C5",
          "ticks": 4598,
          "time": 47.895833333333336,
          "velocity": 0.6299212598425197
        },
        {
          "duration": 3.1354166666666643,
          "durationTicks": 301,
          "midi": 63,
          "name": "D#4",
          "ticks": 4599,
          "time": 47.90625,
          "velocity": 0.5039370078740157
        },
        {
          "duration": 0.4895833333333357,
          "durationTicks": 47,
          "midi": 56,
          "name": "G#3",
          "ticks": 4609,
          "time": 48.010416666666664,
          "velocity": 0.5039370078740157
        },
        {
          "duration": 11.041666666666671,
          "durationTicks": 1060,
          "midi": 68,
          "name": "G#4",
          "ticks": 4609,
          "time": 48.010416666666664,
          "velocity": 0.6929133858267716
        },
        {
          "duration": 2,
          "durationTicks": 192,
          "midi": 61,
          "name": "C#4",
          "ticks": 4624,
          "time": 48.166666666666664,
          "velocity": 0.5669291338582677
        },
        {
          "duration": 0.3229166666666643,
          "durationTicks": 31,
          "midi": 73,
          "name": "C#5",
          "ticks": 4625,
          "time": 48.177083333333336,
          "velocity": 0.6929133858267716
        },
        {
          "duration": 1.53125,
          "durationTicks": 147,
          "midi": 65,
          "name": "F4",
          "ticks": 4626,
          "time": 48.1875,
          "velocity": 0.6299212598425197
        },
        {
          "duration": 3.09375,
          "durationTicks": 297,
          "midi": 56,
          "name": "G#3",
          "ticks": 4637,
          "time": 48.302083333333336,
          "velocity": 0.5039370078740157
        },
        {
          "duration": 11.635416666666664,
          "durationTicks": 1117,
          "midi": 68,
          "name": "G#4",
          "ticks": 4638,
          "time": 48.3125,
          "velocity": 0.5669291338582677
        },
        {
          "duration": 0.1354166666666643,
          "durationTicks": 13,
          "midi": 49,
          "name": "C#3",
          "ticks": 4647,
          "time": 48.40625,
          "velocity": 0.5669291338582677
        },
        {
          "duration": 2.6041666666666643,
          "durationTicks": 250,
          "midi": 65,
          "name": "F4",
          "ticks": 4650,
          "time": 48.4375,
          "velocity": 0.5039370078740157
        },
        {
          "duration": 0.3020833333333286,
          "durationTicks": 29,
          "midi": 54,
          "name": "F#3",
          "ticks": 4664,
          "time": 48.583333333333336,
          "velocity": 0.6299212598425197
        },
        {
          "duration": 16.249999999999993,
          "durationTicks": 1560,
          "midi": 70,
          "name": "A#4",
          "ticks": 4664,
          "time": 48.583333333333336,
          "velocity": 0.6929133858267716
        },
        {
          "duration": 2.8020833333333357,
          "durationTicks": 269,
          "midi": 63,
          "name": "D#4",
          "ticks": 4665,
          "time": 48.59375,
          "velocity": 0.5669291338582677
        },
        {
          "duration": 0.2083333333333286,
          "durationTicks": 20,
          "midi": 66,
          "name": "F#4",
          "ticks": 4673,
          "time": 48.677083333333336,
          "velocity": 0.6299212598425197
        },
        {
          "duration": 0.1875,
          "durationTicks": 18,
          "midi": 58,
          "name": "A#3",
          "ticks": 4675,
          "time": 48.697916666666664,
          "velocity": 0.5039370078740157
        },
        {
          "duration": 4.0625,
          "durationTicks": 390,
          "midi": 63,
          "name": "D#4",
          "ticks": 4686,
          "time": 48.8125,
          "velocity": 0.5669291338582677
        },
        {
          "duration": 13.885416666666664,
          "durationTicks": 1333,
          "midi": 51,
          "name": "D#3",
          "ticks": 4689,
          "time": 48.84375,
          "velocity": 0.5039370078740157
        },
        {
          "duration": 2.8229166666666714,
          "durationTicks": 271,
          "midi": 60,
          "name": "C4",
          "ticks": 4702,
          "time": 48.979166666666664,
          "velocity": 0.6299212598425197
        },
        {
          "duration": 11.489583333333336,
          "durationTicks": 1103,
          "midi": 68,
          "name": "G#4",
          "ticks": 4702,
          "time": 48.979166666666664,
          "velocity": 0.6299212598425197
        },
        {
          "duration": 0.3854166666666714,
          "durationTicks": 37,
          "midi": 44,
          "name": "G#2",
          "ticks": 4705,
          "time": 49.010416666666664,
          "velocity": 0.4409448818897638
        },
        {
          "duration": 11.427083333333336,
          "durationTicks": 1097,
          "midi": 63,
          "name": "D#4",
          "ticks": 4714,
          "time": 49.104166666666664,
          "velocity": 0.5669291338582677
        },
        {
          "duration": 14.052083333333329,
          "durationTicks": 1349,
          "midi": 51,
          "name": "D#3",
          "ticks": 4718,
          "time": 49.145833333333336,
          "velocity": 0.5039370078740157
        },
        {
          "duration": 3.34375,
          "durationTicks": 321,
          "midi": 60,
          "name": "C4",
          "ticks": 4728,
          "time": 49.25,
          "velocity": 0.4409448818897638
        },
        {
          "duration": 0.3229166666666643,
          "durationTicks": 31,
          "midi": 73,
          "name": "C#5",
          "ticks": 4742,
          "time": 49.395833333333336,
          "velocity": 0.6299212598425197
        },
        {
          "duration": 0.3020833333333357,
          "durationTicks": 29,
          "midi": 58,
          "name": "A#3",
          "ticks": 4744,
          "time": 49.416666666666664,
          "velocity": 0.3779527559055118
        },
        {
          "duration": 1.1666666666666643,
          "durationTicks": 112,
          "midi": 61,
          "name": "C#4",
          "ticks": 4755,
          "time": 49.53125,
          "velocity": 0.5039370078740157
        },
        {
          "duration": 0.1770833333333357,
          "durationTicks": 17,
          "midi": 53,
          "name": "F3",
          "ticks": 4756,
          "time": 49.541666666666664,
          "velocity": 0.4409448818897638
        },
        {
          "duration": 0.0729166666666643,
          "durationTicks": 7,
          "midi": 46,
          "name": "A#2",
          "ticks": 4766,
          "time": 49.645833333333336,
          "velocity": 0.5039370078740157
        },
        {
          "duration": 7.34375,
          "durationTicks": 705,
          "midi": 65,
          "name": "F4",
          "ticks": 4767,
          "time": 49.65625,
          "velocity": 0.5669291338582677
        },
        {
          "duration": 0.3645833333333286,
          "durationTicks": 35,
          "midi": 54,
          "name": "F#3",
          "ticks": 4781,
          "time": 49.802083333333336,
          "velocity": 0.5669291338582677
        },
        {
          "duration": 16.55208333333333,
          "durationTicks": 1589,
          "midi": 70,
          "name": "A#4",
          "ticks": 4782,
          "time": 49.8125,
          "velocity": 0.6929133858267716
        },
        {
          "duration": 1.1979166666666643,
          "durationTicks": 115,
          "midi": 61,
          "name": "C#4",
          "ticks": 4785,
          "time": 49.84375,
          "velocity": 0.4409448818897638
        },
        {
          "duration": 0.2395833333333286,
          "durationTicks": 23,
          "midi": 58,
          "name": "A#3",
          "ticks": 4793,
          "time": 49.927083333333336,
          "velocity": 0.6299212598425197
        },
        {
          "duration": 0.2291666666666643,
          "durationTicks": 22,
          "midi": 49,
          "name": "C#3",
          "ticks": 4794,
          "time": 49.9375,
          "velocity": 0.5039370078740157
        },
        {
          "duration": 1.3333333333333357,
          "durationTicks": 128,
          "midi": 61,
          "name": "C#4",
          "ticks": 4806,
          "time": 50.0625,
          "velocity": 0.5669291338582677
        },
        {
          "duration": 0.0729166666666643,
          "durationTicks": 7,
          "midi": 42,
          "name": "F#2",
          "ticks": 4809,
          "time": 50.09375,
          "velocity": 0.5669291338582677
        },
        {
          "duration": 0.4895833333333286,
          "durationTicks": 47,
          "midi": 66,
          "name": "F#4",
          "ticks": 4820,
          "time": 50.208333333333336,
          "velocity": 0.6929133858267716
        },
        {
          "duration": 0.4583333333333286,
          "durationTicks": 44,
          "midi": 37,
          "name": "C#2",
          "ticks": 4823,
          "time": 50.239583333333336,
          "velocity": 0.6299212598425197
        },
        {
          "duration": 3.5833333333333286,
          "durationTicks": 344,
          "midi": 61,
          "name": "C#4",
          "ticks": 4823,
          "time": 50.239583333333336,
          "velocity": 0.5669291338582677
        },
        {
          "duration": 1.4791666666666714,
          "durationTicks": 142,
          "midi": 56,
          "name": "G#3",
          "ticks": 4831,
          "time": 50.322916666666664,
          "velocity": 0.6929133858267716
        },
        {
          "duration": 0.34375,
          "durationTicks": 33,
          "midi": 44,
          "name": "G#2",
          "ticks": 4834,
          "time": 50.354166666666664,
          "velocity": 0.5669291338582677
        },
        {
          "duration": 4.072916666666664,
          "durationTicks": 391,
          "midi": 61,
          "name": "C#4",
          "ticks": 4845,
          "time": 50.46875,
          "velocity": 0.5669291338582677
        },
        {
          "duration": 0.1979166666666643,
          "durationTicks": 19,
          "midi": 49,
          "name": "C#3",
          "ticks": 4848,
          "time": 50.5,
          "velocity": 0.6299212598425197
        },
        {
          "duration": 3.4895833333333357,
          "durationTicks": 335,
          "midi": 56,
          "name": "G#3",
          "ticks": 4864,
          "time": 50.666666666666664,
          "velocity": 0.6929133858267716
        },
        {
          "duration": 9.354166666666671,
          "durationTicks": 898,
          "midi": 65,
          "name": "F4",
          "ticks": 4864,
          "time": 50.666666666666664,
          "velocity": 0.7559055118110236
        },
        {
          "duration": 11.614583333333336,
          "durationTicks": 1115,
          "midi": 68,
          "name": "G#4",
          "ticks": 4866,
          "time": 50.6875,
          "velocity": 0.5669291338582677
        },
        {
          "duration": 0.34375,
          "durationTicks": 33,
          "midi": 48,
          "name": "C3",
          "ticks": 4867,
          "time": 50.697916666666664,
          "velocity": 0.6299212598425197
        },
        {
          "duration": 2.1666666666666643,
          "durationTicks": 208,
          "midi": 37,
          "name": "C#2",
          "ticks": 4868,
          "time": 50.708333333333336,
          "velocity": 0.5669291338582677
        },
        {
          "duration": 2.15625,
          "durationTicks": 207,
          "midi": 44,
          "name": "G#2",
          "ticks": 4869,
          "time": 50.71875,
          "velocity": 0.5039370078740157
        },
        {
          "duration": 10.052083333333329,
          "durationTicks": 965,
          "midi": 63,
          "name": "D#4",
          "ticks": 4877,
          "time": 50.802083333333336,
          "velocity": 0.6299212598425197
        },
        {
          "duration": 5.5625,
          "durationTicks": 534,
          "midi": 61,
          "name": "C#4",
          "ticks": 4889,
          "time": 50.927083333333336,
          "velocity": 0.6929133858267716
        },
        {
          "duration": 12,
          "durationTicks": 1152,
          "midi": 63,
          "name": "D#4",
          "ticks": 4904,
          "time": 51.083333333333336,
          "velocity": 0.6929133858267716
        },
        {
          "duration": 0.3020833333333357,
          "durationTicks": 29,
          "midi": 48,
          "name": "C3",
          "ticks": 4905,
          "time": 51.09375,
          "velocity": 0.6299212598425197
        },
        {
          "duration": 5.666666666666664,
          "durationTicks": 544,
          "midi": 61,
          "name": "C#4",
          "ticks": 4916,
          "time": 51.208333333333336,
          "velocity": 0.6299212598425197
        },
        {
          "duration": 2.03125,
          "durationTicks": 195,
          "midi": 60,
          "name": "C4",
          "ticks": 4927,
          "time": 51.322916666666664,
          "velocity": 0.6299212598425197
        },
        {
          "duration": 3.5208333333333357,
          "durationTicks": 338,
          "midi": 56,
          "name": "G#3",
          "ticks": 4941,
          "time": 51.46875,
          "velocity": 0.6299212598425197
        },
        {
          "duration": 2.3541666666666643,
          "durationTicks": 226,
          "midi": 60,
          "name": "C4",
          "ticks": 4941,
          "time": 51.46875,
          "velocity": 0.6929133858267716
        },
        {
          "duration": 0.0625,
          "durationTicks": 6,
          "midi": 48,
          "name": "C3",
          "ticks": 4942,
          "time": 51.479166666666664,
          "velocity": 0.6299212598425197
        },
        {
          "duration": 0.1979166666666714,
          "durationTicks": 19,
          "midi": 58,
          "name": "A#3",
          "ticks": 4954,
          "time": 51.604166666666664,
          "velocity": 0.5039370078740157
        },
        {
          "duration": 3.46875,
          "durationTicks": 333,
          "midi": 56,
          "name": "G#3",
          "ticks": 4967,
          "time": 51.739583333333336,
          "velocity": 0.6299212598425197
        },
        {
          "duration": 0.3541666666666643,
          "durationTicks": 34,
          "midi": 54,
          "name": "F#3",
          "ticks": 4980,
          "time": 51.875,
          "velocity": 0.5669291338582677
        },
        {
          "duration": 0.3541666666666643,
          "durationTicks": 34,
          "midi": 58,
          "name": "A#3",
          "ticks": 4980,
          "time": 51.875,
          "velocity": 0.6929133858267716
        },
        {
          "duration": 0.0833333333333357,
          "durationTicks": 8,
          "midi": 48,
          "name": "C3",
          "ticks": 4981,
          "time": 51.885416666666664,
          "velocity": 0.6299212598425197
        },
        {
          "duration": 0.2395833333333286,
          "durationTicks": 23,
          "midi": 53,
          "name": "F3",
          "ticks": 4991,
          "time": 51.989583333333336,
          "velocity": 0.5669291338582677
        },
        {
          "duration": 0.46875,
          "durationTicks": 45,
          "midi": 54,
          "name": "F#3",
          "ticks": 5004,
          "time": 52.125,
          "velocity": 0.6299212598425197
        },
        {
          "duration": 2.2708333333333286,
          "durationTicks": 218,
          "midi": 60,
          "name": "C4",
          "ticks": 5018,
          "time": 52.270833333333336,
          "velocity": 0.7559055118110236
        },
        {
          "duration": 0.3020833333333357,
          "durationTicks": 29,
          "midi": 48,
          "name": "C3",
          "ticks": 5020,
          "time": 52.291666666666664,
          "velocity": 0.6299212598425197
        },
        {
          "duration": 0.4895833333333357,
          "durationTicks": 47,
          "midi": 54,
          "name": "F#3",
          "ticks": 5029,
          "time": 52.385416666666664,
          "velocity": 0.6299212598425197
        },
        {
          "duration": 0.0729166666666643,
          "durationTicks": 7,
          "midi": 58,
          "name": "A#3",
          "ticks": 5042,
          "time": 52.520833333333336,
          "velocity": 0.6929133858267716
        },
        {
          "duration": 0.2291666666666643,
          "durationTicks": 22,
          "midi": 48,
          "name": "C3",
          "ticks": 5054,
          "time": 52.645833333333336,
          "velocity": 0.6299212598425197
        },
        {
          "duration": 0.6979166666666643,
          "durationTicks": 67,
          "midi": 54,
          "name": "F#3",
          "ticks": 5055,
          "time": 52.65625,
          "velocity": 0.5669291338582677
        },
        {
          "duration": 11,
          "durationTicks": 1056,
          "midi": 63,
          "name": "D#4",
          "ticks": 5055,
          "time": 52.65625,
          "velocity": 0.6929133858267716
        },
        {
          "duration": 0.1041666666666643,
          "durationTicks": 10,
          "midi": 58,
          "name": "A#3",
          "ticks": 5066,
          "time": 52.770833333333336,
          "velocity": 0.6929133858267716
        },
        {
          "duration": 1.2291666666666643,
          "durationTicks": 118,
          "midi": 54,
          "name": "F#3",
          "ticks": 5081,
          "time": 52.927083333333336,
          "velocity": 0.6929133858267716
        },
        {
          "duration": 2.9375,
          "durationTicks": 282,
          "midi": 60,
          "name": "C4",
          "ticks": 5091,
          "time": 53.03125,
          "velocity": 0.7559055118110236
        },
        {
          "duration": 0.3125,
          "durationTicks": 30,
          "midi": 48,
          "name": "C3",
          "ticks": 5092,
          "time": 53.041666666666664,
          "velocity": 0.6929133858267716
        },
        {
          "duration": 1.8333333333333357,
          "durationTicks": 176,
          "midi": 54,
          "name": "F#3",
          "ticks": 5103,
          "time": 53.15625,
          "velocity": 0.6929133858267716
        },
        {
          "duration": 13.854166666666671,
          "durationTicks": 1330,
          "midi": 51,
          "name": "D#3",
          "ticks": 5115,
          "time": 53.28125,
          "velocity": 0.6929133858267716
        },
        {
          "duration": 0.0833333333333286,
          "durationTicks": 8,
          "midi": 44,
          "name": "G#2",
          "ticks": 5129,
          "time": 53.427083333333336,
          "velocity": 0.5669291338582677
        },
        {
          "duration": 0.0833333333333357,
          "durationTicks": 8,
          "midi": 37,
          "name": "C#2",
          "ticks": 5130,
          "time": 53.4375,
          "velocity": 0.5669291338582677
        },
        {
          "duration": 6.510416666666664,
          "durationTicks": 625,
          "midi": 61,
          "name": "C#4",
          "ticks": 5130,
          "time": 53.4375,
          "velocity": 0.6929133858267716
        },
        {
          "duration": 0.375,
          "durationTicks": 36,
          "midi": 49,
          "name": "C#3",
          "ticks": 5131,
          "time": 53.447916666666664,
          "velocity": 0.6299212598425197
        },
        {
          "duration": 0.0520833333333357,
          "durationTicks": 5,
          "midi": 53,
          "name": "F3",
          "ticks": 5131,
          "time": 53.447916666666664,
          "velocity": 0.6299212598425197
        },
        {
          "duration": 2.59375,
          "durationTicks": 249,
          "midi": 60,
          "name": "C4",
          "ticks": 5141,
          "time": 53.552083333333336,
          "velocity": 0.6299212598425197
        },
        {
          "duration": 0.15625,
          "durationTicks": 15,
          "midi": 58,
          "name": "A#3",
          "ticks": 5152,
          "time": 53.666666666666664,
          "velocity": 0.6929133858267716
        },
        {
          "duration": 2.6666666666666714,
          "durationTicks": 256,
          "midi": 56,
          "name": "G#3",
          "ticks": 5167,
          "time": 53.822916666666664,
          "velocity": 0.6929133858267716
        },
        {
          "duration": 0.3125,
          "durationTicks": 30,
          "midi": 37,
          "name": "C#2",
          "ticks": 5169,
          "time": 53.84375,
          "velocity": 0.6299212598425197
        },
        {
          "duration": 0.3125,
          "durationTicks": 30,
          "midi": 44,
          "name": "G#2",
          "ticks": 5169,
          "time": 53.84375,
          "velocity": 0.6299212598425197
        },
        {
          "duration": 0.3125,
          "durationTicks": 30,
          "midi": 49,
          "name": "C#3",
          "ticks": 5169,
          "time": 53.84375,
          "velocity": 0.6299212598425197
        },
        {
          "duration": 0.0625,
          "durationTicks": 6,
          "midi": 53,
          "name": "F3",
          "ticks": 5169,
          "time": 53.84375,
          "velocity": 0.6299212598425197
        },
        {
          "duration": 1.34375,
          "durationTicks": 129,
          "midi": 54,
          "name": "F#3",
          "ticks": 5178,
          "time": 53.9375,
          "velocity": 0.6299212598425197
        },
        {
          "duration": 0.0833333333333357,
          "durationTicks": 8,
          "midi": 53,
          "name": "F3",
          "ticks": 5191,
          "time": 54.072916666666664,
          "velocity": 0.6929133858267716
        },
        {
          "duration": 0.3020833333333286,
          "durationTicks": 29,
          "midi": 53,
          "name": "F3",
          "ticks": 5207,
          "time": 54.239583333333336,
          "velocity": 0.6929133858267716
        },
        {
          "duration": 0.2916666666666643,
          "durationTicks": 28,
          "midi": 44,
          "name": "G#2",
          "ticks": 5208,
          "time": 54.25,
          "velocity": 0.6299212598425197
        },
        {
          "duration": 6.21875,
          "durationTicks": 597,
          "midi": 61,
          "name": "C#4",
          "ticks": 5208,
          "time": 54.25,
          "velocity": 0.6929133858267716
        },
        {
          "duration": 1.7083333333333357,
          "durationTicks": 164,
          "midi": 37,
          "name": "C#2",
          "ticks": 5209,
          "time": 54.260416666666664,
          "velocity": 0.5669291338582677
        },
        {
          "duration": 0.28125,
          "durationTicks": 27,
          "midi": 49,
          "name": "C#3",
          "ticks": 5209,
          "time": 54.260416666666664,
          "velocity": 0.6299212598425197
        },
        {
          "duration": 2.40625,
          "durationTicks": 231,
          "midi": 60,
          "name": "C4",
          "ticks": 5217,
          "time": 54.34375,
          "velocity": 0.6929133858267716
        },
        {
          "duration": 0.0833333333333286,
          "durationTicks": 8,
          "midi": 58,
          "name": "A#3",
          "ticks": 5228,
          "time": 54.458333333333336,
          "velocity": 0.6299212598425197
        },
        {
          "duration": 0.375,
          "durationTicks": 36,
          "midi": 44,
          "name": "G#2",
          "ticks": 5243,
          "time": 54.614583333333336,
          "velocity": 0.6299212598425197
        },
        {
          "duration": 0.052083333333328596,
          "durationTicks": 5,
          "midi": 49,
          "name": "C#3",
          "ticks": 5243,
          "time": 54.614583333333336,
          "velocity": 0.6299212598425197
        },
        {
          "duration": 0.0416666666666643,
          "durationTicks": 4,
          "midi": 53,
          "name": "F3",
          "ticks": 5243,
          "time": 54.614583333333336,
          "velocity": 0.6929133858267716
        },
        {
          "duration": 2.0208333333333286,
          "durationTicks": 194,
          "midi": 56,
          "name": "G#3",
          "ticks": 5243,
          "time": 54.614583333333336,
          "velocity": 0.7559055118110236
        },
        {
          "duration": 0.9270833333333286,
          "durationTicks": 89,
          "midi": 54,
          "name": "F#3",
          "ticks": 5258,
          "time": 54.770833333333336,
          "velocity": 0.6929133858267716
        },
        {
          "duration": 0.1041666666666714,
          "durationTicks": 10,
          "midi": 53,
          "name": "F3",
          "ticks": 5269,
          "time": 54.885416666666664,
          "velocity": 0.6299212598425197
        },
        {
          "duration": 0.1979166666666714,
          "durationTicks": 19,
          "midi": 53,
          "name": "F3",
          "ticks": 5281,
          "time": 55.010416666666664,
          "velocity": 0.6929133858267716
        },
        {
          "duration": 0.1875,
          "durationTicks": 18,
          "midi": 44,
          "name": "G#2",
          "ticks": 5282,
          "time": 55.020833333333336,
          "velocity": 0.6299212598425197
        },
        {
          "duration": 0.1875,
          "durationTicks": 18,
          "midi": 49,
          "name": "C#3",
          "ticks": 5282,
          "time": 55.020833333333336,
          "velocity": 0.6299212598425197
        },
        {
          "duration": 3.1666666666666643,
          "durationTicks": 304,
          "midi": 56,
          "name": "G#3",
          "ticks": 5282,
          "time": 55.020833333333336,
          "velocity": 0.6929133858267716
        },
        {
          "duration": 0.8333333333333357,
          "durationTicks": 80,
          "midi": 54,
          "name": "F#3",
          "ticks": 5295,
          "time": 55.15625,
          "velocity": 0.6299212598425197
        },
        {
          "duration": 0.09375,
          "durationTicks": 9,
          "midi": 53,
          "name": "F3",
          "ticks": 5307,
          "time": 55.28125,
          "velocity": 0.6929133858267716
        },
        {
          "duration": 0.3020833333333286,
          "durationTicks": 29,
          "midi": 44,
          "name": "G#2",
          "ticks": 5318,
          "time": 55.395833333333336,
          "velocity": 0.6299212598425197
        },
        {
          "duration": 0.3020833333333286,
          "durationTicks": 29,
          "midi": 49,
          "name": "C#3",
          "ticks": 5318,
          "time": 55.395833333333336,
          "velocity": 0.6299212598425197
        },
        {
          "duration": 0.3645833333333357,
          "durationTicks": 35,
          "midi": 53,
          "name": "F3",
          "ticks": 5319,
          "time": 55.40625,
          "velocity": 0.6299212598425197
        },
        {
          "duration": 0.2604166666666643,
          "durationTicks": 25,
          "midi": 58,
          "name": "A#3",
          "ticks": 5322,
          "time": 55.4375,
          "velocity": 0.6929133858267716
        },
        {
          "duration": 24.42708333333333,
          "durationTicks": 2345,
          "midi": 54,
          "name": "F#3",
          "ticks": 5334,
          "time": 55.5625,
          "velocity": 0.6299212598425197
        },
        {
          "duration": 0.2083333333333357,
          "durationTicks": 20,
          "midi": 53,
          "name": "F3",
          "ticks": 5346,
          "time": 55.6875,
          "velocity": 0.6299212598425197
        },
        {
          "duration": 0.1666666666666643,
          "durationTicks": 16,
          "midi": 49,
          "name": "C#3",
          "ticks": 5357,
          "time": 55.802083333333336,
          "velocity": 0.6929133858267716
        },
        {
          "duration": 0.1458333333333357,
          "durationTicks": 14,
          "midi": 44,
          "name": "G#2",
          "ticks": 5359,
          "time": 55.822916666666664,
          "velocity": 0.5669291338582677
        },
        {
          "duration": 0.65625,
          "durationTicks": 63,
          "midi": 53,
          "name": "F3",
          "ticks": 5360,
          "time": 55.833333333333336,
          "velocity": 0.6299212598425197
        },
        {
          "duration": 8.791666666666664,
          "durationTicks": 844,
          "midi": 60,
          "name": "C4",
          "ticks": 5360,
          "time": 55.833333333333336,
          "velocity": 0.6929133858267716
        },
        {
          "duration": 25.395833333333336,
          "durationTicks": 2438,
          "midi": 54,
          "name": "F#3",
          "ticks": 5371,
          "time": 55.947916666666664,
          "velocity": 0.5669291338582677
        },
        {
          "duration": 9.041666666666664,
          "durationTicks": 868,
          "midi": 60,
          "name": "C4",
          "ticks": 5381,
          "time": 56.052083333333336,
          "velocity": 0.6929133858267716
        },
        {
          "duration": 3.7604166666666643,
          "durationTicks": 361,
          "midi": 53,
          "name": "F3",
          "ticks": 5394,
          "time": 56.1875,
          "velocity": 0.6929133858267716
        },
        {
          "duration": 1.3125,
          "durationTicks": 126,
          "midi": 37,
          "name": "C#2",
          "ticks": 5395,
          "time": 56.197916666666664,
          "velocity": 0.6929133858267716
        },
        {
          "duration": 1.3125,
          "durationTicks": 126,
          "midi": 44,
          "name": "G#2",
          "ticks": 5395,
          "time": 56.197916666666664,
          "velocity": 0.6929133858267716
        },
        {
          "duration": 1.3125,
          "durationTicks": 126,
          "midi": 49,
          "name": "C#3",
          "ticks": 5395,
          "time": 56.197916666666664,
          "velocity": 0.7559055118110236
        },
        {
          "duration": 4.572916666666671,
          "durationTicks": 439,
          "midi": 61,
          "name": "C#4",
          "ticks": 5395,
          "time": 56.197916666666664,
          "velocity": 0.5669291338582677
        },
        {
          "duration": 3.625,
          "durationTicks": 348,
          "midi": 56,
          "name": "G#3",
          "ticks": 5407,
          "time": 56.322916666666664,
          "velocity": 0.5669291338582677
        },
        {
          "duration": 4.041666666666664,
          "durationTicks": 388,
          "midi": 53,
          "name": "F3",
          "ticks": 5417,
          "time": 56.427083333333336,
          "velocity": 0.5669291338582677
        },
        {
          "duration": 8.145833333333329,
          "durationTicks": 782,
          "midi": 56,
          "name": "G#3",
          "ticks": 5433,
          "time": 56.59375,
          "velocity": 0.5669291338582677
        },
        {
          "duration": 11.302083333333329,
          "durationTicks": 1085,
          "midi": 60,
          "name": "C4",
          "ticks": 5445,
          "time": 56.71875,
          "velocity": 0.5669291338582677
        },
        {
          "duration": 4.479166666666664,
          "durationTicks": 430,
          "midi": 61,
          "name": "C#4",
          "ticks": 5457,
          "time": 56.84375,
          "velocity": 0.5669291338582677
        },
        {
          "duration": 3.5104166666666643,
          "durationTicks": 337,
          "midi": 65,
          "name": "F4",
          "ticks": 5468,
          "time": 56.958333333333336,
          "velocity": 0.5669291338582677
        },
        {
          "duration": 5.635416666666664,
          "durationTicks": 541,
          "midi": 68,
          "name": "G#4",
          "ticks": 5481,
          "time": 57.09375,
          "velocity": 0.3779527559055118
        },
        {
          "duration": 0.0416666666666643,
          "durationTicks": 4,
          "midi": 73,
          "name": "C#5",
          "ticks": 5492,
          "time": 57.208333333333336,
          "velocity": 0.6299212598425197
        },
        {
          "duration": 0.1666666666666643,
          "durationTicks": 16,
          "midi": 77,
          "name": "F5",
          "ticks": 5505,
          "time": 57.34375,
          "velocity": 0.5669291338582677
        },
        {
          "duration": 0.71875,
          "durationTicks": 69,
          "midi": 80,
          "name": "G#5",
          "ticks": 5517,
          "time": 57.46875,
          "velocity": 0.6299212598425197
        },
        {
          "duration": 0.041666666666671404,
          "durationTicks": 4,
          "midi": 85,
          "name": "C#6",
          "ticks": 5530,
          "time": 57.604166666666664,
          "velocity": 0.6299212598425197
        },
        {
          "duration": 0.052083333333328596,
          "durationTicks": 5,
          "midi": 73,
          "name": "C#5",
          "ticks": 5531,
          "time": 57.614583333333336,
          "velocity": 0.6299212598425197
        },
        {
          "duration": 0.125,
          "durationTicks": 12,
          "midi": 49,
          "name": "C#3",
          "ticks": 5574,
          "time": 58.0625,
          "velocity": 0.5039370078740157
        },
        {
          "duration": 7.989583333333329,
          "durationTicks": 767,
          "midi": 56,
          "name": "G#3",
          "ticks": 5574,
          "time": 58.0625,
          "velocity": 0.5039370078740157
        },
        {
          "duration": 0.4895833333333357,
          "durationTicks": 47,
          "midi": 80,
          "name": "G#5",
          "ticks": 5574,
          "time": 58.0625,
          "velocity": 0.6299212598425197
        },
        {
          "duration": 0.041666666666671404,
          "durationTicks": 4,
          "midi": 73,
          "name": "C#5",
          "ticks": 5575,
          "time": 58.072916666666664,
          "velocity": 0.6299212598425197
        },
        {
          "duration": 0.0625,
          "durationTicks": 6,
          "midi": 77,
          "name": "F5",
          "ticks": 5575,
          "time": 58.072916666666664,
          "velocity": 0.5039370078740157
        },
        {
          "duration": 0.0729166666666643,
          "durationTicks": 7,
          "midi": 73,
          "name": "C#5",
          "ticks": 5615,
          "time": 58.489583333333336,
          "velocity": 0.6299212598425197
        },
        {
          "duration": 0.1041666666666643,
          "durationTicks": 10,
          "midi": 77,
          "name": "F5",
          "ticks": 5615,
          "time": 58.489583333333336,
          "velocity": 0.5669291338582677
        },
        {
          "duration": 0.09375,
          "durationTicks": 9,
          "midi": 85,
          "name": "C#6",
          "ticks": 5615,
          "time": 58.489583333333336,
          "velocity": 0.6929133858267716
        },
        {
          "duration": 0.0729166666666643,
          "durationTicks": 7,
          "midi": 37,
          "name": "C#2",
          "ticks": 5616,
          "time": 58.5,
          "velocity": 0.5039370078740157
        },
        {
          "duration": 0.0833333333333357,
          "durationTicks": 8,
          "midi": 44,
          "name": "G#2",
          "ticks": 5616,
          "time": 58.5,
          "velocity": 0.5039370078740157
        },
        {
          "duration": 5.677083333333329,
          "durationTicks": 545,
          "midi": 80,
          "name": "G#5",
          "ticks": 5616,
          "time": 58.5,
          "velocity": 0.5669291338582677
        },
        {
          "duration": 4.125,
          "durationTicks": 396,
          "midi": 68,
          "name": "G#4",
          "ticks": 5660,
          "time": 58.958333333333336,
          "velocity": 0.5669291338582677
        },
        {
          "duration": 7.666666666666664,
          "durationTicks": 736,
          "midi": 70,
          "name": "A#4",
          "ticks": 5671,
          "time": 59.072916666666664,
          "velocity": 0.6299212598425197
        },
        {
          "duration": 5.729166666666671,
          "durationTicks": 550,
          "midi": 72,
          "name": "C5",
          "ticks": 5682,
          "time": 59.1875,
          "velocity": 0.6299212598425197
        },
        {
          "duration": 0.0625,
          "durationTicks": 6,
          "midi": 49,
          "name": "C#3",
          "ticks": 5694,
          "time": 59.3125,
          "velocity": 0.5039370078740157
        },
        {
          "duration": 0.28125,
          "durationTicks": 27,
          "midi": 73,
          "name": "C#5",
          "ticks": 5695,
          "time": 59.322916666666664,
          "velocity": 0.6929133858267716
        },
        {
          "duration": 0.1666666666666643,
          "durationTicks": 16,
          "midi": 77,
          "name": "F5",
          "ticks": 5706,
          "time": 59.4375,
          "velocity": 0.6929133858267716
        },
        {
          "duration": 1.8125,
          "durationTicks": 174,
          "midi": 75,
          "name": "D#5",
          "ticks": 5718,
          "time": 59.5625,
          "velocity": 0.6299212598425197
        },
        {
          "duration": 0.2291666666666643,
          "durationTicks": 22,
          "midi": 73,
          "name": "C#5",
          "ticks": 5733,
          "time": 59.71875,
          "velocity": 0.6299212598425197
        },
        {
          "duration": 2.5729166666666714,
          "durationTicks": 247,
          "midi": 61,
          "name": "C#4",
          "ticks": 5734,
          "time": 59.729166666666664,
          "velocity": 0.4409448818897638
        },
        {
          "duration": 1.7708333333333357,
          "durationTicks": 170,
          "midi": 53,
          "name": "F3",
          "ticks": 5736,
          "time": 59.75,
          "velocity": 0.3779527559055118
        },
        {
          "duration": 8.270833333333329,
          "durationTicks": 794,
          "midi": 56,
          "name": "G#3",
          "ticks": 5736,
          "time": 59.75,
          "velocity": 0.4409448818897638
        },
        {
          "duration": 4.906249999999993,
          "durationTicks": 471,
          "midi": 68,
          "name": "G#4",
          "ticks": 5744,
          "time": 59.833333333333336,
          "velocity": 0.6299212598425197
        },
        {
          "duration": 0.8229166666666714,
          "durationTicks": 79,
          "midi": 65,
          "name": "F4",
          "ticks": 5755,
          "time": 59.947916666666664,
          "velocity": 0.6299212598425197
        },
        {
          "duration": 6.270833333333329,
          "durationTicks": 602,
          "midi": 53,
          "name": "F3",
          "ticks": 5769,
          "time": 60.09375,
          "velocity": 0.5669291338582677
        },
        {
          "duration": 4.989583333333336,
          "durationTicks": 479,
          "midi": 68,
          "name": "G#4",
          "ticks": 5770,
          "time": 60.104166666666664,
          "velocity": 0.6299212598425197
        },
        {
          "duration": 0.7083333333333286,
          "durationTicks": 68,
          "midi": 65,
          "name": "F4",
          "ticks": 5780,
          "time": 60.208333333333336,
          "velocity": 0.6299212598425197
        },
        {
          "duration": 2.75,
          "durationTicks": 264,
          "midi": 61,
          "name": "C#4",
          "ticks": 5792,
          "time": 60.333333333333336,
          "velocity": 0.5039370078740157
        },
        {
          "duration": 0.0729166666666643,
          "durationTicks": 7,
          "midi": 48,
          "name": "C3",
          "ticks": 5804,
          "time": 60.458333333333336,
          "velocity": 0.5669291338582677
        },
        {
          "duration": 4.15625,
          "durationTicks": 399,
          "midi": 63,
          "name": "D#4",
          "ticks": 5805,
          "time": 60.46875,
          "velocity": 0.5669291338582677
        },
        {
          "duration": 1.75,
          "durationTicks": 168,
          "midi": 65,
          "name": "F4",
          "ticks": 5813,
          "time": 60.552083333333336,
          "velocity": 0.5669291338582677
        },
        {
          "duration": 4.447916666666664,
          "durationTicks": 427,
          "midi": 63,
          "name": "D#4",
          "ticks": 5821,
          "time": 60.635416666666664,
          "velocity": 0.5669291338582677
        },
        {
          "duration": 2.96875,
          "durationTicks": 285,
          "midi": 61,
          "name": "C#4",
          "ticks": 5827,
          "time": 60.697916666666664,
          "velocity": 0.5669291338582677
        },
        {
          "duration": 6.385416666666671,
          "durationTicks": 613,
          "midi": 63,
          "name": "D#4",
          "ticks": 5832,
          "time": 60.75,
          "velocity": 0.5669291338582677
        },
        {
          "duration": 0.1145833333333286,
          "durationTicks": 11,
          "midi": 46,
          "name": "A#2",
          "ticks": 5840,
          "time": 60.833333333333336,
          "velocity": 0.5039370078740157
        },
        {
          "duration": 1.875,
          "durationTicks": 180,
          "midi": 65,
          "name": "F4",
          "ticks": 5842,
          "time": 60.854166666666664,
          "velocity": 0.6929133858267716
        },
        {
          "duration": 0.1354166666666643,
          "durationTicks": 13,
          "midi": 77,
          "name": "F5",
          "ticks": 5870,
          "time": 61.145833333333336,
          "velocity": 0.6299212598425197
        },
        {
          "duration": 4.802083333333329,
          "durationTicks": 461,
          "midi": 61,
          "name": "C#4",
          "ticks": 5880,
          "time": 61.25,
          "velocity": 0.4409448818897638
        },
        {
          "duration": 8.166666666666664,
          "durationTicks": 784,
          "midi": 53,
          "name": "F3",
          "ticks": 5881,
          "time": 61.260416666666664,
          "velocity": 0.5039370078740157
        },
        {
          "duration": 2.1979166666666714,
          "durationTicks": 211,
          "midi": 75,
          "name": "D#5",
          "ticks": 5881,
          "time": 61.260416666666664,
          "velocity": 0.6299212598425197
        },
        {
          "duration": 0.0729166666666643,
          "durationTicks": 7,
          "midi": 58,
          "name": "A#3",
          "ticks": 5882,
          "time": 61.270833333333336,
          "velocity": 0.31496062992125984
        },
        {
          "duration": 0.1458333333333357,
          "durationTicks": 14,
          "midi": 73,
          "name": "C#5",
          "ticks": 5892,
          "time": 61.375,
          "velocity": 0.5669291338582677
        },
        {
          "duration": 4.562499999999993,
          "durationTicks": 438,
          "midi": 72,
          "name": "C5",
          "ticks": 5903,
          "time": 61.489583333333336,
          "velocity": 0.5039370078740157
        },
        {
          "duration": 0.1145833333333357,
          "durationTicks": 11,
          "midi": 49,
          "name": "C#3",
          "ticks": 5917,
          "time": 61.635416666666664,
          "velocity": 0.5669291338582677
        },
        {
          "duration": 5.895833333333336,
          "durationTicks": 566,
          "midi": 70,
          "name": "A#4",
          "ticks": 5917,
          "time": 61.635416666666664,
          "velocity": 0.5669291338582677
        },
        {
          "duration": 0.1145833333333357,
          "durationTicks": 11,
          "midi": 73,
          "name": "C#5",
          "ticks": 5928,
          "time": 61.75,
          "velocity": 0.6299212598425197
        },
        {
          "duration": 4.541666666666664,
          "durationTicks": 436,
          "midi": 72,
          "name": "C5",
          "ticks": 5939,
          "time": 61.864583333333336,
          "velocity": 0.5669291338582677
        },
        {
          "duration": 0.28125,
          "durationTicks": 27,
          "midi": 58,
          "name": "A#3",
          "ticks": 5954,
          "time": 62.020833333333336,
          "velocity": 0.4409448818897638
        },
        {
          "duration": 4.031249999999993,
          "durationTicks": 387,
          "midi": 65,
          "name": "F4",
          "ticks": 5954,
          "time": 62.020833333333336,
          "velocity": 0.4409448818897638
        },
        {
          "duration": 6.562499999999993,
          "durationTicks": 630,
          "midi": 70,
          "name": "A#4",
          "ticks": 5954,
          "time": 62.020833333333336,
          "velocity": 0.6929133858267716
        },
        {
          "duration": 4.697916666666664,
          "durationTicks": 451,
          "midi": 61,
          "name": "C#4",
          "ticks": 5956,
          "time": 62.041666666666664,
          "velocity": 0.3779527559055118
        },
        {
          "duration": 4.604166666666664,
          "durationTicks": 442,
          "midi": 65,
          "name": "F4",
          "ticks": 5965,
          "time": 62.135416666666664,
          "velocity": 0.5669291338582677
        },
        {
          "duration": 4.885416666666671,
          "durationTicks": 469,
          "midi": 68,
          "name": "G#4",
          "ticks": 5976,
          "time": 62.25,
          "velocity": 0.6299212598425197
        },
        {
          "duration": 12.281249999999993,
          "durationTicks": 1179,
          "midi": 51,
          "name": "D#3",
          "ticks": 5990,
          "time": 62.395833333333336,
          "velocity": 0.5039370078740157
        },
        {
          "duration": 0.03125,
          "durationTicks": 3,
          "midi": 67,
          "name": "G4",
          "ticks": 5991,
          "time": 62.40625,
          "velocity": 0.6299212598425197
        },
        {
          "duration": 4.979166666666664,
          "durationTicks": 478,
          "midi": 68,
          "name": "G#4",
          "ticks": 5996,
          "time": 62.458333333333336,
          "velocity": 0.5039370078740157
        },
        {
          "duration": 0.1979166666666643,
          "durationTicks": 19,
          "midi": 67,
          "name": "G4",
          "ticks": 6003,
          "time": 62.53125,
          "velocity": 0.6929133858267716
        },
        {
          "duration": 4.489583333333336,
          "durationTicks": 431,
          "midi": 65,
          "name": "F4",
          "ticks": 6014,
          "time": 62.645833333333336,
          "velocity": 0.6299212598425197
        },
        {
          "duration": 0.3125,
          "durationTicks": 30,
          "midi": 67,
          "name": "G4",
          "ticks": 6026,
          "time": 62.770833333333336,
          "velocity": 0.6929133858267716
        },
        {
          "duration": 0.2708333333333357,
          "durationTicks": 26,
          "midi": 58,
          "name": "A#3",
          "ticks": 6030,
          "time": 62.8125,
          "velocity": 0.4409448818897638
        },
        {
          "duration": 4.427083333333329,
          "durationTicks": 425,
          "midi": 61,
          "name": "C#4",
          "ticks": 6030,
          "time": 62.8125,
          "velocity": 0.3779527559055118
        },
        {
          "duration": 6.604166666666664,
          "durationTicks": 634,
          "midi": 63,
          "name": "D#4",
          "ticks": 6031,
          "time": 62.822916666666664,
          "velocity": 0.4409448818897638
        },
        {
          "duration": 6.052083333333336,
          "durationTicks": 581,
          "midi": 68,
          "name": "G#4",
          "ticks": 6040,
          "time": 62.916666666666664,
          "velocity": 0.5669291338582677
        },
        {
          "duration": 6.739583333333336,
          "durationTicks": 647,
          "midi": 70,
          "name": "A#4",
          "ticks": 6050,
          "time": 63.020833333333336,
          "velocity": 0.6299212598425197
        },
        {
          "duration": 12.09375,
          "durationTicks": 1161,
          "midi": 51,
          "name": "D#3",
          "ticks": 6063,
          "time": 63.15625,
          "velocity": 0.5039370078740157
        },
        {
          "duration": 4.520833333333329,
          "durationTicks": 434,
          "midi": 72,
          "name": "C5",
          "ticks": 6063,
          "time": 63.15625,
          "velocity": 0.5669291338582677
        },
        {
          "duration": 0.0729166666666643,
          "durationTicks": 7,
          "midi": 73,
          "name": "C#5",
          "ticks": 6074,
          "time": 63.270833333333336,
          "velocity": 0.6299212598425197
        },
        {
          "duration": 1.2291666666666643,
          "durationTicks": 118,
          "midi": 75,
          "name": "D#5",
          "ticks": 6086,
          "time": 63.395833333333336,
          "velocity": 0.5039370078740157
        },
        {
          "duration": 0.1354166666666714,
          "durationTicks": 13,
          "midi": 58,
          "name": "A#3",
          "ticks": 6100,
          "time": 63.541666666666664,
          "velocity": 0.4409448818897638
        },
        {
          "duration": 0.041666666666671404,
          "durationTicks": 4,
          "midi": 76,
          "name": "E5",
          "ticks": 6100,
          "time": 63.541666666666664,
          "velocity": 0.6299212598425197
        },
        {
          "duration": 0.0833333333333357,
          "durationTicks": 8,
          "midi": 67,
          "name": "G4",
          "ticks": 6102,
          "time": 63.5625,
          "velocity": 0.31496062992125984
        },
        {
          "duration": 5.395833333333336,
          "durationTicks": 518,
          "midi": 61,
          "name": "C#4",
          "ticks": 6103,
          "time": 63.572916666666664,
          "velocity": 0.31496062992125984
        },
        {
          "duration": 11.250000000000007,
          "durationTicks": 1080,
          "midi": 63,
          "name": "D#4",
          "ticks": 6103,
          "time": 63.572916666666664,
          "velocity": 0.31496062992125984
        },
        {
          "duration": 0.0729166666666643,
          "durationTicks": 7,
          "midi": 77,
          "name": "F5",
          "ticks": 6111,
          "time": 63.65625,
          "velocity": 0.6299212598425197
        },
        {
          "duration": 0.1041666666666714,
          "durationTicks": 10,
          "midi": 78,
          "name": "F#5",
          "ticks": 6121,
          "time": 63.760416666666664,
          "velocity": 0.6929133858267716
        },
        {
          "duration": 0.041666666666671404,
          "durationTicks": 4,
          "midi": 44,
          "name": "G#2",
          "ticks": 6130,
          "time": 63.854166666666664,
          "velocity": 0.5039370078740157
        },
        {
          "duration": 0.2812499999999929,
          "durationTicks": 27,
          "midi": 79,
          "name": "G5",
          "ticks": 6134,
          "time": 63.895833333333336,
          "velocity": 0.7559055118110236
        },
        {
          "duration": 0.1666666666666572,
          "durationTicks": 16,
          "midi": 82,
          "name": "A#5",
          "ticks": 6145,
          "time": 64.01041666666667,
          "velocity": 0.6929133858267716
        },
        {
          "duration": 1.5,
          "durationTicks": 144,
          "midi": 80,
          "name": "G#5",
          "ticks": 6156,
          "time": 64.125,
          "velocity": 0.6929133858267716
        },
        {
          "duration": 0.3645833333333286,
          "durationTicks": 35,
          "midi": 66,
          "name": "F#4",
          "ticks": 6169,
          "time": 64.26041666666667,
          "velocity": 0.3779527559055118
        },
        {
          "duration": 0.3645833333333286,
          "durationTicks": 35,
          "midi": 78,
          "name": "F#5",
          "ticks": 6169,
          "time": 64.26041666666667,
          "velocity": 0.6929133858267716
        },
        {
          "duration": 5.90625,
          "durationTicks": 567,
          "midi": 60,
          "name": "C4",
          "ticks": 6171,
          "time": 64.28125,
          "velocity": 0.4409448818897638
        },
        {
          "duration": 12.770833333333329,
          "durationTicks": 1226,
          "midi": 63,
          "name": "D#4",
          "ticks": 6171,
          "time": 64.28125,
          "velocity": 0.31496062992125984
        },
        {
          "duration": 0.8958333333333286,
          "durationTicks": 86,
          "midi": 75,
          "name": "D#5",
          "ticks": 6180,
          "time": 64.375,
          "velocity": 0.6929133858267716
        },
        {
          "duration": 4.083333333333329,
          "durationTicks": 392,
          "midi": 72,
          "name": "C5",
          "ticks": 6192,
          "time": 64.5,
          "velocity": 0.6299212598425197
        },
        {
          "duration": 4.364583333333329,
          "durationTicks": 419,
          "midi": 56,
          "name": "G#3",
          "ticks": 6202,
          "time": 64.60416666666667,
          "velocity": 0.5039370078740157
        },
        {
          "duration": 5.041666666666671,
          "durationTicks": 484,
          "midi": 68,
          "name": "G#4",
          "ticks": 6204,
          "time": 64.625,
          "velocity": 0.5669291338582677
        },
        {
          "duration": 6.03125,
          "durationTicks": 579,
          "midi": 70,
          "name": "A#4",
          "ticks": 6215,
          "time": 64.73958333333333,
          "velocity": 0.6299212598425197
        },
        {
          "duration": 5,
          "durationTicks": 480,
          "midi": 72,
          "name": "C5",
          "ticks": 6225,
          "time": 64.84375,
          "velocity": 0.5669291338582677
        },
        {
          "duration": 0.09375,
          "durationTicks": 9,
          "midi": 73,
          "name": "C#5",
          "ticks": 6239,
          "time": 64.98958333333333,
          "velocity": 0.6299212598425197
        },
        {
          "duration": 6.614583333333329,
          "durationTicks": 635,
          "midi": 60,
          "name": "C4",
          "ticks": 6240,
          "time": 65,
          "velocity": 0.5039370078740157
        },
        {
          "duration": 11.229166666666657,
          "durationTicks": 1078,
          "midi": 68,
          "name": "G#4",
          "ticks": 6241,
          "time": 65.01041666666667,
          "velocity": 0.31496062992125984
        },
        {
          "duration": 13.239583333333329,
          "durationTicks": 1271,
          "midi": 63,
          "name": "D#4",
          "ticks": 6244,
          "time": 65.04166666666667,
          "velocity": 0.31496062992125984
        },
        {
          "duration": 2.9375,
          "durationTicks": 282,
          "midi": 75,
          "name": "D#5",
          "ticks": 6252,
          "time": 65.125,
          "velocity": 0.5669291338582677
        },
        {
          "duration": 0.0833333333333286,
          "durationTicks": 8,
          "midi": 76,
          "name": "E5",
          "ticks": 6262,
          "time": 65.22916666666667,
          "velocity": 0.6299212598425197
        },
        {
          "duration": 0.28125,
          "durationTicks": 27,
          "midi": 49,
          "name": "C#3",
          "ticks": 6273,
          "time": 65.34375,
          "velocity": 0.4409448818897638
        },
        {
          "duration": 0.2604166666666714,
          "durationTicks": 25,
          "midi": 77,
          "name": "F5",
          "ticks": 6275,
          "time": 65.36458333333333,
          "velocity": 0.6299212598425197
        },
        {
          "duration": 21.39583333333333,
          "durationTicks": 2054,
          "midi": 80,
          "name": "G#5",
          "ticks": 6286,
          "time": 65.47916666666667,
          "velocity": 0.5039370078740157
        },
        {
          "duration": 0.03125,
          "durationTicks": 3,
          "midi": 78,
          "name": "F#5",
          "ticks": 6297,
          "time": 65.59375,
          "velocity": 0.6299212598425197
        },
        {
          "duration": 3.6875,
          "durationTicks": 354,
          "midi": 61,
          "name": "C#4",
          "ticks": 6314,
          "time": 65.77083333333333,
          "velocity": 0.4409448818897638
        },
        {
          "duration": 0.28125,
          "durationTicks": 27,
          "midi": 77,
          "name": "F5",
          "ticks": 6314,
          "time": 65.77083333333333,
          "velocity": 0.6299212598425197
        },
        {
          "duration": 11.1875,
          "durationTicks": 1074,
          "midi": 56,
          "name": "G#3",
          "ticks": 6315,
          "time": 65.78125,
          "velocity": 0.4409448818897638
        },
        {
          "duration": 3.15625,
          "durationTicks": 303,
          "midi": 65,
          "name": "F4",
          "ticks": 6318,
          "time": 65.8125,
          "velocity": 0.31496062992125984
        },
        {
          "duration": 0.1666666666666572,
          "durationTicks": 16,
          "midi": 73,
          "name": "C#5",
          "ticks": 6325,
          "time": 65.88541666666667,
          "velocity": 0.5669291338582677
        },
        {
          "duration": 4.760416666666657,
          "durationTicks": 457,
          "midi": 72,
          "name": "C5",
          "ticks": 6337,
          "time": 66.01041666666667,
          "velocity": 0.4409448818897638
        },
        {
          "duration": 13.875,
          "durationTicks": 1332,
          "midi": 53,
          "name": "F3",
          "ticks": 6347,
          "time": 66.11458333333333,
          "velocity": 0.5039370078740157
        },
        {
          "duration": 6.166666666666671,
          "durationTicks": 592,
          "midi": 70,
          "name": "A#4",
          "ticks": 6348,
          "time": 66.125,
          "velocity": 0.5669291338582677
        },
        {
          "duration": 0.1145833333333286,
          "durationTicks": 11,
          "midi": 73,
          "name": "C#5",
          "ticks": 6360,
          "time": 66.25,
          "velocity": 0.6299212598425197
        },
        {
          "duration": 4.9375,
          "durationTicks": 474,
          "midi": 72,
          "name": "C5",
          "ticks": 6371,
          "time": 66.36458333333333,
          "velocity": 0.5669291338582677
        },
        {
          "duration": 4.739583333333329,
          "durationTicks": 455,
          "midi": 61,
          "name": "C#4",
          "ticks": 6381,
          "time": 66.46875,
          "velocity": 0.5039370078740157
        },
        {
          "duration": 2.9375,
          "durationTicks": 282,
          "midi": 65,
          "name": "F4",
          "ticks": 6383,
          "time": 66.48958333333333,
          "velocity": 0.5039370078740157
        },
        {
          "duration": 6.479166666666671,
          "durationTicks": 622,
          "midi": 70,
          "name": "A#4",
          "ticks": 6383,
          "time": 66.48958333333333,
          "velocity": 0.6929133858267716
        },
        {
          "duration": 0.2395833333333286,
          "durationTicks": 23,
          "midi": 58,
          "name": "A#3",
          "ticks": 6384,
          "time": 66.5,
          "velocity": 0.5039370078740157
        },
        {
          "duration": 3.5625,
          "durationTicks": 342,
          "midi": 65,
          "name": "F4",
          "ticks": 6396,
          "time": 66.625,
          "velocity": 0.5669291338582677
        },
        {
          "duration": 10.229166666666671,
          "durationTicks": 982,
          "midi": 68,
          "name": "G#4",
          "ticks": 6407,
          "time": 66.73958333333333,
          "velocity": 0.6299212598425197
        },
        {
          "duration": 13.135416666666657,
          "durationTicks": 1261,
          "midi": 51,
          "name": "D#3",
          "ticks": 6418,
          "time": 66.85416666666667,
          "velocity": 0.6299212598425197
        },
        {
          "duration": 0.2708333333333428,
          "durationTicks": 26,
          "midi": 67,
          "name": "G4",
          "ticks": 6419,
          "time": 66.86458333333333,
          "velocity": 0.6299212598425197
        },
        {
          "duration": 12.302083333333329,
          "durationTicks": 1181,
          "midi": 63,
          "name": "D#4",
          "ticks": 6430,
          "time": 66.97916666666667,
          "velocity": 0.6299212598425197
        },
        {
          "duration": 4.114583333333329,
          "durationTicks": 395,
          "midi": 65,
          "name": "F4",
          "ticks": 6441,
          "time": 67.09375,
          "velocity": 0.5669291338582677
        },
        {
          "duration": 0.0625,
          "durationTicks": 6,
          "midi": 58,
          "name": "A#3",
          "ticks": 6451,
          "time": 67.19791666666667,
          "velocity": 0.5039370078740157
        },
        {
          "duration": 5.604166666666657,
          "durationTicks": 538,
          "midi": 61,
          "name": "C#4",
          "ticks": 6451,
          "time": 67.19791666666667,
          "velocity": 0.5039370078740157
        },
        {
          "duration": 0.0729166666666714,
          "durationTicks": 7,
          "midi": 67,
          "name": "G4",
          "ticks": 6452,
          "time": 67.20833333333333,
          "velocity": 0.6299212598425197
        },
        {
          "duration": 9.875,
          "durationTicks": 948,
          "midi": 68,
          "name": "G#4",
          "ticks": 6463,
          "time": 67.32291666666667,
          "velocity": 0.6299212598425197
        },
        {
          "duration": 5.8125,
          "durationTicks": 558,
          "midi": 70,
          "name": "A#4",
          "ticks": 6474,
          "time": 67.4375,
          "velocity": 0.6299212598425197
        },
        {
          "duration": 0.052083333333328596,
          "durationTicks": 5,
          "midi": 44,
          "name": "G#2",
          "ticks": 6486,
          "time": 67.5625,
          "velocity": 0.5669291338582677
        },
        {
          "duration": 4.708333333333343,
          "durationTicks": 452,
          "midi": 72,
          "name": "C5",
          "ticks": 6488,
          "time": 67.58333333333333,
          "velocity": 0.6299212598425197
        },
        {
          "duration": 0.3333333333333286,
          "durationTicks": 32,
          "midi": 73,
          "name": "C#5",
          "ticks": 6498,
          "time": 67.6875,
          "velocity": 0.6929133858267716
        },
        {
          "duration": 0.2083333333333286,
          "durationTicks": 20,
          "midi": 74,
          "name": "D5",
          "ticks": 6510,
          "time": 67.8125,
          "velocity": 0.6299212598425197
        },
        {
          "duration": 0.09375,
          "durationTicks": 9,
          "midi": 66,
          "name": "F#4",
          "ticks": 6521,
          "time": 67.92708333333333,
          "velocity": 0.5039370078740157
        },
        {
          "duration": 9.03125,
          "durationTicks": 867,
          "midi": 60,
          "name": "C4",
          "ticks": 6522,
          "time": 67.9375,
          "velocity": 0.5039370078740157
        },
        {
          "duration": 9.197916666666671,
          "durationTicks": 883,
          "midi": 56,
          "name": "G#3",
          "ticks": 6524,
          "time": 67.95833333333333,
          "velocity": 0.4409448818897638
        },
        {
          "duration": 0.34375,
          "durationTicks": 33,
          "midi": 75,
          "name": "D#5",
          "ticks": 6524,
          "time": 67.95833333333333,
          "velocity": 0.7559055118110236
        },
        {
          "duration": 0.1875,
          "durationTicks": 18,
          "midi": 77,
          "name": "F5",
          "ticks": 6534,
          "time": 68.0625,
          "velocity": 0.6299212598425197
        },
        {
          "duration": 2,
          "durationTicks": 192,
          "midi": 75,
          "name": "D#5",
          "ticks": 6546,
          "time": 68.1875,
          "velocity": 0.5039370078740157
        },
        {
          "duration": 0.052083333333328596,
          "durationTicks": 5,
          "midi": 37,
          "name": "C#2",
          "ticks": 6556,
          "time": 68.29166666666667,
          "velocity": 0.5039370078740157
        },
        {
          "duration": 0.2604166666666572,
          "durationTicks": 25,
          "midi": 73,
          "name": "C#5",
          "ticks": 6559,
          "time": 68.32291666666667,
          "velocity": 0.6299212598425197
        },
        {
          "duration": 4.364583333333329,
          "durationTicks": 419,
          "midi": 72,
          "name": "C5",
          "ticks": 6570,
          "time": 68.4375,
          "velocity": 0.6299212598425197
        },
        {
          "duration": 5.09375,
          "durationTicks": 489,
          "midi": 70,
          "name": "A#4",
          "ticks": 6580,
          "time": 68.54166666666667,
          "velocity": 0.6929133858267716
        },
        {
          "duration": 6.15625,
          "durationTicks": 591,
          "midi": 61,
          "name": "C#4",
          "ticks": 6594,
          "time": 68.6875,
          "velocity": 0.5039370078740157
        },
        {
          "duration": 2.9166666666666714,
          "durationTicks": 280,
          "midi": 65,
          "name": "F4",
          "ticks": 6594,
          "time": 68.6875,
          "velocity": 0.6299212598425197
        },
        {
          "duration": 8.729166666666671,
          "durationTicks": 838,
          "midi": 68,
          "name": "G#4",
          "ticks": 6594,
          "time": 68.6875,
          "velocity": 0.6299212598425197
        },
        {
          "duration": 9.21875,
          "durationTicks": 885,
          "midi": 56,
          "name": "G#3",
          "ticks": 6595,
          "time": 68.69791666666667,
          "velocity": 0.5039370078740157
        },
        {
          "duration": 0.15625,
          "durationTicks": 15,
          "midi": 66,
          "name": "F#4",
          "ticks": 6606,
          "time": 68.8125,
          "velocity": 0.5669291338582677
        },
        {
          "duration": 3.8958333333333286,
          "durationTicks": 374,
          "midi": 65,
          "name": "F4",
          "ticks": 6615,
          "time": 68.90625,
          "velocity": 0.6299212598425197
        },
        {
          "duration": 13.010416666666671,
          "durationTicks": 1249,
          "midi": 53,
          "name": "F3",
          "ticks": 6630,
          "time": 69.0625,
          "velocity": 0.5669291338582677
        },
        {
          "duration": 6.760416666666671,
          "durationTicks": 649,
          "midi": 61,
          "name": "C#4",
          "ticks": 6632,
          "time": 69.08333333333333,
          "velocity": 0.6299212598425197
        },
        {
          "duration": 10.8125,
          "durationTicks": 1038,
          "midi": 63,
          "name": "D#4",
          "ticks": 6641,
          "time": 69.17708333333333,
          "velocity": 0.6299212598425197
        },
        {
          "duration": 7.677083333333329,
          "durationTicks": 737,
          "midi": 65,
          "name": "F4",
          "ticks": 6652,
          "time": 69.29166666666667,
          "velocity": 0.5669291338582677
        },
        {
          "duration": 8.510416666666671,
          "durationTicks": 817,
          "midi": 61,
          "name": "C#4",
          "ticks": 6663,
          "time": 69.40625,
          "velocity": 0.5039370078740157
        },
        {
          "duration": 0.04166666666665719,
          "durationTicks": 4,
          "midi": 49,
          "name": "C#3",
          "ticks": 6664,
          "time": 69.41666666666667,
          "velocity": 0.5039370078740157
        },
        {
          "duration": 0.09375,
          "durationTicks": 9,
          "midi": 66,
          "name": "F#4",
          "ticks": 6665,
          "time": 69.42708333333333,
          "velocity": 0.6929133858267716
        },
        {
          "duration": 0.03125,
          "durationTicks": 3,
          "midi": 58,
          "name": "A#3",
          "ticks": 6666,
          "time": 69.4375,
          "velocity": 0.4409448818897638
        },
        {
          "duration": 8.239583333333329,
          "durationTicks": 791,
          "midi": 68,
          "name": "G#4",
          "ticks": 6676,
          "time": 69.54166666666667,
          "velocity": 0.5669291338582677
        },
        {
          "duration": 4.447916666666671,
          "durationTicks": 427,
          "midi": 70,
          "name": "A#4",
          "ticks": 6687,
          "time": 69.65625,
          "velocity": 0.5039370078740157
        },
        {
          "duration": 0.041666666666671404,
          "durationTicks": 4,
          "midi": 41,
          "name": "F2",
          "ticks": 6695,
          "time": 69.73958333333333,
          "velocity": 0.5039370078740157
        },
        {
          "duration": 3.291666666666657,
          "durationTicks": 316,
          "midi": 72,
          "name": "C5",
          "ticks": 6700,
          "time": 69.79166666666667,
          "velocity": 0.5039370078740157
        },
        {
          "duration": 0.2916666666666714,
          "durationTicks": 28,
          "midi": 73,
          "name": "C#5",
          "ticks": 6710,
          "time": 69.89583333333333,
          "velocity": 0.5039370078740157
        },
        {
          "duration": 1.5729166666666572,
          "durationTicks": 151,
          "midi": 75,
          "name": "D#5",
          "ticks": 6721,
          "time": 70.01041666666667,
          "velocity": 0.6299212598425197
        },
        {
          "duration": 7.447916666666671,
          "durationTicks": 715,
          "midi": 65,
          "name": "F4",
          "ticks": 6731,
          "time": 70.11458333333333,
          "velocity": 0.4409448818897638
        },
        {
          "duration": 7.041666666666671,
          "durationTicks": 676,
          "midi": 60,
          "name": "C4",
          "ticks": 6732,
          "time": 70.125,
          "velocity": 0.5669291338582677
        },
        {
          "duration": 0.1041666666666714,
          "durationTicks": 10,
          "midi": 77,
          "name": "F5",
          "ticks": 6732,
          "time": 70.125,
          "velocity": 0.6929133858267716
        },
        {
          "duration": 0.052083333333328596,
          "durationTicks": 5,
          "midi": 57,
          "name": "A3",
          "ticks": 6733,
          "time": 70.13541666666667,
          "velocity": 0.5669291338582677
        },
        {
          "duration": 0.21875,
          "durationTicks": 21,
          "midi": 78,
          "name": "F#5",
          "ticks": 6746,
          "time": 70.27083333333333,
          "velocity": 0.4409448818897638
        },
        {
          "duration": 0.15625,
          "durationTicks": 15,
          "midi": 77,
          "name": "F5",
          "ticks": 6752,
          "time": 70.33333333333333,
          "velocity": 0.5669291338582677
        },
        {
          "duration": 0.0625,
          "durationTicks": 6,
          "midi": 46,
          "name": "A#2",
          "ticks": 6767,
          "time": 70.48958333333333,
          "velocity": 0.5039370078740157
        },
        {
          "duration": 0.09375,
          "durationTicks": 9,
          "midi": 73,
          "name": "C#5",
          "ticks": 6767,
          "time": 70.48958333333333,
          "velocity": 0.6299212598425197
        },
        {
          "duration": 2.7604166666666714,
          "durationTicks": 265,
          "midi": 72,
          "name": "C5",
          "ticks": 6780,
          "time": 70.625,
          "velocity": 0.5669291338582677
        },
        {
          "duration": 3.9583333333333286,
          "durationTicks": 380,
          "midi": 70,
          "name": "A#4",
          "ticks": 6789,
          "time": 70.71875,
          "velocity": 0.6929133858267716
        },
        {
          "duration": 7.958333333333343,
          "durationTicks": 764,
          "midi": 61,
          "name": "C#4",
          "ticks": 6803,
          "time": 70.86458333333333,
          "velocity": 0.4409448818897638
        },
        {
          "duration": 0.3333333333333286,
          "durationTicks": 32,
          "midi": 58,
          "name": "A#3",
          "ticks": 6804,
          "time": 70.875,
          "velocity": 0.3779527559055118
        },
        {
          "duration": 7.0625,
          "durationTicks": 678,
          "midi": 65,
          "name": "F4",
          "ticks": 6804,
          "time": 70.875,
          "velocity": 0.6299212598425197
        },
        {
          "duration": 0.2291666666666572,
          "durationTicks": 22,
          "midi": 66,
          "name": "F#4",
          "ticks": 6814,
          "time": 70.97916666666667,
          "velocity": 0.6299212598425197
        },
        {
          "duration": 0.07291666666665719,
          "durationTicks": 7,
          "midi": 41,
          "name": "F2",
          "ticks": 6835,
          "time": 71.19791666666667,
          "velocity": 0.5669291338582677
        },
        {
          "duration": 2.625,
          "durationTicks": 252,
          "midi": 72,
          "name": "C5",
          "ticks": 6836,
          "time": 71.20833333333333,
          "velocity": 0.6929133858267716
        },
        {
          "duration": 0.2604166666666572,
          "durationTicks": 25,
          "midi": 73,
          "name": "C#5",
          "ticks": 6847,
          "time": 71.32291666666667,
          "velocity": 0.7559055118110236
        },
        {
          "duration": 1.375,
          "durationTicks": 132,
          "midi": 75,
          "name": "D#5",
          "ticks": 6857,
          "time": 71.42708333333333,
          "velocity": 0.6929133858267716
        },
        {
          "duration": 8.416666666666657,
          "durationTicks": 808,
          "midi": 60,
          "name": "C4",
          "ticks": 6871,
          "time": 71.57291666666667,
          "velocity": 0.5669291338582677
        },
        {
          "duration": 6.927083333333329,
          "durationTicks": 665,
          "midi": 65,
          "name": "F4",
          "ticks": 6871,
          "time": 71.57291666666667,
          "velocity": 0.5669291338582677
        },
        {
          "duration": 0.0833333333333286,
          "durationTicks": 8,
          "midi": 77,
          "name": "F5",
          "ticks": 6871,
          "time": 71.57291666666667,
          "velocity": 0.7559055118110236
        },
        {
          "duration": 0.03125,
          "durationTicks": 3,
          "midi": 57,
          "name": "A3",
          "ticks": 6872,
          "time": 71.58333333333333,
          "velocity": 0.5669291338582677
        },
        {
          "duration": 0.2291666666666714,
          "durationTicks": 22,
          "midi": 78,
          "name": "F#5",
          "ticks": 6881,
          "time": 71.67708333333333,
          "velocity": 0.6299212598425197
        },
        {
          "duration": 0.1458333333333286,
          "durationTicks": 14,
          "midi": 77,
          "name": "F5",
          "ticks": 6889,
          "time": 71.76041666666667,
          "velocity": 0.6299212598425197
        },
        {
          "duration": 0.05208333333334281,
          "durationTicks": 5,
          "midi": 46,
          "name": "A#2",
          "ticks": 6902,
          "time": 71.89583333333333,
          "velocity": 0.6299212598425197
        },
        {
          "duration": 0.1354166666666714,
          "durationTicks": 13,
          "midi": 73,
          "name": "C#5",
          "ticks": 6903,
          "time": 71.90625,
          "velocity": 0.6929133858267716
        },
        {
          "duration": 2.375,
          "durationTicks": 228,
          "midi": 72,
          "name": "C5",
          "ticks": 6913,
          "time": 72.01041666666667,
          "velocity": 0.7559055118110236
        },
        {
          "duration": 2.8020833333333286,
          "durationTicks": 269,
          "midi": 70,
          "name": "A#4",
          "ticks": 6922,
          "time": 72.10416666666667,
          "velocity": 0.7559055118110236
        },
        {
          "duration": 7.010416666666671,
          "durationTicks": 673,
          "midi": 65,
          "name": "F4",
          "ticks": 6938,
          "time": 72.27083333333333,
          "velocity": 0.6299212598425197
        },
        {
          "duration": 7.708333333333329,
          "durationTicks": 740,
          "midi": 61,
          "name": "C#4",
          "ticks": 6939,
          "time": 72.28125,
          "velocity": 0.6299212598425197
        },
        {
          "duration": 0.5104166666666572,
          "durationTicks": 49,
          "midi": 58,
          "name": "A#3",
          "ticks": 6940,
          "time": 72.29166666666667,
          "velocity": 0.5669291338582677
        },
        {
          "duration": 0.5104166666666572,
          "durationTicks": 49,
          "midi": 77,
          "name": "F5",
          "ticks": 6940,
          "time": 72.29166666666667,
          "velocity": 0.7559055118110236
        },
        {
          "duration": 3.4375,
          "durationTicks": 330,
          "midi": 75,
          "name": "D#5",
          "ticks": 6951,
          "time": 72.40625,
          "velocity": 0.6929133858267716
        },
        {
          "duration": 0.25,
          "durationTicks": 24,
          "midi": 73,
          "name": "C#5",
          "ticks": 6965,
          "time": 72.55208333333333,
          "velocity": 0.6929133858267716
        },
        {
          "duration": 1.9895833333333286,
          "durationTicks": 191,
          "midi": 72,
          "name": "C5",
          "ticks": 6978,
          "time": 72.6875,
          "velocity": 0.7559055118110236
        },
        {
          "duration": 2.46875,
          "durationTicks": 237,
          "midi": 70,
          "name": "A#4",
          "ticks": 6989,
          "time": 72.80208333333333,
          "velocity": 0.7559055118110236
        },
        {
          "duration": 2.0833333333333286,
          "durationTicks": 200,
          "midi": 72,
          "name": "C5",
          "ticks": 7002,
          "time": 72.9375,
          "velocity": 0.7559055118110236
        },
        {
          "duration": 0.1041666666666714,
          "durationTicks": 10,
          "midi": 73,
          "name": "C#5",
          "ticks": 7013,
          "time": 73.05208333333333,
          "velocity": 0.7559055118110236
        },
        {
          "duration": 3.0520833333333286,
          "durationTicks": 293,
          "midi": 70,
          "name": "A#4",
          "ticks": 7026,
          "time": 73.1875,
          "velocity": 0.6929133858267716
        },
        {
          "duration": 2.53125,
          "durationTicks": 243,
          "midi": 72,
          "name": "C5",
          "ticks": 7038,
          "time": 73.3125,
          "velocity": 0.5669291338582677
        },
        {
          "duration": 0.1145833333333286,
          "durationTicks": 11,
          "midi": 73,
          "name": "C#5",
          "ticks": 7050,
          "time": 73.4375,
          "velocity": 0.6299212598425197
        },
        {
          "duration": 3.3645833333333286,
          "durationTicks": 323,
          "midi": 70,
          "name": "A#4",
          "ticks": 7066,
          "time": 73.60416666666667,
          "velocity": 0.5669291338582677
        },
        {
          "duration": 2.5,
          "durationTicks": 240,
          "midi": 72,
          "name": "C5",
          "ticks": 7079,
          "time": 73.73958333333333,
          "velocity": 0.5039370078740157
        },
        {
          "duration": 0.1458333333333428,
          "durationTicks": 14,
          "midi": 73,
          "name": "C#5",
          "ticks": 7091,
          "time": 73.86458333333333,
          "velocity": 0.5039370078740157
        },
        {
          "duration": 4.895833333333329,
          "durationTicks": 470,
          "midi": 70,
          "name": "A#4",
          "ticks": 7104,
          "time": 74,
          "velocity": 0.5669291338582677
        },
        {
          "duration": 2.8125,
          "durationTicks": 270,
          "midi": 72,
          "name": "C5",
          "ticks": 7119,
          "time": 74.15625,
          "velocity": 0.5669291338582677
        },
        {
          "duration": 0.11458333333334281,
          "durationTicks": 11,
          "midi": 73,
          "name": "C#5",
          "ticks": 7130,
          "time": 74.27083333333333,
          "velocity": 0.5039370078740157
        },
        {
          "duration": 9.833333333333329,
          "durationTicks": 944,
          "midi": 51,
          "name": "D#3",
          "ticks": 7144,
          "time": 74.41666666666667,
          "velocity": 0.4409448818897638
        },
        {
          "duration": 9.145833333333343,
          "durationTicks": 878,
          "midi": 70,
          "name": "A#4",
          "ticks": 7145,
          "time": 74.42708333333333,
          "velocity": 0.4409448818897638
        },
        {
          "duration": 4.260416666666671,
          "durationTicks": 409,
          "midi": 72,
          "name": "C5",
          "ticks": 7158,
          "time": 74.5625,
          "velocity": 0.5039370078740157
        },
        {
          "duration": 0.08333333333334281,
          "durationTicks": 8,
          "midi": 73,
          "name": "C#5",
          "ticks": 7169,
          "time": 74.67708333333333,
          "velocity": 0.5039370078740157
        },
        {
          "duration": 5.59375,
          "durationTicks": 537,
          "midi": 61,
          "name": "C#4",
          "ticks": 7178,
          "time": 74.77083333333333,
          "velocity": 0.4409448818897638
        },
        {
          "duration": 0.0833333333333286,
          "durationTicks": 8,
          "midi": 58,
          "name": "A#3",
          "ticks": 7179,
          "time": 74.78125,
          "velocity": 0.3779527559055118
        },
        {
          "duration": 5.5,
          "durationTicks": 528,
          "midi": 63,
          "name": "D#4",
          "ticks": 7180,
          "time": 74.79166666666667,
          "velocity": 0.31496062992125984
        },
        {
          "duration": 9.447916666666671,
          "durationTicks": 907,
          "midi": 70,
          "name": "A#4",
          "ticks": 7181,
          "time": 74.80208333333333,
          "velocity": 0.5039370078740157
        },
        {
          "duration": 9.322916666666671,
          "durationTicks": 895,
          "midi": 72,
          "name": "C5",
          "ticks": 7193,
          "time": 74.92708333333333,
          "velocity": 0.5669291338582677
        },
        {
          "duration": 0.1354166666666714,
          "durationTicks": 13,
          "midi": 73,
          "name": "C#5",
          "ticks": 7203,
          "time": 75.03125,
          "velocity": 0.5039370078740157
        },
        {
          "duration": 9.5625,
          "durationTicks": 918,
          "midi": 51,
          "name": "D#3",
          "ticks": 7218,
          "time": 75.1875,
          "velocity": 0.4409448818897638
        },
        {
          "duration": 9.427083333333329,
          "durationTicks": 905,
          "midi": 70,
          "name": "A#4",
          "ticks": 7218,
          "time": 75.1875,
          "velocity": 0.5039370078740157
        },
        {
          "duration": 9.270833333333329,
          "durationTicks": 890,
          "midi": 72,
          "name": "C5",
          "ticks": 7233,
          "time": 75.34375,
          "velocity": 0.4409448818897638
        },
        {
          "duration": 0.3854166666666714,
          "durationTicks": 37,
          "midi": 73,
          "name": "C#5",
          "ticks": 7244,
          "time": 75.45833333333333,
          "velocity": 0.5039370078740157
        },
        {
          "duration": 0.28125,
          "durationTicks": 27,
          "midi": 67,
          "name": "G4",
          "ticks": 7254,
          "time": 75.5625,
          "velocity": 0.3779527559055118
        },
        {
          "duration": 0.2604166666666714,
          "durationTicks": 25,
          "midi": 58,
          "name": "A#3",
          "ticks": 7256,
          "time": 75.58333333333333,
          "velocity": 0.31496062992125984
        },
        {
          "duration": 13.822916666666671,
          "durationTicks": 1327,
          "midi": 75,
          "name": "D#5",
          "ticks": 7256,
          "time": 75.58333333333333,
          "velocity": 0.5669291338582677
        },
        {
          "duration": 5.302083333333329,
          "durationTicks": 509,
          "midi": 61,
          "name": "C#4",
          "ticks": 7257,
          "time": 75.59375,
          "velocity": 0.31496062992125984
        },
        {
          "duration": 0.15625,
          "durationTicks": 15,
          "midi": 77,
          "name": "F5",
          "ticks": 7266,
          "time": 75.6875,
          "velocity": 0.5669291338582677
        },
        {
          "duration": 13.802083333333329,
          "durationTicks": 1325,
          "midi": 75,
          "name": "D#5",
          "ticks": 7279,
          "time": 75.82291666666667,
          "velocity": 0.5669291338582677
        },
        {
          "duration": 0.3125,
          "durationTicks": 30,
          "midi": 44,
          "name": "G#2",
          "ticks": 7289,
          "time": 75.92708333333333,
          "velocity": 0.5669291338582677
        },
        {
          "duration": 8.78125,
          "durationTicks": 843,
          "midi": 72,
          "name": "C5",
          "ticks": 7292,
          "time": 75.95833333333333,
          "velocity": 0.5669291338582677
        },
        {
          "duration": 9.041666666666671,
          "durationTicks": 868,
          "midi": 70,
          "name": "A#4",
          "ticks": 7304,
          "time": 76.08333333333333,
          "velocity": 0.6299212598425197
        },
        {
          "duration": 1.9583333333333286,
          "durationTicks": 188,
          "midi": 68,
          "name": "G#4",
          "ticks": 7314,
          "time": 76.1875,
          "velocity": 0.5669291338582677
        },
        {
          "duration": 5.28125,
          "durationTicks": 507,
          "midi": 56,
          "name": "G#3",
          "ticks": 7329,
          "time": 76.34375,
          "velocity": 0.5039370078740157
        },
        {
          "duration": 0.625,
          "durationTicks": 60,
          "midi": 66,
          "name": "F#4",
          "ticks": 7329,
          "time": 76.34375,
          "velocity": 0.5039370078740157
        },
        {
          "duration": 11.083333333333329,
          "durationTicks": 1064,
          "midi": 72,
          "name": "C5",
          "ticks": 7329,
          "time": 76.34375,
          "velocity": 0.5039370078740157
        },
        {
          "duration": 4.072916666666671,
          "durationTicks": 391,
          "midi": 60,
          "name": "C4",
          "ticks": 7331,
          "time": 76.36458333333333,
          "velocity": 0.3779527559055118
        },
        {
          "duration": 9.208333333333329,
          "durationTicks": 884,
          "midi": 70,
          "name": "A#4",
          "ticks": 7342,
          "time": 76.47916666666667,
          "velocity": 0.6299212598425197
        },
        {
          "duration": 6.8125,
          "durationTicks": 654,
          "midi": 68,
          "name": "G#4",
          "ticks": 7353,
          "time": 76.59375,
          "velocity": 0.6299212598425197
        },
        {
          "duration": 0.96875,
          "durationTicks": 93,
          "midi": 66,
          "name": "F#4",
          "ticks": 7366,
          "time": 76.72916666666667,
          "velocity": 0.5669291338582677
        },
        {
          "duration": 5.5625,
          "durationTicks": 534,
          "midi": 56,
          "name": "G#3",
          "ticks": 7367,
          "time": 76.73958333333333,
          "velocity": 0.5669291338582677
        },
        {
          "duration": 4.020833333333343,
          "durationTicks": 386,
          "midi": 60,
          "name": "C4",
          "ticks": 7367,
          "time": 76.73958333333333,
          "velocity": 0.5669291338582677
        },
        {
          "duration": 3.15625,
          "durationTicks": 303,
          "midi": 65,
          "name": "F4",
          "ticks": 7376,
          "time": 76.83333333333333,
          "velocity": 0.6299212598425197
        },
        {
          "duration": 5.989583333333329,
          "durationTicks": 575,
          "midi": 63,
          "name": "D#4",
          "ticks": 7387,
          "time": 76.94791666666667,
          "velocity": 0.6299212598425197
        },
        {
          "duration": 8.71875,
          "durationTicks": 837,
          "midi": 68,
          "name": "G#4",
          "ticks": 7400,
          "time": 77.08333333333333,
          "velocity": 0.6299212598425197
        },
        {
          "duration": 8.166666666666657,
          "durationTicks": 784,
          "midi": 56,
          "name": "G#3",
          "ticks": 7402,
          "time": 77.10416666666667,
          "velocity": 0.4409448818897638
        },
        {
          "duration": 4,
          "durationTicks": 384,
          "midi": 60,
          "name": "C4",
          "ticks": 7402,
          "time": 77.10416666666667,
          "velocity": 0.4409448818897638
        },
        {
          "duration": 0.125,
          "durationTicks": 12,
          "midi": 67,
          "name": "G4",
          "ticks": 7412,
          "time": 77.20833333333333,
          "velocity": 0.6299212598425197
        },
        {
          "duration": 8.802083333333343,
          "durationTicks": 845,
          "midi": 68,
          "name": "G#4",
          "ticks": 7424,
          "time": 77.33333333333333,
          "velocity": 0.5669291338582677
        },
        {
          "duration": 0.0625,
          "durationTicks": 6,
          "midi": 49,
          "name": "C#3",
          "ticks": 7437,
          "time": 77.46875,
          "velocity": 0.5669291338582677
        },
        {
          "duration": 5.59375,
          "durationTicks": 537,
          "midi": 65,
          "name": "F4",
          "ticks": 7437,
          "time": 77.46875,
          "velocity": 0.5669291338582677
        },
        {
          "duration": 0.4791666666666572,
          "durationTicks": 46,
          "midi": 66,
          "name": "F#4",
          "ticks": 7450,
          "time": 77.60416666666667,
          "velocity": 0.5669291338582677
        },
        {
          "duration": 10.416666666666657,
          "durationTicks": 1000,
          "midi": 68,
          "name": "G#4",
          "ticks": 7459,
          "time": 77.69791666666667,
          "velocity": 0.6299212598425197
        },
        {
          "duration": 3.385416666666657,
          "durationTicks": 325,
          "midi": 61,
          "name": "C#4",
          "ticks": 7471,
          "time": 77.82291666666667,
          "velocity": 0.5039370078740157
        },
        {
          "duration": 8.458333333333329,
          "durationTicks": 812,
          "midi": 56,
          "name": "G#3",
          "ticks": 7473,
          "time": 77.84375,
          "velocity": 0.5039370078740157
        },
        {
          "duration": 8.458333333333329,
          "durationTicks": 812,
          "midi": 65,
          "name": "F4",
          "ticks": 7473,
          "time": 77.84375,
          "velocity": 0.6299212598425197
        },
        {
          "duration": 0.5416666666666714,
          "durationTicks": 52,
          "midi": 66,
          "name": "F#4",
          "ticks": 7484,
          "time": 77.95833333333333,
          "velocity": 0.5669291338582677
        },
        {
          "duration": 10.739583333333329,
          "durationTicks": 1031,
          "midi": 68,
          "name": "G#4",
          "ticks": 7495,
          "time": 78.07291666666667,
          "velocity": 0.5669291338582677
        },
        {
          "duration": 0.0625,
          "durationTicks": 6,
          "midi": 46,
          "name": "A#2",
          "ticks": 7509,
          "time": 78.21875,
          "velocity": 0.5669291338582677
        },
        {
          "duration": 7.34375,
          "durationTicks": 705,
          "midi": 63,
          "name": "D#4",
          "ticks": 7509,
          "time": 78.21875,
          "velocity": 0.5669291338582677
        },
        {
          "duration": 8.822916666666671,
          "durationTicks": 847,
          "midi": 65,
          "name": "F4",
          "ticks": 7520,
          "time": 78.33333333333333,
          "velocity": 0.4409448818897638
        },
        {
          "duration": 0.5729166666666572,
          "durationTicks": 55,
          "midi": 66,
          "name": "F#4",
          "ticks": 7531,
          "time": 78.44791666666667,
          "velocity": 0.5669291338582677
        },
        {
          "duration": 3.3020833333333286,
          "durationTicks": 317,
          "midi": 61,
          "name": "C#4",
          "ticks": 7542,
          "time": 78.5625,
          "velocity": 0.5669291338582677
        },
        {
          "duration": 0.2395833333333428,
          "durationTicks": 23,
          "midi": 58,
          "name": "A#3",
          "ticks": 7544,
          "time": 78.58333333333333,
          "velocity": 0.5669291338582677
        },
        {
          "duration": 7.552083333333343,
          "durationTicks": 725,
          "midi": 70,
          "name": "A#4",
          "ticks": 7544,
          "time": 78.58333333333333,
          "velocity": 0.6299212598425197
        },
        {
          "duration": 9.03125,
          "durationTicks": 867,
          "midi": 72,
          "name": "C5",
          "ticks": 7555,
          "time": 78.69791666666667,
          "velocity": 0.6299212598425197
        },
        {
          "duration": 8.697916666666657,
          "durationTicks": 835,
          "midi": 70,
          "name": "A#4",
          "ticks": 7567,
          "time": 78.82291666666667,
          "velocity": 0.6299212598425197
        },
        {
          "duration": 0.3333333333333286,
          "durationTicks": 32,
          "midi": 46,
          "name": "A#2",
          "ticks": 7579,
          "time": 78.94791666666667,
          "velocity": 0.5669291338582677
        },
        {
          "duration": 1.03125,
          "durationTicks": 99,
          "midi": 66,
          "name": "F#4",
          "ticks": 7580,
          "time": 78.95833333333333,
          "velocity": 0.5669291338582677
        },
        {
          "duration": 8.8125,
          "durationTicks": 846,
          "midi": 65,
          "name": "F4",
          "ticks": 7590,
          "time": 79.0625,
          "velocity": 0.6299212598425197
        },
        {
          "duration": 9.25,
          "durationTicks": 888,
          "midi": 63,
          "name": "D#4",
          "ticks": 7602,
          "time": 79.1875,
          "velocity": 0.5669291338582677
        },
        {
          "duration": 2.3854166666666714,
          "durationTicks": 229,
          "midi": 60,
          "name": "C4",
          "ticks": 7616,
          "time": 79.33333333333333,
          "velocity": 0.5039370078740157
        },
        {
          "duration": 3.7916666666666714,
          "durationTicks": 364,
          "midi": 66,
          "name": "F#4",
          "ticks": 7616,
          "time": 79.33333333333333,
          "velocity": 0.5039370078740157
        },
        {
          "duration": 2.9583333333333286,
          "durationTicks": 284,
          "midi": 54,
          "name": "F#3",
          "ticks": 7617,
          "time": 79.34375,
          "velocity": 0.5669291338582677
        },
        {
          "duration": 8.552083333333343,
          "durationTicks": 821,
          "midi": 65,
          "name": "F4",
          "ticks": 7628,
          "time": 79.45833333333333,
          "velocity": 0.5669291338582677
        },
        {
          "duration": 10.989583333333343,
          "durationTicks": 1055,
          "midi": 63,
          "name": "D#4",
          "ticks": 7640,
          "time": 79.58333333333333,
          "velocity": 0.5669291338582677
        },
        {
          "duration": 7.791666666666671,
          "durationTicks": 748,
          "midi": 53,
          "name": "F3",
          "ticks": 7653,
          "time": 79.71875,
          "velocity": 0.5669291338582677
        },
        {
          "duration": 3.0729166666666714,
          "durationTicks": 295,
          "midi": 61,
          "name": "C#4",
          "ticks": 7653,
          "time": 79.71875,
          "velocity": 0.6299212598425197
        },
        {
          "duration": 0.25,
          "durationTicks": 24,
          "midi": 46,
          "name": "A#2",
          "ticks": 7655,
          "time": 79.73958333333333,
          "velocity": 0.6929133858267716
        },
        {
          "duration": 8.375,
          "durationTicks": 804,
          "midi": 51,
          "name": "D#3",
          "ticks": 7666,
          "time": 79.85416666666667,
          "velocity": 0.6929133858267716
        },
        {
          "duration": 2.0833333333333286,
          "durationTicks": 200,
          "midi": 60,
          "name": "C4",
          "ticks": 7666,
          "time": 79.85416666666667,
          "velocity": 0.6929133858267716
        },
        {
          "duration": 0.1145833333333286,
          "durationTicks": 11,
          "midi": 49,
          "name": "C#3",
          "ticks": 7677,
          "time": 79.96875,
          "velocity": 0.6929133858267716
        },
        {
          "duration": 0.1458333333333428,
          "durationTicks": 14,
          "midi": 58,
          "name": "A#3",
          "ticks": 7679,
          "time": 79.98958333333333,
          "velocity": 0.6299212598425197
        },
        {
          "duration": 0.1041666666666714,
          "durationTicks": 10,
          "midi": 48,
          "name": "C3",
          "ticks": 7692,
          "time": 80.125,
          "velocity": 0.6929133858267716
        },
        {
          "duration": 14,
          "durationTicks": 1344,
          "midi": 63,
          "name": "D#4",
          "ticks": 7692,
          "time": 80.125,
          "velocity": 0.6929133858267716
        },
        {
          "duration": 0.11458333333334281,
          "durationTicks": 11,
          "midi": 46,
          "name": "A#2",
          "ticks": 7703,
          "time": 80.23958333333333,
          "velocity": 0.5669291338582677
        },
        {
          "duration": 4,
          "durationTicks": 384,
          "midi": 61,
          "name": "C#4",
          "ticks": 7704,
          "time": 80.25,
          "velocity": 0.6929133858267716
        },
        {
          "duration": 0.0833333333333286,
          "durationTicks": 8,
          "midi": 44,
          "name": "G#2",
          "ticks": 7714,
          "time": 80.35416666666667,
          "velocity": 0.6299212598425197
        },
        {
          "duration": 2.2916666666666714,
          "durationTicks": 220,
          "midi": 60,
          "name": "C4",
          "ticks": 7715,
          "time": 80.36458333333333,
          "velocity": 0.6929133858267716
        },
        {
          "duration": 0.7395833333333286,
          "durationTicks": 71,
          "midi": 49,
          "name": "C#3",
          "ticks": 7726,
          "time": 80.47916666666667,
          "velocity": 0.6299212598425197
        },
        {
          "duration": 0.125,
          "durationTicks": 12,
          "midi": 58,
          "name": "A#3",
          "ticks": 7729,
          "time": 80.51041666666667,
          "velocity": 0.6299212598425197
        },
        {
          "duration": 4.65625,
          "durationTicks": 447,
          "midi": 60,
          "name": "C4",
          "ticks": 7739,
          "time": 80.61458333333333,
          "velocity": 0.5669291338582677
        },
        {
          "duration": 3.979166666666657,
          "durationTicks": 382,
          "midi": 61,
          "name": "C#4",
          "ticks": 7750,
          "time": 80.72916666666667,
          "velocity": 0.5669291338582677
        },
        {
          "duration": 0.08333333333334281,
          "durationTicks": 8,
          "midi": 58,
          "name": "A#3",
          "ticks": 7763,
          "time": 80.86458333333333,
          "velocity": 0.6299212598425197
        },
        {
          "duration": 5.166666666666671,
          "durationTicks": 496,
          "midi": 60,
          "name": "C4",
          "ticks": 7773,
          "time": 80.96875,
          "velocity": 0.6929133858267716
        },
        {
          "duration": 5.21875,
          "durationTicks": 501,
          "midi": 61,
          "name": "C#4",
          "ticks": 7784,
          "time": 81.08333333333333,
          "velocity": 0.6299212598425197
        },
        {
          "duration": 0.7291666666666714,
          "durationTicks": 70,
          "midi": 46,
          "name": "A#2",
          "ticks": 7799,
          "time": 81.23958333333333,
          "velocity": 0.5669291338582677
        },
        {
          "duration": 4.03125,
          "durationTicks": 387,
          "midi": 54,
          "name": "F#3",
          "ticks": 7799,
          "time": 81.23958333333333,
          "velocity": 0.6299212598425197
        },
        {
          "duration": 5.78125,
          "durationTicks": 555,
          "midi": 56,
          "name": "G#3",
          "ticks": 7811,
          "time": 81.36458333333333,
          "velocity": 0.5669291338582677
        },
        {
          "duration": 0.1354166666666714,
          "durationTicks": 13,
          "midi": 58,
          "name": "A#3",
          "ticks": 7823,
          "time": 81.48958333333333,
          "velocity": 0.5669291338582677
        },
        {
          "duration": 7.770833333333329,
          "durationTicks": 746,
          "midi": 60,
          "name": "C4",
          "ticks": 7836,
          "time": 81.625,
          "velocity": 0.6299212598425197
        },
        {
          "duration": 5.395833333333329,
          "durationTicks": 518,
          "midi": 61,
          "name": "C#4",
          "ticks": 7846,
          "time": 81.72916666666667,
          "velocity": 0.5669291338582677
        },
        {
          "duration": 9.697916666666657,
          "durationTicks": 931,
          "midi": 60,
          "name": "C4",
          "ticks": 7858,
          "time": 81.85416666666667,
          "velocity": 0.5669291338582677
        },
        {
          "duration": 0.78125,
          "durationTicks": 75,
          "midi": 45,
          "name": "A2",
          "ticks": 7871,
          "time": 81.98958333333333,
          "velocity": 0.5669291338582677
        },
        {
          "duration": 8.5,
          "durationTicks": 816,
          "midi": 53,
          "name": "F3",
          "ticks": 7871,
          "time": 81.98958333333333,
          "velocity": 0.5669291338582677
        },
        {
          "duration": 16.22916666666667,
          "durationTicks": 1558,
          "midi": 54,
          "name": "F#3",
          "ticks": 7883,
          "time": 82.11458333333333,
          "velocity": 0.5039370078740157
        },
        {
          "duration": 7.15625,
          "durationTicks": 687,
          "midi": 56,
          "name": "G#3",
          "ticks": 7894,
          "time": 82.22916666666667,
          "velocity": 0.5039370078740157
        },
        {
          "duration": 0.0625,
          "durationTicks": 6,
          "midi": 57,
          "name": "A3",
          "ticks": 7906,
          "time": 82.35416666666667,
          "velocity": 0.5039370078740157
        },
        {
          "duration": 0.0625,
          "durationTicks": 6,
          "midi": 58,
          "name": "A#3",
          "ticks": 7917,
          "time": 82.46875,
          "velocity": 0.5669291338582677
        },
        {
          "duration": 12.635416666666657,
          "durationTicks": 1213,
          "midi": 60,
          "name": "C4",
          "ticks": 7930,
          "time": 82.60416666666667,
          "velocity": 0.5039370078740157
        },
        {
          "duration": 0.2291666666666714,
          "durationTicks": 22,
          "midi": 44,
          "name": "G#2",
          "ticks": 7941,
          "time": 82.71875,
          "velocity": 0.4409448818897638
        },
        {
          "duration": 5.166666666666671,
          "durationTicks": 496,
          "midi": 61,
          "name": "C#4",
          "ticks": 7941,
          "time": 82.71875,
          "velocity": 0.5669291338582677
        },
        {
          "duration": 13.010416666666657,
          "durationTicks": 1249,
          "midi": 63,
          "name": "D#4",
          "ticks": 7954,
          "time": 82.85416666666667,
          "velocity": 0.5039370078740157
        },
        {
          "duration": 5.541666666666671,
          "durationTicks": 532,
          "midi": 65,
          "name": "F4",
          "ticks": 7967,
          "time": 82.98958333333333,
          "velocity": 0.4409448818897638
        },
        {
          "duration": 2.4791666666666714,
          "durationTicks": 238,
          "midi": 66,
          "name": "F#4",
          "ticks": 7976,
          "time": 83.08333333333333,
          "velocity": 0.5039370078740157
        },
        {
          "duration": 0.052083333333328596,
          "durationTicks": 5,
          "midi": 67,
          "name": "G4",
          "ticks": 7987,
          "time": 83.19791666666667,
          "velocity": 0.3779527559055118
        },
        {
          "duration": 6.989583333333329,
          "durationTicks": 671,
          "midi": 68,
          "name": "G#4",
          "ticks": 7998,
          "time": 83.3125,
          "velocity": 0.5669291338582677
        },
        {
          "duration": 4.416666666666671,
          "durationTicks": 424,
          "midi": 70,
          "name": "A#4",
          "ticks": 8012,
          "time": 83.45833333333333,
          "velocity": 0.6299212598425197
        },
        {
          "duration": 0.07291666666665719,
          "durationTicks": 7,
          "midi": 39,
          "name": "D#2",
          "ticks": 8017,
          "time": 83.51041666666667,
          "velocity": 0.4409448818897638
        },
        {
          "duration": 5.614583333333343,
          "durationTicks": 539,
          "midi": 72,
          "name": "C5",
          "ticks": 8021,
          "time": 83.55208333333333,
          "velocity": 0.6299212598425197
        },
        {
          "duration": 0.59375,
          "durationTicks": 57,
          "midi": 73,
          "name": "C#5",
          "ticks": 8031,
          "time": 83.65625,
          "velocity": 0.5669291338582677
        },
        {
          "duration": 5.135416666666671,
          "durationTicks": 493,
          "midi": 70,
          "name": "A#4",
          "ticks": 8042,
          "time": 83.77083333333333,
          "velocity": 0.6299212598425197
        },
        {
          "duration": 0.3541666666666714,
          "durationTicks": 34,
          "midi": 58,
          "name": "A#3",
          "ticks": 8054,
          "time": 83.89583333333333,
          "velocity": 0.5039370078740157
        },
        {
          "duration": 4.708333333333329,
          "durationTicks": 452,
          "midi": 61,
          "name": "C#4",
          "ticks": 8055,
          "time": 83.90625,
          "velocity": 0.4409448818897638
        },
        {
          "duration": 5.947916666666671,
          "durationTicks": 571,
          "midi": 72,
          "name": "C5",
          "ticks": 8055,
          "time": 83.90625,
          "velocity": 0.6299212598425197
        },
        {
          "duration": 10.333333333333343,
          "durationTicks": 992,
          "midi": 51,
          "name": "D#3",
          "ticks": 8057,
          "time": 83.92708333333333,
          "velocity": 0.5039370078740157
        },
        {
          "duration": 0.59375,
          "durationTicks": 57,
          "midi": 73,
          "name": "C#5",
          "ticks": 8066,
          "time": 84.02083333333333,
          "velocity": 0.5039370078740157
        },
        {
          "duration": 5.791666666666657,
          "durationTicks": 556,
          "midi": 70,
          "name": "A#4",
          "ticks": 8080,
          "time": 84.16666666666667,
          "velocity": 0.5669291338582677
        },
        {
          "duration": 0.041666666666671404,
          "durationTicks": 4,
          "midi": 39,
          "name": "D#2",
          "ticks": 8091,
          "time": 84.28125,
          "velocity": 0.5039370078740157
        },
        {
          "duration": 7.260416666666657,
          "durationTicks": 697,
          "midi": 72,
          "name": "C5",
          "ticks": 8092,
          "time": 84.29166666666667,
          "velocity": 0.6299212598425197
        },
        {
          "duration": 0.7291666666666714,
          "durationTicks": 70,
          "midi": 73,
          "name": "C#5",
          "ticks": 8102,
          "time": 84.39583333333333,
          "velocity": 0.6299212598425197
        },
        {
          "duration": 6.53125,
          "durationTicks": 627,
          "midi": 70,
          "name": "A#4",
          "ticks": 8114,
          "time": 84.52083333333333,
          "velocity": 0.5669291338582677
        },
        {
          "duration": 5.4375,
          "durationTicks": 522,
          "midi": 61,
          "name": "C#4",
          "ticks": 8127,
          "time": 84.65625,
          "velocity": 0.5039370078740157
        },
        {
          "duration": 8.697916666666671,
          "durationTicks": 835,
          "midi": 72,
          "name": "C5",
          "ticks": 8127,
          "time": 84.65625,
          "velocity": 0.5669291338582677
        },
        {
          "duration": 0.052083333333328596,
          "durationTicks": 5,
          "midi": 58,
          "name": "A#3",
          "ticks": 8128,
          "time": 84.66666666666667,
          "velocity": 0.4409448818897638
        },
        {
          "duration": 14.0625,
          "durationTicks": 1350,
          "midi": 51,
          "name": "D#3",
          "ticks": 8129,
          "time": 84.67708333333333,
          "velocity": 0.5039370078740157
        },
        {
          "duration": 2.5208333333333286,
          "durationTicks": 242,
          "midi": 73,
          "name": "C#5",
          "ticks": 8137,
          "time": 84.76041666666667,
          "velocity": 0.6299212598425197
        },
        {
          "duration": 8.427083333333343,
          "durationTicks": 809,
          "midi": 70,
          "name": "A#4",
          "ticks": 8153,
          "time": 84.92708333333333,
          "velocity": 0.6299212598425197
        },
        {
          "duration": 1,
          "durationTicks": 96,
          "midi": 44,
          "name": "G#2",
          "ticks": 8173,
          "time": 85.13541666666667,
          "velocity": 0.31496062992125984
        },
        {
          "duration": 14.927083333333343,
          "durationTicks": 1433,
          "midi": 54,
          "name": "F#3",
          "ticks": 8174,
          "time": 85.14583333333333,
          "velocity": 0.3779527559055118
        },
        {
          "duration": 10.541666666666657,
          "durationTicks": 1012,
          "midi": 60,
          "name": "C4",
          "ticks": 8176,
          "time": 85.16666666666667,
          "velocity": 0.5039370078740157
        },
        {
          "duration": 4.9375,
          "durationTicks": 474,
          "midi": 56,
          "name": "G#3",
          "ticks": 8177,
          "time": 85.17708333333333,
          "velocity": 0.31496062992125984
        },
        {
          "duration": 12,
          "durationTicks": 1152,
          "midi": 63,
          "name": "D#4",
          "ticks": 8192,
          "time": 85.33333333333333,
          "velocity": 0.5669291338582677
        },
        {
          "duration": 0.3020833333333286,
          "durationTicks": 29,
          "midi": 66,
          "name": "F#4",
          "ticks": 8205,
          "time": 85.46875,
          "velocity": 0.5039370078740157
        },
        {
          "duration": 7.90625,
          "durationTicks": 759,
          "midi": 70,
          "name": "A#4",
          "ticks": 8214,
          "time": 85.5625,
          "velocity": 0.5039370078740157
        },
        {
          "duration": 9.8125,
          "durationTicks": 942,
          "midi": 56,
          "name": "G#3",
          "ticks": 8226,
          "time": 85.6875,
          "velocity": 0.3779527559055118
        },
        {
          "duration": 3.65625,
          "durationTicks": 351,
          "midi": 66,
          "name": "F#4",
          "ticks": 8227,
          "time": 85.69791666666667,
          "velocity": 0.4409448818897638
        },
        {
          "duration": 5.302083333333329,
          "durationTicks": 509,
          "midi": 68,
          "name": "G#4",
          "ticks": 8227,
          "time": 85.69791666666667,
          "velocity": 0.5039370078740157
        },
        {
          "duration": 10.375,
          "durationTicks": 996,
          "midi": 60,
          "name": "C4",
          "ticks": 8230,
          "time": 85.72916666666667,
          "velocity": 0.31496062992125984
        },
        {
          "duration": 8.291666666666671,
          "durationTicks": 796,
          "midi": 70,
          "name": "A#4",
          "ticks": 8240,
          "time": 85.83333333333333,
          "velocity": 0.5669291338582677
        },
        {
          "duration": 9.15625,
          "durationTicks": 879,
          "midi": 68,
          "name": "G#4",
          "ticks": 8253,
          "time": 85.96875,
          "velocity": 0.6299212598425197
        },
        {
          "duration": 3.9479166666666714,
          "durationTicks": 379,
          "midi": 65,
          "name": "F4",
          "ticks": 8270,
          "time": 86.14583333333333,
          "velocity": 0.5669291338582677
        },
        {
          "duration": 0.1145833333333286,
          "durationTicks": 11,
          "midi": 49,
          "name": "C#3",
          "ticks": 8274,
          "time": 86.1875,
          "velocity": 0.3779527559055118
        },
        {
          "duration": 4.322916666666671,
          "durationTicks": 415,
          "midi": 61,
          "name": "C#4",
          "ticks": 8274,
          "time": 86.1875,
          "velocity": 0.3779527559055118
        },
        {
          "duration": 0.041666666666671404,
          "durationTicks": 4,
          "midi": 77,
          "name": "F5",
          "ticks": 8318,
          "time": 86.64583333333333,
          "velocity": 0.6299212598425197
        },
        {
          "duration": 0.0729166666666714,
          "durationTicks": 7,
          "midi": 49,
          "name": "C#3",
          "ticks": 8322,
          "time": 86.6875,
          "velocity": 0.5039370078740157
        },
        {
          "duration": 18.6875,
          "durationTicks": 1794,
          "midi": 80,
          "name": "G#5",
          "ticks": 8333,
          "time": 86.80208333333333,
          "velocity": 0.6929133858267716
        },
        {
          "duration": 0.041666666666671404,
          "durationTicks": 4,
          "midi": 78,
          "name": "F#5",
          "ticks": 8345,
          "time": 86.92708333333333,
          "velocity": 0.5669291338582677
        },
        {
          "duration": 3.71875,
          "durationTicks": 357,
          "midi": 61,
          "name": "C#4",
          "ticks": 8359,
          "time": 87.07291666666667,
          "velocity": 0.4409448818897638
        },
        {
          "duration": 0.0625,
          "durationTicks": 6,
          "midi": 77,
          "name": "F5",
          "ticks": 8359,
          "time": 87.07291666666667,
          "velocity": 0.6299212598425197
        },
        {
          "duration": 8.614583333333329,
          "durationTicks": 827,
          "midi": 56,
          "name": "G#3",
          "ticks": 8361,
          "time": 87.09375,
          "velocity": 0.31496062992125984
        },
        {
          "duration": 3.2083333333333286,
          "durationTicks": 308,
          "midi": 65,
          "name": "F4",
          "ticks": 8361,
          "time": 87.09375,
          "velocity": 0.31496062992125984
        },
        {
          "duration": 0.4895833333333286,
          "durationTicks": 47,
          "midi": 73,
          "name": "C#5",
          "ticks": 8373,
          "time": 87.21875,
          "velocity": 0.5039370078740157
        },
        {
          "duration": 6.770833333333329,
          "durationTicks": 650,
          "midi": 72,
          "name": "C5",
          "ticks": 8386,
          "time": 87.35416666666667,
          "velocity": 0.31496062992125984
        },
        {
          "duration": 11.28125,
          "durationTicks": 1083,
          "midi": 53,
          "name": "F3",
          "ticks": 8396,
          "time": 87.45833333333333,
          "velocity": 0.5039370078740157
        },
        {
          "duration": 6.75,
          "durationTicks": 648,
          "midi": 70,
          "name": "A#4",
          "ticks": 8397,
          "time": 87.46875,
          "velocity": 0.6299212598425197
        },
        {
          "duration": 1.6041666666666714,
          "durationTicks": 154,
          "midi": 73,
          "name": "C#5",
          "ticks": 8406,
          "time": 87.5625,
          "velocity": 0.6299212598425197
        },
        {
          "duration": 6.65625,
          "durationTicks": 639,
          "midi": 72,
          "name": "C5",
          "ticks": 8417,
          "time": 87.67708333333333,
          "velocity": 0.6299212598425197
        },
        {
          "duration": 5.53125,
          "durationTicks": 531,
          "midi": 61,
          "name": "C#4",
          "ticks": 8431,
          "time": 87.82291666666667,
          "velocity": 0.5039370078740157
        },
        {
          "duration": 2.864583333333343,
          "durationTicks": 275,
          "midi": 65,
          "name": "F4",
          "ticks": 8432,
          "time": 87.83333333333333,
          "velocity": 0.5669291338582677
        },
        {
          "duration": 7.291666666666671,
          "durationTicks": 700,
          "midi": 70,
          "name": "A#4",
          "ticks": 8432,
          "time": 87.83333333333333,
          "velocity": 0.6299212598425197
        },
        {
          "duration": 0.052083333333328596,
          "durationTicks": 5,
          "midi": 58,
          "name": "A#3",
          "ticks": 8433,
          "time": 87.84375,
          "velocity": 0.4409448818897638
        },
        {
          "duration": 3.604166666666657,
          "durationTicks": 346,
          "midi": 65,
          "name": "F4",
          "ticks": 8443,
          "time": 87.94791666666667,
          "velocity": 0.5669291338582677
        },
        {
          "duration": 7.4375,
          "durationTicks": 714,
          "midi": 68,
          "name": "G#4",
          "ticks": 8454,
          "time": 88.0625,
          "velocity": 0.5669291338582677
        },
        {
          "duration": 18.63541666666667,
          "durationTicks": 1789,
          "midi": 51,
          "name": "D#3",
          "ticks": 8466,
          "time": 88.1875,
          "velocity": 0.5669291338582677
        },
        {
          "duration": 0.041666666666671404,
          "durationTicks": 4,
          "midi": 67,
          "name": "G4",
          "ticks": 8468,
          "time": 88.20833333333333,
          "velocity": 0.5669291338582677
        },
        {
          "duration": 9.770833333333343,
          "durationTicks": 938,
          "midi": 63,
          "name": "D#4",
          "ticks": 8477,
          "time": 88.30208333333333,
          "velocity": 0.6299212598425197
        },
        {
          "duration": 4.916666666666671,
          "durationTicks": 472,
          "midi": 65,
          "name": "F4",
          "ticks": 8490,
          "time": 88.4375,
          "velocity": 0.5669291338582677
        },
        {
          "duration": 5.552083333333329,
          "durationTicks": 533,
          "midi": 61,
          "name": "C#4",
          "ticks": 8503,
          "time": 88.57291666666667,
          "velocity": 0.5669291338582677
        },
        {
          "duration": 0.2395833333333286,
          "durationTicks": 23,
          "midi": 67,
          "name": "G4",
          "ticks": 8503,
          "time": 88.57291666666667,
          "velocity": 0.6299212598425197
        },
        {
          "duration": 0.041666666666671404,
          "durationTicks": 4,
          "midi": 58,
          "name": "A#3",
          "ticks": 8504,
          "time": 88.58333333333333,
          "velocity": 0.5669291338582677
        },
        {
          "duration": 7.40625,
          "durationTicks": 711,
          "midi": 68,
          "name": "G#4",
          "ticks": 8515,
          "time": 88.69791666666667,
          "velocity": 0.5669291338582677
        },
        {
          "duration": 6.6875,
          "durationTicks": 642,
          "midi": 70,
          "name": "A#4",
          "ticks": 8526,
          "time": 88.8125,
          "velocity": 0.5669291338582677
        },
        {
          "duration": 0.08333333333334281,
          "durationTicks": 8,
          "midi": 44,
          "name": "G#2",
          "ticks": 8537,
          "time": 88.92708333333333,
          "velocity": 0.6299212598425197
        },
        {
          "duration": 6.177083333333329,
          "durationTicks": 593,
          "midi": 72,
          "name": "C5",
          "ticks": 8539,
          "time": 88.94791666666667,
          "velocity": 0.6299212598425197
        },
        {
          "duration": 0.6354166666666714,
          "durationTicks": 61,
          "midi": 73,
          "name": "C#5",
          "ticks": 8549,
          "time": 89.05208333333333,
          "velocity": 0.6299212598425197
        },
        {
          "duration": 0.1145833333333286,
          "durationTicks": 11,
          "midi": 74,
          "name": "D5",
          "ticks": 8560,
          "time": 89.16666666666667,
          "velocity": 0.5669291338582677
        },
        {
          "duration": 0.90625,
          "durationTicks": 87,
          "midi": 66,
          "name": "F#4",
          "ticks": 8573,
          "time": 89.30208333333333,
          "velocity": 0.6299212598425197
        },
        {
          "duration": 2.25,
          "durationTicks": 216,
          "midi": 75,
          "name": "D#5",
          "ticks": 8573,
          "time": 89.30208333333333,
          "velocity": 0.7559055118110236
        },
        {
          "duration": 6.791666666666671,
          "durationTicks": 652,
          "midi": 56,
          "name": "G#3",
          "ticks": 8574,
          "time": 89.3125,
          "velocity": 0.5669291338582677
        },
        {
          "duration": 8.833333333333329,
          "durationTicks": 848,
          "midi": 60,
          "name": "C4",
          "ticks": 8574,
          "time": 89.3125,
          "velocity": 0.6299212598425197
        },
        {
          "duration": 0.125,
          "durationTicks": 12,
          "midi": 77,
          "name": "F5",
          "ticks": 8584,
          "time": 89.41666666666667,
          "velocity": 0.6299212598425197
        },
        {
          "duration": 3.84375,
          "durationTicks": 369,
          "midi": 75,
          "name": "D#5",
          "ticks": 8593,
          "time": 89.51041666666667,
          "velocity": 0.6299212598425197
        },
        {
          "duration": 1.9166666666666572,
          "durationTicks": 184,
          "midi": 73,
          "name": "C#5",
          "ticks": 8605,
          "time": 89.63541666666667,
          "velocity": 0.7559055118110236
        },
        {
          "duration": 0.0729166666666714,
          "durationTicks": 7,
          "midi": 49,
          "name": "C#3",
          "ticks": 8607,
          "time": 89.65625,
          "velocity": 0.5039370078740157
        },
        {
          "duration": 5.739583333333329,
          "durationTicks": 551,
          "midi": 72,
          "name": "C5",
          "ticks": 8617,
          "time": 89.76041666666667,
          "velocity": 0.7559055118110236
        },
        {
          "duration": 7.833333333333329,
          "durationTicks": 752,
          "midi": 70,
          "name": "A#4",
          "ticks": 8628,
          "time": 89.875,
          "velocity": 0.7559055118110236
        },
        {
          "duration": 4.760416666666657,
          "durationTicks": 457,
          "midi": 61,
          "name": "C#4",
          "ticks": 8641,
          "time": 90.01041666666667,
          "velocity": 0.6299212598425197
        },
        {
          "duration": 6.729166666666671,
          "durationTicks": 646,
          "midi": 56,
          "name": "G#3",
          "ticks": 8642,
          "time": 90.02083333333333,
          "velocity": 0.5039370078740157
        },
        {
          "duration": 5.760416666666671,
          "durationTicks": 553,
          "midi": 65,
          "name": "F4",
          "ticks": 8642,
          "time": 90.02083333333333,
          "velocity": 0.6929133858267716
        },
        {
          "duration": 6.25,
          "durationTicks": 600,
          "midi": 68,
          "name": "G#4",
          "ticks": 8642,
          "time": 90.02083333333333,
          "velocity": 0.6929133858267716
        },
        {
          "duration": 0.6979166666666572,
          "durationTicks": 67,
          "midi": 66,
          "name": "F#4",
          "ticks": 8653,
          "time": 90.13541666666667,
          "velocity": 0.6929133858267716
        },
        {
          "duration": 6.166666666666671,
          "durationTicks": 592,
          "midi": 65,
          "name": "F4",
          "ticks": 8663,
          "time": 90.23958333333333,
          "velocity": 0.6929133858267716
        },
        {
          "duration": 10.427083333333329,
          "durationTicks": 1001,
          "midi": 53,
          "name": "F3",
          "ticks": 8677,
          "time": 90.38541666666667,
          "velocity": 0.6299212598425197
        },
        {
          "duration": 6.354166666666671,
          "durationTicks": 610,
          "midi": 61,
          "name": "C#4",
          "ticks": 8678,
          "time": 90.39583333333333,
          "velocity": 0.6929133858267716
        },
        {
          "duration": 7.916666666666657,
          "durationTicks": 760,
          "midi": 63,
          "name": "D#4",
          "ticks": 8689,
          "time": 90.51041666666667,
          "velocity": 0.6929133858267716
        },
        {
          "duration": 6.135416666666671,
          "durationTicks": 589,
          "midi": 65,
          "name": "F4",
          "ticks": 8699,
          "time": 90.61458333333333,
          "velocity": 0.6929133858267716
        },
        {
          "duration": 0.05208333333334281,
          "durationTicks": 5,
          "midi": 58,
          "name": "A#3",
          "ticks": 8711,
          "time": 90.73958333333333,
          "velocity": 0.6299212598425197
        },
        {
          "duration": 6.875,
          "durationTicks": 660,
          "midi": 61,
          "name": "C#4",
          "ticks": 8711,
          "time": 90.73958333333333,
          "velocity": 0.6299212598425197
        },
        {
          "duration": 4.760416666666671,
          "durationTicks": 457,
          "midi": 66,
          "name": "F#4",
          "ticks": 8711,
          "time": 90.73958333333333,
          "velocity": 0.6929133858267716
        },
        {
          "duration": 5.885416666666671,
          "durationTicks": 565,
          "midi": 68,
          "name": "G#4",
          "ticks": 8723,
          "time": 90.86458333333333,
          "velocity": 0.6299212598425197
        },
        {
          "duration": 11.302083333333329,
          "durationTicks": 1085,
          "midi": 70,
          "name": "A#4",
          "ticks": 8733,
          "time": 90.96875,
          "velocity": 0.6299212598425197
        },
        {
          "duration": 0.04166666666665719,
          "durationTicks": 4,
          "midi": 41,
          "name": "F2",
          "ticks": 8743,
          "time": 91.07291666666667,
          "velocity": 0.6299212598425197
        },
        {
          "duration": 6.5,
          "durationTicks": 624,
          "midi": 72,
          "name": "C5",
          "ticks": 8747,
          "time": 91.11458333333333,
          "velocity": 0.6299212598425197
        },
        {
          "duration": 2.145833333333343,
          "durationTicks": 206,
          "midi": 73,
          "name": "C#5",
          "ticks": 8756,
          "time": 91.20833333333333,
          "velocity": 0.6299212598425197
        },
        {
          "duration": 3.447916666666657,
          "durationTicks": 331,
          "midi": 75,
          "name": "D#5",
          "ticks": 8767,
          "time": 91.32291666666667,
          "velocity": 0.6929133858267716
        },
        {
          "duration": 0.1145833333333286,
          "durationTicks": 11,
          "midi": 77,
          "name": "F5",
          "ticks": 8778,
          "time": 91.4375,
          "velocity": 0.7559055118110236
        },
        {
          "duration": 5.885416666666657,
          "durationTicks": 565,
          "midi": 65,
          "name": "F4",
          "ticks": 8779,
          "time": 91.44791666666667,
          "velocity": 0.6299212598425197
        },
        {
          "duration": 7.28125,
          "durationTicks": 699,
          "midi": 60,
          "name": "C4",
          "ticks": 8780,
          "time": 91.45833333333333,
          "velocity": 0.6299212598425197
        },
        {
          "duration": 0.07291666666665719,
          "durationTicks": 7,
          "midi": 57,
          "name": "A3",
          "ticks": 8782,
          "time": 91.47916666666667,
          "velocity": 0.5669291338582677
        },
        {
          "duration": 0.2083333333333428,
          "durationTicks": 20,
          "midi": 78,
          "name": "F#5",
          "ticks": 8789,
          "time": 91.55208333333333,
          "velocity": 0.6929133858267716
        },
        {
          "duration": 0.15625,
          "durationTicks": 15,
          "midi": 77,
          "name": "F5",
          "ticks": 8801,
          "time": 91.67708333333333,
          "velocity": 0.6299212598425197
        },
        {
          "duration": 0.0625,
          "durationTicks": 6,
          "midi": 46,
          "name": "A#2",
          "ticks": 8811,
          "time": 91.78125,
          "velocity": 0.6299212598425197
        },
        {
          "duration": 2.2916666666666714,
          "durationTicks": 220,
          "midi": 73,
          "name": "C#5",
          "ticks": 8816,
          "time": 91.83333333333333,
          "velocity": 0.7559055118110236
        },
        {
          "duration": 10.46875,
          "durationTicks": 1005,
          "midi": 72,
          "name": "C5",
          "ticks": 8824,
          "time": 91.91666666666667,
          "velocity": 0.6929133858267716
        },
        {
          "duration": 10.583333333333329,
          "durationTicks": 1016,
          "midi": 70,
          "name": "A#4",
          "ticks": 8836,
          "time": 92.04166666666667,
          "velocity": 0.7559055118110236
        },
        {
          "duration": 6.59375,
          "durationTicks": 633,
          "midi": 61,
          "name": "C#4",
          "ticks": 8846,
          "time": 92.14583333333333,
          "velocity": 0.6299212598425197
        },
        {
          "duration": 5.927083333333343,
          "durationTicks": 569,
          "midi": 65,
          "name": "F4",
          "ticks": 8846,
          "time": 92.14583333333333,
          "velocity": 0.6929133858267716
        },
        {
          "duration": 1.1875,
          "durationTicks": 114,
          "midi": 58,
          "name": "A#3",
          "ticks": 8848,
          "time": 92.16666666666667,
          "velocity": 0.5039370078740157
        },
        {
          "duration": 1.1666666666666714,
          "durationTicks": 112,
          "midi": 77,
          "name": "F5",
          "ticks": 8850,
          "time": 92.1875,
          "velocity": 0.8188976377952756
        },
        {
          "duration": 11.229166666666657,
          "durationTicks": 1078,
          "midi": 75,
          "name": "D#5",
          "ticks": 8860,
          "time": 92.29166666666667,
          "velocity": 0.7559055118110236
        },
        {
          "duration": 2.354166666666657,
          "durationTicks": 226,
          "midi": 73,
          "name": "C#5",
          "ticks": 8872,
          "time": 92.41666666666667,
          "velocity": 0.7559055118110236
        },
        {
          "duration": 10.177083333333329,
          "durationTicks": 977,
          "midi": 72,
          "name": "C5",
          "ticks": 8886,
          "time": 92.5625,
          "velocity": 0.8188976377952756
        },
        {
          "duration": 10.5,
          "durationTicks": 1008,
          "midi": 70,
          "name": "A#4",
          "ticks": 8895,
          "time": 92.65625,
          "velocity": 0.6929133858267716
        },
        {
          "duration": 10.541666666666671,
          "durationTicks": 1012,
          "midi": 72,
          "name": "C5",
          "ticks": 8907,
          "time": 92.78125,
          "velocity": 0.7559055118110236
        },
        {
          "duration": 9.614583333333329,
          "durationTicks": 923,
          "midi": 73,
          "name": "C#5",
          "ticks": 8917,
          "time": 92.88541666666667,
          "velocity": 0.7559055118110236
        },
        {
          "duration": 10.958333333333329,
          "durationTicks": 1052,
          "midi": 72,
          "name": "C5",
          "ticks": 8938,
          "time": 93.10416666666667,
          "velocity": 0.6299212598425197
        },
        {
          "duration": 9.583333333333329,
          "durationTicks": 920,
          "midi": 73,
          "name": "C#5",
          "ticks": 8952,
          "time": 93.25,
          "velocity": 0.6299212598425197
        },
        {
          "duration": 0.0833333333333286,
          "durationTicks": 8,
          "midi": 39,
          "name": "D#2",
          "ticks": 8962,
          "time": 93.35416666666667,
          "velocity": 0.5669291338582677
        },
        {
          "duration": 11.21875,
          "durationTicks": 1077,
          "midi": 72,
          "name": "C5",
          "ticks": 8977,
          "time": 93.51041666666667,
          "velocity": 0.5039370078740157
        },
        {
          "duration": 9.833333333333343,
          "durationTicks": 944,
          "midi": 73,
          "name": "C#5",
          "ticks": 8987,
          "time": 93.61458333333333,
          "velocity": 0.5669291338582677
        },
        {
          "duration": 0.34375,
          "durationTicks": 33,
          "midi": 58,
          "name": "A#3",
          "ticks": 9003,
          "time": 93.78125,
          "velocity": 0.31496062992125984
        },
        {
          "duration": 5.375,
          "durationTicks": 516,
          "midi": 61,
          "name": "C#4",
          "ticks": 9003,
          "time": 93.78125,
          "velocity": 0.4409448818897638
        },
        {
          "duration": 5.375,
          "durationTicks": 516,
          "midi": 63,
          "name": "D#4",
          "ticks": 9003,
          "time": 93.78125,
          "velocity": 0.31496062992125984
        },
        {
          "duration": 45.47916666666667,
          "durationTicks": 4366,
          "midi": 72,
          "name": "C5",
          "ticks": 9017,
          "time": 93.92708333333333,
          "velocity": 0.5039370078740157
        },
        {
          "duration": 10.15625,
          "durationTicks": 975,
          "midi": 73,
          "name": "C#5",
          "ticks": 9025,
          "time": 94.01041666666667,
          "velocity": 0.5039370078740157
        },
        {
          "duration": 27.39583333333333,
          "durationTicks": 2630,
          "midi": 51,
          "name": "D#3",
          "ticks": 9036,
          "time": 94.125,
          "velocity": 0.4409448818897638
        },
        {
          "duration": 45.72916666666667,
          "durationTicks": 4390,
          "midi": 72,
          "name": "C5",
          "ticks": 9050,
          "time": 94.27083333333333,
          "velocity": 0.5039370078740157
        },
        {
          "duration": 10.572916666666657,
          "durationTicks": 1015,
          "midi": 73,
          "name": "C#5",
          "ticks": 9058,
          "time": 94.35416666666667,
          "velocity": 0.5669291338582677
        },
        {
          "duration": 0.2708333333333286,
          "durationTicks": 26,
          "midi": 58,
          "name": "A#3",
          "ticks": 9072,
          "time": 94.5,
          "velocity": 0.3779527559055118
        },
        {
          "duration": 9.739583333333329,
          "durationTicks": 935,
          "midi": 75,
          "name": "D#5",
          "ticks": 9072,
          "time": 94.5,
          "velocity": 0.5669291338582677
        },
        {
          "duration": 0.2604166666666572,
          "durationTicks": 25,
          "midi": 67,
          "name": "G4",
          "ticks": 9073,
          "time": 94.51041666666667,
          "velocity": 0.3779527559055118
        },
        {
          "duration": 5.083333333333343,
          "durationTicks": 488,
          "midi": 61,
          "name": "C#4",
          "ticks": 9074,
          "time": 94.52083333333333,
          "velocity": 0.31496062992125984
        },
        {
          "duration": 0.15625,
          "durationTicks": 15,
          "midi": 77,
          "name": "F5",
          "ticks": 9083,
          "time": 94.61458333333333,
          "velocity": 0.6299212598425197
        },
        {
          "duration": 10.208333333333329,
          "durationTicks": 980,
          "midi": 75,
          "name": "D#5",
          "ticks": 9093,
          "time": 94.71875,
          "velocity": 0.6299212598425197
        },
        {
          "duration": 0.2604166666666714,
          "durationTicks": 25,
          "midi": 44,
          "name": "G#2",
          "ticks": 9107,
          "time": 94.86458333333333,
          "velocity": 0.5039370078740157
        },
        {
          "duration": 45.75,
          "durationTicks": 4392,
          "midi": 72,
          "name": "C5",
          "ticks": 9108,
          "time": 94.875,
          "velocity": 0.5669291338582677
        },
        {
          "duration": 1.8958333333333286,
          "durationTicks": 182,
          "midi": 68,
          "name": "G#4",
          "ticks": 9126,
          "time": 95.0625,
          "velocity": 0.6299212598425197
        },
        {
          "duration": 5.145833333333329,
          "durationTicks": 494,
          "midi": 56,
          "name": "G#3",
          "ticks": 9139,
          "time": 95.19791666666667,
          "velocity": 0.5039370078740157
        },
        {
          "duration": 3.9479166666666714,
          "durationTicks": 379,
          "midi": 60,
          "name": "C4",
          "ticks": 9140,
          "time": 95.20833333333333,
          "velocity": 0.4409448818897638
        },
        {
          "duration": 0.5,
          "durationTicks": 48,
          "midi": 66,
          "name": "F#4",
          "ticks": 9140,
          "time": 95.20833333333333,
          "velocity": 0.5039370078740157
        },
        {
          "duration": 45.97916666666667,
          "durationTicks": 4414,
          "midi": 72,
          "name": "C5",
          "ticks": 9140,
          "time": 95.20833333333333,
          "velocity": 0.5669291338582677
        },
        {
          "duration": 6.770833333333343,
          "durationTicks": 650,
          "midi": 68,
          "name": "G#4",
          "ticks": 9161,
          "time": 95.42708333333333,
          "velocity": 0.6299212598425197
        },
        {
          "duration": 1.3541666666666714,
          "durationTicks": 130,
          "midi": 66,
          "name": "F#4",
          "ticks": 9173,
          "time": 95.55208333333333,
          "velocity": 0.6299212598425197
        },
        {
          "duration": 5.447916666666671,
          "durationTicks": 523,
          "midi": 56,
          "name": "G#3",
          "ticks": 9174,
          "time": 95.5625,
          "velocity": 0.5669291338582677
        },
        {
          "duration": 3.8958333333333286,
          "durationTicks": 374,
          "midi": 60,
          "name": "C4",
          "ticks": 9175,
          "time": 95.57291666666667,
          "velocity": 0.5669291338582677
        },
        {
          "duration": 2.6354166666666714,
          "durationTicks": 253,
          "midi": 65,
          "name": "F4",
          "ticks": 9188,
          "time": 95.70833333333333,
          "velocity": 0.6299212598425197
        },
        {
          "duration": 5.822916666666671,
          "durationTicks": 559,
          "midi": 63,
          "name": "D#4",
          "ticks": 9197,
          "time": 95.80208333333333,
          "velocity": 0.6299212598425197
        },
        {
          "duration": 11.552083333333329,
          "durationTicks": 1109,
          "midi": 56,
          "name": "G#3",
          "ticks": 9210,
          "time": 95.9375,
          "velocity": 0.4409448818897638
        },
        {
          "duration": 7.166666666666671,
          "durationTicks": 688,
          "midi": 68,
          "name": "G#4",
          "ticks": 9210,
          "time": 95.9375,
          "velocity": 0.5669291338582677
        },
        {
          "duration": 3.875,
          "durationTicks": 372,
          "midi": 60,
          "name": "C4",
          "ticks": 9211,
          "time": 95.94791666666667,
          "velocity": 0.6299212598425197
        },
        {
          "duration": 0.0833333333333286,
          "durationTicks": 8,
          "midi": 67,
          "name": "G4",
          "ticks": 9223,
          "time": 96.07291666666667,
          "velocity": 0.4409448818897638
        },
        {
          "duration": 13.6875,
          "durationTicks": 1314,
          "midi": 68,
          "name": "G#4",
          "ticks": 9231,
          "time": 96.15625,
          "velocity": 0.5039370078740157
        },
        {
          "duration": 0.0833333333333286,
          "durationTicks": 8,
          "midi": 49,
          "name": "C#3",
          "ticks": 9244,
          "time": 96.29166666666667,
          "velocity": 0.5039370078740157
        },
        {
          "duration": 5.489583333333329,
          "durationTicks": 527,
          "midi": 65,
          "name": "F4",
          "ticks": 9244,
          "time": 96.29166666666667,
          "velocity": 0.6299212598425197
        },
        {
          "duration": 0.9166666666666572,
          "durationTicks": 88,
          "midi": 66,
          "name": "F#4",
          "ticks": 9256,
          "time": 96.41666666666667,
          "velocity": 0.5039370078740157
        },
        {
          "duration": 14.729166666666671,
          "durationTicks": 1414,
          "midi": 68,
          "name": "G#4",
          "ticks": 9267,
          "time": 96.53125,
          "velocity": 0.5669291338582677
        },
        {
          "duration": 3.2604166666666714,
          "durationTicks": 313,
          "midi": 61,
          "name": "C#4",
          "ticks": 9279,
          "time": 96.65625,
          "velocity": 0.5039370078740157
        },
        {
          "duration": 7.25,
          "durationTicks": 696,
          "midi": 65,
          "name": "F4",
          "ticks": 9279,
          "time": 96.65625,
          "velocity": 0.6299212598425197
        },
        {
          "duration": 11.135416666666657,
          "durationTicks": 1069,
          "midi": 56,
          "name": "G#3",
          "ticks": 9280,
          "time": 96.66666666666667,
          "velocity": 0.5039370078740157
        },
        {
          "duration": 1.3229166666666714,
          "durationTicks": 127,
          "midi": 66,
          "name": "F#4",
          "ticks": 9288,
          "time": 96.75,
          "velocity": 0.6299212598425197
        },
        {
          "duration": 31.458333333333343,
          "durationTicks": 3020,
          "midi": 68,
          "name": "G#4",
          "ticks": 9300,
          "time": 96.875,
          "velocity": 0.6299212598425197
        },
        {
          "duration": 0.3229166666666572,
          "durationTicks": 31,
          "midi": 46,
          "name": "A#2",
          "ticks": 9313,
          "time": 97.01041666666667,
          "velocity": 0.5669291338582677
        },
        {
          "duration": 12.833333333333329,
          "durationTicks": 1232,
          "midi": 63,
          "name": "D#4",
          "ticks": 9313,
          "time": 97.01041666666667,
          "velocity": 0.6299212598425197
        },
        {
          "duration": 10.666666666666657,
          "durationTicks": 1024,
          "midi": 65,
          "name": "F4",
          "ticks": 9325,
          "time": 97.13541666666667,
          "velocity": 0.5669291338582677
        },
        {
          "duration": 1.125,
          "durationTicks": 108,
          "midi": 66,
          "name": "F#4",
          "ticks": 9333,
          "time": 97.21875,
          "velocity": 0.6299212598425197
        },
        {
          "duration": 3.302083333333343,
          "durationTicks": 317,
          "midi": 61,
          "name": "C#4",
          "ticks": 9347,
          "time": 97.36458333333333,
          "velocity": 0.5669291338582677
        },
        {
          "duration": 0.2395833333333286,
          "durationTicks": 23,
          "midi": 58,
          "name": "A#3",
          "ticks": 9348,
          "time": 97.375,
          "velocity": 0.5669291338582677
        },
        {
          "duration": 44.29166666666667,
          "durationTicks": 4252,
          "midi": 72,
          "name": "C5",
          "ticks": 9358,
          "time": 97.47916666666667,
          "velocity": 0.6929133858267716
        },
        {
          "duration": 0.3541666666666714,
          "durationTicks": 34,
          "midi": 46,
          "name": "A#2",
          "ticks": 9381,
          "time": 97.71875,
          "velocity": 0.5669291338582677
        },
        {
          "duration": 4.166666666666671,
          "durationTicks": 400,
          "midi": 66,
          "name": "F#4",
          "ticks": 9383,
          "time": 97.73958333333333,
          "velocity": 0.6299212598425197
        },
        {
          "duration": 10.625,
          "durationTicks": 1020,
          "midi": 65,
          "name": "F4",
          "ticks": 9394,
          "time": 97.85416666666667,
          "velocity": 0.6299212598425197
        },
        {
          "duration": 12.614583333333343,
          "durationTicks": 1211,
          "midi": 63,
          "name": "D#4",
          "ticks": 9404,
          "time": 97.95833333333333,
          "velocity": 0.6299212598425197
        },
        {
          "duration": 2.3958333333333286,
          "durationTicks": 230,
          "midi": 60,
          "name": "C4",
          "ticks": 9415,
          "time": 98.07291666666667,
          "velocity": 0.6299212598425197
        },
        {
          "duration": 2.9166666666666714,
          "durationTicks": 280,
          "midi": 54,
          "name": "F#3",
          "ticks": 9417,
          "time": 98.09375,
          "velocity": 0.5669291338582677
        },
        {
          "duration": 4.84375,
          "durationTicks": 465,
          "midi": 66,
          "name": "F#4",
          "ticks": 9419,
          "time": 98.11458333333333,
          "velocity": 0.3779527559055118
        },
        {
          "duration": 13.0625,
          "durationTicks": 1254,
          "midi": 65,
          "name": "F4",
          "ticks": 9427,
          "time": 98.19791666666667,
          "velocity": 0.5669291338582677
        },
        {
          "duration": 68.81249999999999,
          "durationTicks": 6606,
          "midi": 63,
          "name": "D#4",
          "ticks": 9439,
          "time": 98.32291666666667,
          "velocity": 0.5669291338582677
        },
        {
          "duration": 3.03125,
          "durationTicks": 291,
          "midi": 61,
          "name": "C#4",
          "ticks": 9453,
          "time": 98.46875,
          "velocity": 0.6299212598425197
        },
        {
          "duration": 0.25,
          "durationTicks": 24,
          "midi": 46,
          "name": "A#2",
          "ticks": 9455,
          "time": 98.48958333333333,
          "velocity": 0.6929133858267716
        },
        {
          "duration": 6.208333333333343,
          "durationTicks": 596,
          "midi": 53,
          "name": "F3",
          "ticks": 9455,
          "time": 98.48958333333333,
          "velocity": 0.6929133858267716
        },
        {
          "duration": 23.09375,
          "durationTicks": 2217,
          "midi": 51,
          "name": "D#3",
          "ticks": 9465,
          "time": 98.59375,
          "velocity": 0.6929133858267716
        },
        {
          "duration": 2.0625,
          "durationTicks": 198,
          "midi": 60,
          "name": "C4",
          "ticks": 9466,
          "time": 98.60416666666667,
          "velocity": 0.6299212598425197
        },
        {
          "duration": 0.4583333333333286,
          "durationTicks": 44,
          "midi": 58,
          "name": "A#3",
          "ticks": 9475,
          "time": 98.69791666666667,
          "velocity": 0.6929133858267716
        },
        {
          "duration": 0.4375,
          "durationTicks": 42,
          "midi": 49,
          "name": "C#3",
          "ticks": 9477,
          "time": 98.71875,
          "velocity": 0.6929133858267716
        },
        {
          "duration": 0.2916666666666714,
          "durationTicks": 28,
          "midi": 48,
          "name": "C3",
          "ticks": 9491,
          "time": 98.86458333333333,
          "velocity": 0.7559055118110236
        },
        {
          "duration": 0.1770833333333286,
          "durationTicks": 17,
          "midi": 46,
          "name": "A#2",
          "ticks": 9502,
          "time": 98.97916666666667,
          "velocity": 0.6929133858267716
        },
        {
          "duration": 3.9895833333333286,
          "durationTicks": 383,
          "midi": 61,
          "name": "C#4",
          "ticks": 9502,
          "time": 98.97916666666667,
          "velocity": 0.6299212598425197
        },
        {
          "duration": 0.09375,
          "durationTicks": 9,
          "midi": 44,
          "name": "G#2",
          "ticks": 9512,
          "time": 99.08333333333333,
          "velocity": 0.6929133858267716
        },
        {
          "duration": 2.3020833333333286,
          "durationTicks": 221,
          "midi": 60,
          "name": "C4",
          "ticks": 9513,
          "time": 99.09375,
          "velocity": 0.6929133858267716
        },
        {
          "duration": 0.6979166666666714,
          "durationTicks": 67,
          "midi": 49,
          "name": "C#3",
          "ticks": 9527,
          "time": 99.23958333333333,
          "velocity": 0.6299212598425197
        },
        {
          "duration": 0.11458333333334281,
          "durationTicks": 11,
          "midi": 58,
          "name": "A#3",
          "ticks": 9527,
          "time": 99.23958333333333,
          "velocity": 0.6929133858267716
        },
        {
          "duration": 4.552083333333329,
          "durationTicks": 437,
          "midi": 60,
          "name": "C4",
          "ticks": 9538,
          "time": 99.35416666666667,
          "velocity": 0.6299212598425197
        },
        {
          "duration": 4.052083333333329,
          "durationTicks": 389,
          "midi": 61,
          "name": "C#4",
          "ticks": 9549,
          "time": 99.46875,
          "velocity": 0.5669291338582677
        },
        {
          "duration": 0.21875,
          "durationTicks": 21,
          "midi": 58,
          "name": "A#3",
          "ticks": 9562,
          "time": 99.60416666666667,
          "velocity": 0.6299212598425197
        },
        {
          "duration": 7.78125,
          "durationTicks": 747,
          "midi": 60,
          "name": "C4",
          "ticks": 9572,
          "time": 99.70833333333333,
          "velocity": 0.6929133858267716
        },
        {
          "duration": 5.78125,
          "durationTicks": 555,
          "midi": 61,
          "name": "C#4",
          "ticks": 9583,
          "time": 99.82291666666667,
          "velocity": 0.6299212598425197
        },
        {
          "duration": 0.71875,
          "durationTicks": 69,
          "midi": 46,
          "name": "A#2",
          "ticks": 9595,
          "time": 99.94791666666667,
          "velocity": 0.6299212598425197
        },
        {
          "duration": 6.46875,
          "durationTicks": 621,
          "midi": 54,
          "name": "F#3",
          "ticks": 9596,
          "time": 99.95833333333333,
          "velocity": 0.6929133858267716
        },
        {
          "duration": 8.34375,
          "durationTicks": 801,
          "midi": 56,
          "name": "G#3",
          "ticks": 9613,
          "time": 100.13541666666667,
          "velocity": 0.4409448818897638
        },
        {
          "duration": 0.2395833333333286,
          "durationTicks": 23,
          "midi": 58,
          "name": "A#3",
          "ticks": 9622,
          "time": 100.22916666666667,
          "velocity": 0.5669291338582677
        },
        {
          "duration": 9.5,
          "durationTicks": 912,
          "midi": 60,
          "name": "C4",
          "ticks": 9633,
          "time": 100.34375,
          "velocity": 0.5669291338582677
        },
        {
          "duration": 5.583333333333329,
          "durationTicks": 536,
          "midi": 61,
          "name": "C#4",
          "ticks": 9645,
          "time": 100.46875,
          "velocity": 0.5669291338582677
        },
        {
          "duration": 10,
          "durationTicks": 960,
          "midi": 60,
          "name": "C4",
          "ticks": 9655,
          "time": 100.57291666666667,
          "velocity": 0.5669291338582677
        },
        {
          "duration": 0.8020833333333286,
          "durationTicks": 77,
          "midi": 45,
          "name": "A2",
          "ticks": 9664,
          "time": 100.66666666666667,
          "velocity": 0.4409448818897638
        },
        {
          "duration": 4.96875,
          "durationTicks": 477,
          "midi": 53,
          "name": "F3",
          "ticks": 9669,
          "time": 100.71875,
          "velocity": 0.5669291338582677
        },
        {
          "duration": 5.979166666666671,
          "durationTicks": 574,
          "midi": 54,
          "name": "F#3",
          "ticks": 9681,
          "time": 100.84375,
          "velocity": 0.5669291338582677
        },
        {
          "duration": 8.21875,
          "durationTicks": 789,
          "midi": 56,
          "name": "G#3",
          "ticks": 9692,
          "time": 100.95833333333333,
          "velocity": 0.5039370078740157
        },
        {
          "duration": 0.0625,
          "durationTicks": 6,
          "midi": 57,
          "name": "A3",
          "ticks": 9702,
          "time": 101.0625,
          "velocity": 0.5039370078740157
        },
        {
          "duration": 0.0625,
          "durationTicks": 6,
          "midi": 58,
          "name": "A#3",
          "ticks": 9713,
          "time": 101.17708333333333,
          "velocity": 0.5669291338582677
        },
        {
          "duration": 18.479166666666657,
          "durationTicks": 1774,
          "midi": 60,
          "name": "C4",
          "ticks": 9724,
          "time": 101.29166666666667,
          "velocity": 0.5039370078740157
        },
        {
          "duration": 0.2291666666666714,
          "durationTicks": 22,
          "midi": 44,
          "name": "G#2",
          "ticks": 9735,
          "time": 101.40625,
          "velocity": 0.5039370078740157
        },
        {
          "duration": 6.385416666666657,
          "durationTicks": 613,
          "midi": 61,
          "name": "C#4",
          "ticks": 9736,
          "time": 101.41666666666667,
          "velocity": 0.5669291338582677
        },
        {
          "duration": 10.270833333333329,
          "durationTicks": 986,
          "midi": 65,
          "name": "F4",
          "ticks": 9763,
          "time": 101.69791666666667,
          "velocity": 0.4409448818897638
        },
        {
          "duration": 1.6666666666666714,
          "durationTicks": 160,
          "midi": 66,
          "name": "F#4",
          "ticks": 9771,
          "time": 101.78125,
          "velocity": 0.4409448818897638
        },
        {
          "duration": 0.2916666666666714,
          "durationTicks": 28,
          "midi": 67,
          "name": "G4",
          "ticks": 9783,
          "time": 101.90625,
          "velocity": 0.5039370078740157
        },
        {
          "duration": 36.57291666666667,
          "durationTicks": 3511,
          "midi": 68,
          "name": "G#4",
          "ticks": 9797,
          "time": 102.05208333333333,
          "velocity": 0.4409448818897638
        },
        {
          "duration": 40.29166666666667,
          "durationTicks": 3868,
          "midi": 72,
          "name": "C5",
          "ticks": 9820,
          "time": 102.29166666666667,
          "velocity": 0.6299212598425197
        },
        {
          "duration": 3.1979166666666714,
          "durationTicks": 307,
          "midi": 73,
          "name": "C#5",
          "ticks": 9830,
          "time": 102.39583333333333,
          "velocity": 0.5669291338582677
        },
        {
          "duration": 45.98958333333333,
          "durationTicks": 4415,
          "midi": 72,
          "name": "C5",
          "ticks": 9854,
          "time": 102.64583333333333,
          "velocity": 0.6299212598425197
        },
        {
          "duration": 3.6770833333333286,
          "durationTicks": 353,
          "midi": 73,
          "name": "C#5",
          "ticks": 9864,
          "time": 102.75,
          "velocity": 0.5039370078740157
        },
        {
          "duration": 4.604166666666657,
          "durationTicks": 442,
          "midi": 66,
          "name": "F#4",
          "ticks": 9877,
          "time": 102.88541666666667,
          "velocity": 0.5039370078740157
        },
        {
          "duration": 0.08333333333334281,
          "durationTicks": 8,
          "midi": 58,
          "name": "A#3",
          "ticks": 9878,
          "time": 102.89583333333333,
          "velocity": 0.3779527559055118
        },
        {
          "duration": 5.583333333333343,
          "durationTicks": 536,
          "midi": 61,
          "name": "C#4",
          "ticks": 9878,
          "time": 102.89583333333333,
          "velocity": 0.4409448818897638
        },
        {
          "duration": 36.125,
          "durationTicks": 3468,
          "midi": 68,
          "name": "G#4",
          "ticks": 9888,
          "time": 103,
          "velocity": 0.5039370078740157
        },
        {
          "duration": 45.98958333333333,
          "durationTicks": 4415,
          "midi": 72,
          "name": "C5",
          "ticks": 9911,
          "time": 103.23958333333333,
          "velocity": 0.5669291338582677
        },
        {
          "duration": 0.3229166666666714,
          "durationTicks": 31,
          "midi": 58,
          "name": "A#3",
          "ticks": 9912,
          "time": 103.25,
          "velocity": 0.4409448818897638
        },
        {
          "duration": 5.927083333333329,
          "durationTicks": 569,
          "midi": 61,
          "name": "C#4",
          "ticks": 9912,
          "time": 103.25,
          "velocity": 0.4409448818897638
        },
        {
          "duration": 5.90625,
          "durationTicks": 567,
          "midi": 66,
          "name": "F#4",
          "ticks": 9914,
          "time": 103.27083333333333,
          "velocity": 0.3779527559055118
        },
        {
          "duration": 53.48958333333333,
          "durationTicks": 5135,
          "midi": 73,
          "name": "C#5",
          "ticks": 9920,
          "time": 103.33333333333333,
          "velocity": 0.5669291338582677
        },
        {
          "duration": 2.229166666666657,
          "durationTicks": 214,
          "midi": 75,
          "name": "D#5",
          "ticks": 9931,
          "time": 103.44791666666667,
          "velocity": 0.5669291338582677
        },
        {
          "duration": 0.1354166666666714,
          "durationTicks": 13,
          "midi": 57,
          "name": "A3",
          "ticks": 9944,
          "time": 103.58333333333333,
          "velocity": 0.5039370078740157
        },
        {
          "duration": 34.625000000000014,
          "durationTicks": 3324,
          "midi": 60,
          "name": "C4",
          "ticks": 9944,
          "time": 103.58333333333333,
          "velocity": 0.5039370078740157
        },
        {
          "duration": 0.1145833333333286,
          "durationTicks": 11,
          "midi": 77,
          "name": "F5",
          "ticks": 9945,
          "time": 103.59375,
          "velocity": 0.5669291338582677
        },
        {
          "duration": 9.125,
          "durationTicks": 876,
          "midi": 65,
          "name": "F4",
          "ticks": 9947,
          "time": 103.61458333333333,
          "velocity": 0.5039370078740157
        },
        {
          "duration": 0.2083333333333286,
          "durationTicks": 20,
          "midi": 78,
          "name": "F#5",
          "ticks": 9955,
          "time": 103.69791666666667,
          "velocity": 0.5669291338582677
        },
        {
          "duration": 0.0625,
          "durationTicks": 6,
          "midi": 77,
          "name": "F5",
          "ticks": 9969,
          "time": 103.84375,
          "velocity": 0.4409448818897638
        },
        {
          "duration": 45.86458333333334,
          "durationTicks": 4403,
          "midi": 72,
          "name": "C5",
          "ticks": 9981,
          "time": 103.96875,
          "velocity": 0.6299212598425197
        },
        {
          "duration": 60.35416666666666,
          "durationTicks": 5794,
          "midi": 73,
          "name": "C#5",
          "ticks": 9993,
          "time": 104.09375,
          "velocity": 0.5669291338582677
        },
        {
          "duration": 2.25,
          "durationTicks": 216,
          "midi": 75,
          "name": "D#5",
          "ticks": 10001,
          "time": 104.17708333333333,
          "velocity": 0.6299212598425197
        },
        {
          "duration": 0.08333333333334281,
          "durationTicks": 8,
          "midi": 77,
          "name": "F5",
          "ticks": 10013,
          "time": 104.30208333333333,
          "velocity": 0.6299212598425197
        },
        {
          "duration": 0.09375,
          "durationTicks": 9,
          "midi": 78,
          "name": "F#5",
          "ticks": 10024,
          "time": 104.41666666666667,
          "velocity": 0.6299212598425197
        },
        {
          "duration": 0.04166666666665719,
          "durationTicks": 4,
          "midi": 77,
          "name": "F5",
          "ticks": 10033,
          "time": 104.51041666666667,
          "velocity": 0.5669291338582677
        },
        {
          "duration": 0.041666666666671404,
          "durationTicks": 4,
          "midi": 57,
          "name": "A3",
          "ticks": 10046,
          "time": 104.64583333333333,
          "velocity": 0.5039370078740157
        },
        {
          "duration": 45.76041666666666,
          "durationTicks": 4393,
          "midi": 72,
          "name": "C5",
          "ticks": 10047,
          "time": 104.65625,
          "velocity": 0.5039370078740157
        },
        {
          "duration": 16.40625,
          "durationTicks": 1575,
          "midi": 53,
          "name": "F3",
          "ticks": 10048,
          "time": 104.66666666666667,
          "velocity": 0.5669291338582677
        },
        {
          "duration": 36.32291666666667,
          "durationTicks": 3487,
          "midi": 75,
          "name": "D#5",
          "ticks": 10067,
          "time": 104.86458333333333,
          "velocity": 0.6299212598425197
        },
        {
          "duration": 0.04166666666665719,
          "durationTicks": 4,
          "midi": 46,
          "name": "A#2",
          "ticks": 10078,
          "time": 104.97916666666667,
          "velocity": 0.5039370078740157
        },
        {
          "duration": 0.05208333333334281,
          "durationTicks": 5,
          "midi": 77,
          "name": "F5",
          "ticks": 10079,
          "time": 104.98958333333333,
          "velocity": 0.5669291338582677
        },
        {
          "duration": 60.01041666666667,
          "durationTicks": 5761,
          "midi": 53,
          "name": "F3",
          "ticks": 10081,
          "time": 105.01041666666667,
          "velocity": 0.5669291338582677
        },
        {
          "duration": 0.6145833333333286,
          "durationTicks": 59,
          "midi": 58,
          "name": "A#3",
          "ticks": 10086,
          "time": 105.0625,
          "velocity": 0.5039370078740157
        },
        {
          "duration": 6.125,
          "durationTicks": 588,
          "midi": 61,
          "name": "C#4",
          "ticks": 10093,
          "time": 105.13541666666667,
          "velocity": 0.5669291338582677
        },
        {
          "duration": 0.0833333333333286,
          "durationTicks": 8,
          "midi": 78,
          "name": "F#5",
          "ticks": 10093,
          "time": 105.13541666666667,
          "velocity": 0.5039370078740157
        },
        {
          "duration": 0.8020833333333286,
          "durationTicks": 77,
          "midi": 80,
          "name": "G#5",
          "ticks": 10104,
          "time": 105.25,
          "velocity": 0.5669291338582677
        },
        {
          "duration": 0.1145833333333286,
          "durationTicks": 11,
          "midi": 78,
          "name": "F#5",
          "ticks": 10116,
          "time": 105.375,
          "velocity": 0.4409448818897638
        },
        {
          "duration": 36.17708333333334,
          "durationTicks": 3473,
          "midi": 75,
          "name": "D#5",
          "ticks": 10137,
          "time": 105.59375,
          "velocity": 0.6299212598425197
        },
        {
          "duration": 0.052083333333328596,
          "durationTicks": 5,
          "midi": 77,
          "name": "F5",
          "ticks": 10147,
          "time": 105.69791666666667,
          "velocity": 0.6299212598425197
        },
        {
          "duration": 0.2291666666666572,
          "durationTicks": 22,
          "midi": 58,
          "name": "A#3",
          "ticks": 10159,
          "time": 105.82291666666667,
          "velocity": 0.5039370078740157
        },
        {
          "duration": 6.135416666666671,
          "durationTicks": 589,
          "midi": 61,
          "name": "C#4",
          "ticks": 10160,
          "time": 105.83333333333333,
          "velocity": 0.5039370078740157
        },
        {
          "duration": 0.2604166666666714,
          "durationTicks": 25,
          "midi": 78,
          "name": "F#5",
          "ticks": 10161,
          "time": 105.84375,
          "velocity": 0.6929133858267716
        },
        {
          "duration": 0.875,
          "durationTicks": 84,
          "midi": 80,
          "name": "G#5",
          "ticks": 10171,
          "time": 105.94791666666667,
          "velocity": 0.5669291338582677
        },
        {
          "duration": 0.7708333333333428,
          "durationTicks": 74,
          "midi": 78,
          "name": "F#5",
          "ticks": 10181,
          "time": 106.05208333333333,
          "velocity": 0.5669291338582677
        },
        {
          "duration": 14.604166666666671,
          "durationTicks": 1402,
          "midi": 54,
          "name": "F#3",
          "ticks": 10194,
          "time": 106.1875,
          "velocity": 0.5039370078740157
        },
        {
          "duration": 0.1770833333333286,
          "durationTicks": 17,
          "midi": 58,
          "name": "A#3",
          "ticks": 10200,
          "time": 106.25,
          "velocity": 0.4409448818897638
        },
        {
          "duration": 38.19791666666667,
          "durationTicks": 3667,
          "midi": 75,
          "name": "D#5",
          "ticks": 10204,
          "time": 106.29166666666667,
          "velocity": 0.6929133858267716
        },
        {
          "duration": 0.0625,
          "durationTicks": 6,
          "midi": 77,
          "name": "F5",
          "ticks": 10217,
          "time": 106.42708333333333,
          "velocity": 0.6299212598425197
        },
        {
          "duration": 34.67708333333333,
          "durationTicks": 3329,
          "midi": 78,
          "name": "F#5",
          "ticks": 10228,
          "time": 106.54166666666667,
          "velocity": 0.6929133858267716
        },
        {
          "duration": 14.375,
          "durationTicks": 1380,
          "midi": 54,
          "name": "F#3",
          "ticks": 10231,
          "time": 106.57291666666667,
          "velocity": 0.5039370078740157
        },
        {
          "duration": 0.8333333333333286,
          "durationTicks": 80,
          "midi": 80,
          "name": "G#5",
          "ticks": 10239,
          "time": 106.65625,
          "velocity": 0.6929133858267716
        },
        {
          "duration": 0.0625,
          "durationTicks": 6,
          "midi": 82,
          "name": "A#5",
          "ticks": 10249,
          "time": 106.76041666666667,
          "velocity": 0.6929133858267716
        },
        {
          "duration": 0.08333333333334281,
          "durationTicks": 8,
          "midi": 44,
          "name": "G#2",
          "ticks": 10262,
          "time": 106.89583333333333,
          "velocity": 0.6929133858267716
        },
        {
          "duration": 0.6458333333333428,
          "durationTicks": 62,
          "midi": 84,
          "name": "C6",
          "ticks": 10262,
          "time": 106.89583333333333,
          "velocity": 0.7559055118110236
        },
        {
          "duration": 0.4895833333333286,
          "durationTicks": 47,
          "midi": 85,
          "name": "C#6",
          "ticks": 10272,
          "time": 107,
          "velocity": 0.6929133858267716
        },
        {
          "duration": 1.0833333333333428,
          "durationTicks": 104,
          "midi": 84,
          "name": "C6",
          "ticks": 10283,
          "time": 107.11458333333333,
          "velocity": 0.6929133858267716
        },
        {
          "duration": 0.9166666666666572,
          "durationTicks": 88,
          "midi": 80,
          "name": "G#5",
          "ticks": 10294,
          "time": 107.22916666666667,
          "velocity": 0.7559055118110236
        },
        {
          "duration": 31.552083333333343,
          "durationTicks": 3029,
          "midi": 60,
          "name": "C4",
          "ticks": 10296,
          "time": 107.25,
          "velocity": 0.6299212598425197
        },
        {
          "duration": 2.59375,
          "durationTicks": 249,
          "midi": 66,
          "name": "F#4",
          "ticks": 10296,
          "time": 107.25,
          "velocity": 0.6299212598425197
        },
        {
          "duration": 2.5833333333333286,
          "durationTicks": 248,
          "midi": 56,
          "name": "G#3",
          "ticks": 10297,
          "time": 107.26041666666667,
          "velocity": 0.5039370078740157
        },
        {
          "duration": 0.1354166666666572,
          "durationTicks": 13,
          "midi": 82,
          "name": "A#5",
          "ticks": 10306,
          "time": 107.35416666666667,
          "velocity": 0.7559055118110236
        },
        {
          "duration": 1.40625,
          "durationTicks": 135,
          "midi": 84,
          "name": "C6",
          "ticks": 10316,
          "time": 107.45833333333333,
          "velocity": 0.7559055118110236
        },
        {
          "duration": 6.0625,
          "durationTicks": 582,
          "midi": 65,
          "name": "F4",
          "ticks": 10327,
          "time": 107.57291666666667,
          "velocity": 0.6929133858267716
        },
        {
          "duration": 5.15625,
          "durationTicks": 495,
          "midi": 61,
          "name": "C#4",
          "ticks": 10328,
          "time": 107.58333333333333,
          "velocity": 0.6299212598425197
        },
        {
          "duration": 0.3020833333333428,
          "durationTicks": 29,
          "midi": 85,
          "name": "C#6",
          "ticks": 10328,
          "time": 107.58333333333333,
          "velocity": 0.7559055118110236
        },
        {
          "duration": 3.6666666666666714,
          "durationTicks": 352,
          "midi": 56,
          "name": "G#3",
          "ticks": 10329,
          "time": 107.59375,
          "velocity": 0.6299212598425197
        },
        {
          "duration": 0.125,
          "durationTicks": 12,
          "midi": 87,
          "name": "D#6",
          "ticks": 10337,
          "time": 107.67708333333333,
          "velocity": 0.6929133858267716
        },
        {
          "duration": 0.7395833333333428,
          "durationTicks": 71,
          "midi": 85,
          "name": "C#6",
          "ticks": 10349,
          "time": 107.80208333333333,
          "velocity": 0.6299212598425197
        },
        {
          "duration": 0.0625,
          "durationTicks": 6,
          "midi": 44,
          "name": "G#2",
          "ticks": 10358,
          "time": 107.89583333333333,
          "velocity": 0.6299212598425197
        },
        {
          "duration": 0.8958333333333286,
          "durationTicks": 86,
          "midi": 80,
          "name": "G#5",
          "ticks": 10360,
          "time": 107.91666666666667,
          "velocity": 0.6929133858267716
        },
        {
          "duration": 0.1145833333333286,
          "durationTicks": 11,
          "midi": 82,
          "name": "A#5",
          "ticks": 10371,
          "time": 108.03125,
          "velocity": 0.6929133858267716
        },
        {
          "duration": 1.6979166666666714,
          "durationTicks": 163,
          "midi": 84,
          "name": "C6",
          "ticks": 10382,
          "time": 108.14583333333333,
          "velocity": 0.5669291338582677
        },
        {
          "duration": 1,
          "durationTicks": 96,
          "midi": 85,
          "name": "C#6",
          "ticks": 10392,
          "time": 108.25,
          "velocity": 0.7559055118110236
        },
        {
          "duration": 8.020833333333329,
          "durationTicks": 770,
          "midi": 61,
          "name": "C#4",
          "ticks": 10393,
          "time": 108.26041666666667,
          "velocity": 0.6299212598425197
        },
        {
          "duration": 8.020833333333329,
          "durationTicks": 770,
          "midi": 65,
          "name": "F4",
          "ticks": 10393,
          "time": 108.26041666666667,
          "velocity": 0.7559055118110236
        },
        {
          "duration": 3.6979166666666714,
          "durationTicks": 355,
          "midi": 56,
          "name": "G#3",
          "ticks": 10394,
          "time": 108.27083333333333,
          "velocity": 0.6299212598425197
        },
        {
          "duration": 0.09375,
          "durationTicks": 9,
          "midi": 87,
          "name": "D#6",
          "ticks": 10405,
          "time": 108.38541666666667,
          "velocity": 0.5669291338582677
        },
        {
          "duration": 1.3645833333333286,
          "durationTicks": 131,
          "midi": 85,
          "name": "C#6",
          "ticks": 10414,
          "time": 108.47916666666667,
          "velocity": 0.5669291338582677
        },
        {
          "duration": 1.2604166666666714,
          "durationTicks": 121,
          "midi": 80,
          "name": "G#5",
          "ticks": 10424,
          "time": 108.58333333333333,
          "velocity": 0.6929133858267716
        },
        {
          "duration": 0.052083333333328596,
          "durationTicks": 5,
          "midi": 44,
          "name": "G#2",
          "ticks": 10425,
          "time": 108.59375,
          "velocity": 0.7559055118110236
        },
        {
          "duration": 0.1041666666666714,
          "durationTicks": 10,
          "midi": 82,
          "name": "A#5",
          "ticks": 10436,
          "time": 108.70833333333333,
          "velocity": 0.6929133858267716
        },
        {
          "duration": 1.7604166666666714,
          "durationTicks": 169,
          "midi": 84,
          "name": "C6",
          "ticks": 10446,
          "time": 108.8125,
          "velocity": 0.6299212598425197
        },
        {
          "duration": 1.6458333333333428,
          "durationTicks": 158,
          "midi": 66,
          "name": "F#4",
          "ticks": 10457,
          "time": 108.92708333333333,
          "velocity": 0.6929133858267716
        },
        {
          "duration": 1.6458333333333428,
          "durationTicks": 158,
          "midi": 85,
          "name": "C#6",
          "ticks": 10457,
          "time": 108.92708333333333,
          "velocity": 0.7559055118110236
        },
        {
          "duration": 3.8020833333333286,
          "durationTicks": 365,
          "midi": 56,
          "name": "G#3",
          "ticks": 10458,
          "time": 108.9375,
          "velocity": 0.5039370078740157
        },
        {
          "duration": 10.708333333333329,
          "durationTicks": 1028,
          "midi": 61,
          "name": "C#4",
          "ticks": 10458,
          "time": 108.9375,
          "velocity": 0.5039370078740157
        },
        {
          "duration": 0.125,
          "durationTicks": 12,
          "midi": 87,
          "name": "D#6",
          "ticks": 10469,
          "time": 109.05208333333333,
          "velocity": 0.6929133858267716
        },
        {
          "duration": 2.083333333333343,
          "durationTicks": 200,
          "midi": 85,
          "name": "C#6",
          "ticks": 10481,
          "time": 109.17708333333333,
          "velocity": 0.6299212598425197
        },
        {
          "duration": 0.020833333333342807,
          "durationTicks": 2,
          "midi": 44,
          "name": "G#2",
          "ticks": 10490,
          "time": 109.27083333333333,
          "velocity": 0.6929133858267716
        },
        {
          "duration": 1.9791666666666714,
          "durationTicks": 190,
          "midi": 80,
          "name": "G#5",
          "ticks": 10491,
          "time": 109.28125,
          "velocity": 0.6929133858267716
        },
        {
          "duration": 0.4583333333333286,
          "durationTicks": 44,
          "midi": 82,
          "name": "A#5",
          "ticks": 10501,
          "time": 109.38541666666667,
          "velocity": 0.6929133858267716
        },
        {
          "duration": 1.875,
          "durationTicks": 180,
          "midi": 84,
          "name": "C6",
          "ticks": 10512,
          "time": 109.5,
          "velocity": 0.6929133858267716
        },
        {
          "duration": 2.3541666666666714,
          "durationTicks": 226,
          "midi": 85,
          "name": "C#6",
          "ticks": 10523,
          "time": 109.61458333333333,
          "velocity": 0.6929133858267716
        },
        {
          "duration": 37.79166666666667,
          "durationTicks": 3628,
          "midi": 60,
          "name": "C4",
          "ticks": 10525,
          "time": 109.63541666666667,
          "velocity": 0.5039370078740157
        },
        {
          "duration": 30.02083333333333,
          "durationTicks": 2882,
          "midi": 68,
          "name": "G#4",
          "ticks": 10525,
          "time": 109.63541666666667,
          "velocity": 0.5669291338582677
        },
        {
          "duration": 34.843750000000014,
          "durationTicks": 3345,
          "midi": 66,
          "name": "F#4",
          "ticks": 10526,
          "time": 109.64583333333333,
          "velocity": 0.5039370078740157
        },
        {
          "duration": 0.1145833333333286,
          "durationTicks": 11,
          "midi": 87,
          "name": "D#6",
          "ticks": 10534,
          "time": 109.72916666666667,
          "velocity": 0.6929133858267716
        },
        {
          "duration": 0.1145833333333286,
          "durationTicks": 11,
          "midi": 89,
          "name": "F6",
          "ticks": 10545,
          "time": 109.84375,
          "velocity": 0.6929133858267716
        },
        {
          "duration": 0.041666666666671404,
          "durationTicks": 4,
          "midi": 37,
          "name": "C#2",
          "ticks": 10557,
          "time": 109.96875,
          "velocity": 0.6299212598425197
        },
        {
          "duration": 0.7291666666666714,
          "durationTicks": 70,
          "midi": 87,
          "name": "D#6",
          "ticks": 10557,
          "time": 109.96875,
          "velocity": 0.6929133858267716
        },
        {
          "duration": 0.05208333333334281,
          "durationTicks": 5,
          "midi": 49,
          "name": "C#3",
          "ticks": 10559,
          "time": 109.98958333333333,
          "velocity": 0.5039370078740157
        },
        {
          "duration": 0.4895833333333428,
          "durationTicks": 47,
          "midi": 89,
          "name": "F6",
          "ticks": 10568,
          "time": 110.08333333333333,
          "velocity": 0.6929133858267716
        },
        {
          "duration": 1.0625,
          "durationTicks": 102,
          "midi": 87,
          "name": "D#6",
          "ticks": 10579,
          "time": 110.19791666666667,
          "velocity": 0.6299212598425197
        },
        {
          "duration": 43.41666666666667,
          "durationTicks": 4168,
          "midi": 66,
          "name": "F#4",
          "ticks": 10592,
          "time": 110.33333333333333,
          "velocity": 0.6299212598425197
        },
        {
          "duration": 37.69791666666666,
          "durationTicks": 3619,
          "midi": 60,
          "name": "C4",
          "ticks": 10593,
          "time": 110.34375,
          "velocity": 0.5669291338582677
        },
        {
          "duration": 1.7083333333333286,
          "durationTicks": 164,
          "midi": 84,
          "name": "C6",
          "ticks": 10593,
          "time": 110.34375,
          "velocity": 0.7559055118110236
        },
        {
          "duration": 2.2708333333333286,
          "durationTicks": 218,
          "midi": 85,
          "name": "C#6",
          "ticks": 10605,
          "time": 110.46875,
          "velocity": 0.5669291338582677
        },
        {
          "duration": 1.3958333333333286,
          "durationTicks": 134,
          "midi": 87,
          "name": "D#6",
          "ticks": 10615,
          "time": 110.57291666666667,
          "velocity": 0.7559055118110236
        },
        {
          "duration": 47.36458333333333,
          "durationTicks": 4547,
          "midi": 61,
          "name": "C#4",
          "ticks": 10627,
          "time": 110.69791666666667,
          "velocity": 0.5669291338582677
        },
        {
          "duration": 17.48958333333333,
          "durationTicks": 1679,
          "midi": 65,
          "name": "F4",
          "ticks": 10627,
          "time": 110.69791666666667,
          "velocity": 0.6299212598425197
        },
        {
          "duration": 2.9375,
          "durationTicks": 282,
          "midi": 85,
          "name": "C#6",
          "ticks": 10627,
          "time": 110.69791666666667,
          "velocity": 0.8188976377952756
        },
        {
          "duration": 2.927083333333343,
          "durationTicks": 281,
          "midi": 56,
          "name": "G#3",
          "ticks": 10628,
          "time": 110.70833333333333,
          "velocity": 0.5669291338582677
        },
        {
          "duration": 1.9479166666666572,
          "durationTicks": 187,
          "midi": 87,
          "name": "D#6",
          "ticks": 10636,
          "time": 110.79166666666667,
          "velocity": 0.7559055118110236
        },
        {
          "duration": 2.90625,
          "durationTicks": 279,
          "midi": 85,
          "name": "C#6",
          "ticks": 10647,
          "time": 110.90625,
          "velocity": 0.6929133858267716
        },
        {
          "duration": 0.9375,
          "durationTicks": 90,
          "midi": 80,
          "name": "G#5",
          "ticks": 10659,
          "time": 111.03125,
          "velocity": 0.7559055118110236
        },
        {
          "duration": 18.13541666666667,
          "durationTicks": 1741,
          "midi": 65,
          "name": "F4",
          "ticks": 10660,
          "time": 111.04166666666667,
          "velocity": 0.6299212598425197
        },
        {
          "duration": 29.22916666666667,
          "durationTicks": 2806,
          "midi": 68,
          "name": "G#4",
          "ticks": 10660,
          "time": 111.04166666666667,
          "velocity": 0.6299212598425197
        },
        {
          "duration": 53.23958333333333,
          "durationTicks": 5111,
          "midi": 61,
          "name": "C#4",
          "ticks": 10661,
          "time": 111.05208333333333,
          "velocity": 0.6299212598425197
        },
        {
          "duration": 0.125,
          "durationTicks": 12,
          "midi": 82,
          "name": "A#5",
          "ticks": 10671,
          "time": 111.15625,
          "velocity": 0.8188976377952756
        },
        {
          "duration": 1.53125,
          "durationTicks": 147,
          "midi": 84,
          "name": "C6",
          "ticks": 10681,
          "time": 111.26041666666667,
          "velocity": 0.6929133858267716
        },
        {
          "duration": 18.031249999999986,
          "durationTicks": 1731,
          "midi": 65,
          "name": "F4",
          "ticks": 10693,
          "time": 111.38541666666667,
          "velocity": 0.7559055118110236
        },
        {
          "duration": 3.625,
          "durationTicks": 348,
          "midi": 85,
          "name": "C#6",
          "ticks": 10693,
          "time": 111.38541666666667,
          "velocity": 0.8188976377952756
        },
        {
          "duration": 4.885416666666671,
          "durationTicks": 469,
          "midi": 56,
          "name": "G#3",
          "ticks": 10694,
          "time": 111.39583333333333,
          "velocity": 0.6929133858267716
        },
        {
          "duration": 2.145833333333343,
          "durationTicks": 206,
          "midi": 87,
          "name": "D#6",
          "ticks": 10703,
          "time": 111.48958333333333,
          "velocity": 0.7559055118110236
        },
        {
          "duration": 1.0104166666666572,
          "durationTicks": 97,
          "midi": 80,
          "name": "G#5",
          "ticks": 10726,
          "time": 111.72916666666667,
          "velocity": 0.7559055118110236
        },
        {
          "duration": 0.125,
          "durationTicks": 12,
          "midi": 82,
          "name": "A#5",
          "ticks": 10737,
          "time": 111.84375,
          "velocity": 0.6929133858267716
        },
        {
          "duration": 1.6666666666666714,
          "durationTicks": 160,
          "midi": 84,
          "name": "C6",
          "ticks": 10749,
          "time": 111.96875,
          "velocity": 0.7559055118110236
        },
        {
          "duration": 27.322916666666657,
          "durationTicks": 2623,
          "midi": 65,
          "name": "F4",
          "ticks": 10761,
          "time": 112.09375,
          "velocity": 0.8188976377952756
        },
        {
          "duration": 8.239583333333329,
          "durationTicks": 791,
          "midi": 56,
          "name": "G#3",
          "ticks": 10762,
          "time": 112.10416666666667,
          "velocity": 0.7559055118110236
        },
        {
          "duration": 2.614583333333343,
          "durationTicks": 251,
          "midi": 87,
          "name": "D#6",
          "ticks": 10769,
          "time": 112.17708333333333,
          "velocity": 0.6929133858267716
        },
        {
          "duration": 1.1875,
          "durationTicks": 114,
          "midi": 80,
          "name": "G#5",
          "ticks": 10795,
          "time": 112.44791666666667,
          "velocity": 0.6929133858267716
        },
        {
          "duration": 0.15625,
          "durationTicks": 15,
          "midi": 82,
          "name": "A#5",
          "ticks": 10808,
          "time": 112.58333333333333,
          "velocity": 0.6929133858267716
        },
        {
          "duration": 2.083333333333343,
          "durationTicks": 200,
          "midi": 84,
          "name": "C6",
          "ticks": 10820,
          "time": 112.70833333333333,
          "velocity": 0.6929133858267716
        },
        {
          "duration": 32.29166666666666,
          "durationTicks": 3100,
          "midi": 65,
          "name": "F4",
          "ticks": 10833,
          "time": 112.84375,
          "velocity": 0.7559055118110236
        },
        {
          "duration": 7.645833333333329,
          "durationTicks": 734,
          "midi": 56,
          "name": "G#3",
          "ticks": 10834,
          "time": 112.85416666666667,
          "velocity": 0.6929133858267716
        },
        {
          "duration": 3.3229166666666714,
          "durationTicks": 319,
          "midi": 87,
          "name": "D#6",
          "ticks": 10844,
          "time": 112.95833333333333,
          "velocity": 0.6929133858267716
        },
        {
          "duration": 1.5625,
          "durationTicks": 150,
          "midi": 80,
          "name": "G#5",
          "ticks": 10870,
          "time": 113.22916666666667,
          "velocity": 0.6299212598425197
        },
        {
          "duration": 0.2604166666666714,
          "durationTicks": 25,
          "midi": 82,
          "name": "A#5",
          "ticks": 10884,
          "time": 113.375,
          "velocity": 0.5669291338582677
        },
        {
          "duration": 2.78125,
          "durationTicks": 267,
          "midi": 84,
          "name": "C6",
          "ticks": 10896,
          "time": 113.5,
          "velocity": 0.5669291338582677
        },
        {
          "duration": 34.98958333333333,
          "durationTicks": 3359,
          "midi": 65,
          "name": "F4",
          "ticks": 10910,
          "time": 113.64583333333333,
          "velocity": 0.3779527559055118
        },
        {
          "duration": 2.1458333333333286,
          "durationTicks": 206,
          "midi": 80,
          "name": "G#5",
          "ticks": 10957,
          "time": 114.13541666666667,
          "velocity": 0.4409448818897638
        },
        {
          "duration": 0.46875,
          "durationTicks": 45,
          "midi": 82,
          "name": "A#5",
          "ticks": 10975,
          "time": 114.32291666666667,
          "velocity": 0.4409448818897638
        },
        {
          "duration": 26.70833333333333,
          "durationTicks": 2564,
          "midi": 84,
          "name": "C6",
          "ticks": 10993,
          "time": 114.51041666666667,
          "velocity": 0.5039370078740157
        },
        {
          "duration": 39.61458333333333,
          "durationTicks": 3803,
          "midi": 65,
          "name": "F4",
          "ticks": 11018,
          "time": 114.77083333333333,
          "velocity": 0.3779527559055118
        },
        {
          "duration": 25.57291666666667,
          "durationTicks": 2455,
          "midi": 80,
          "name": "G#5",
          "ticks": 11083,
          "time": 115.44791666666667,
          "velocity": 0.5039370078740157
        },
        {
          "duration": 0.6041666666666714,
          "durationTicks": 58,
          "midi": 82,
          "name": "A#5",
          "ticks": 11105,
          "time": 115.67708333333333,
          "velocity": 0.5039370078740157
        },
        {
          "duration": 25.854166666666657,
          "durationTicks": 2482,
          "midi": 84,
          "name": "C6",
          "ticks": 11130,
          "time": 115.9375,
          "velocity": 0.4409448818897638
        },
        {
          "duration": 3.21875,
          "durationTicks": 309,
          "midi": 49,
          "name": "C#3",
          "ticks": 11163,
          "time": 116.28125,
          "velocity": 0.31496062992125984
        },
        {
          "duration": 47.906250000000014,
          "durationTicks": 4599,
          "midi": 65,
          "name": "F4",
          "ticks": 11243,
          "time": 117.11458333333333,
          "velocity": 0.3779527559055118
        },
        {
          "duration": 24.26041666666667,
          "durationTicks": 2329,
          "midi": 68,
          "name": "G#4",
          "ticks": 11266,
          "time": 117.35416666666667,
          "velocity": 0.3779527559055118
        },
        {
          "duration": 47.05208333333334,
          "durationTicks": 4517,
          "midi": 77,
          "name": "F5",
          "ticks": 11325,
          "time": 117.96875,
          "velocity": 0.5039370078740157
        },
        {
          "duration": 23.29166666666667,
          "durationTicks": 2236,
          "midi": 80,
          "name": "G#5",
          "ticks": 11359,
          "time": 118.32291666666667,
          "velocity": 0.5039370078740157
        },
        {
          "duration": 0.1875,
          "durationTicks": 18,
          "midi": 49,
          "name": "C#3",
          "ticks": 11469,
          "time": 119.46875,
          "velocity": 0.7559055118110236
        },
        {
          "duration": 0.03125,
          "durationTicks": 3,
          "midi": 37,
          "name": "C#2",
          "ticks": 11470,
          "time": 119.47916666666667,
          "velocity": 0.6299212598425197
        },
        {
          "duration": 2.489583333333343,
          "durationTicks": 239,
          "midi": 49,
          "name": "C#3",
          "ticks": 11483,
          "time": 119.61458333333333,
          "velocity": 0.6299212598425197
        },
        {
          "duration": 40.51041666666667,
          "durationTicks": 3889,
          "midi": 60,
          "name": "C4",
          "ticks": 11494,
          "time": 119.72916666666667,
          "velocity": 0.7559055118110236
        },
        {
          "duration": 0.041666666666671404,
          "durationTicks": 4,
          "midi": 48,
          "name": "C3",
          "ticks": 11495,
          "time": 119.73958333333333,
          "velocity": 0.5669291338582677
        },
        {
          "duration": 0.03125,
          "durationTicks": 3,
          "midi": 46,
          "name": "A#2",
          "ticks": 11508,
          "time": 119.875,
          "velocity": 0.6929133858267716
        },
        {
          "duration": 0.020833333333328596,
          "durationTicks": 2,
          "midi": 58,
          "name": "A#3",
          "ticks": 11508,
          "time": 119.875,
          "velocity": 0.7559055118110236
        },
        {
          "duration": 0.041666666666671404,
          "durationTicks": 4,
          "midi": 46,
          "name": "A#2",
          "ticks": 11522,
          "time": 120.02083333333333,
          "velocity": 0.6929133858267716
        },
        {
          "duration": 0.03125,
          "durationTicks": 3,
          "midi": 58,
          "name": "A#3",
          "ticks": 11522,
          "time": 120.02083333333333,
          "velocity": 0.7559055118110236
        },
        {
          "duration": 0.03125,
          "durationTicks": 3,
          "midi": 45,
          "name": "A2",
          "ticks": 11535,
          "time": 120.15625,
          "velocity": 0.6929133858267716
        },
        {
          "duration": 0.03125,
          "durationTicks": 3,
          "midi": 57,
          "name": "A3",
          "ticks": 11535,
          "time": 120.15625,
          "velocity": 0.7559055118110236
        },
        {
          "duration": 0.041666666666671404,
          "durationTicks": 4,
          "midi": 44,
          "name": "G#2",
          "ticks": 11550,
          "time": 120.3125,
          "velocity": 0.6929133858267716
        },
        {
          "duration": 0.041666666666671404,
          "durationTicks": 4,
          "midi": 44,
          "name": "G#2",
          "ticks": 11565,
          "time": 120.46875,
          "velocity": 0.6299212598425197
        },
        {
          "duration": 0.03125,
          "durationTicks": 3,
          "midi": 55,
          "name": "G3",
          "ticks": 11577,
          "time": 120.59375,
          "velocity": 0.8188976377952756
        },
        {
          "duration": 0.03125,
          "durationTicks": 3,
          "midi": 43,
          "name": "G2",
          "ticks": 11578,
          "time": 120.60416666666667,
          "velocity": 0.7559055118110236
        },
        {
          "duration": 0.03125,
          "durationTicks": 3,
          "midi": 42,
          "name": "F#2",
          "ticks": 11594,
          "time": 120.77083333333333,
          "velocity": 0.6299212598425197
        },
        {
          "duration": 0.05208333333334281,
          "durationTicks": 5,
          "midi": 42,
          "name": "F#2",
          "ticks": 11606,
          "time": 120.89583333333333,
          "velocity": 0.6299212598425197
        },
        {
          "duration": 0.03125,
          "durationTicks": 3,
          "midi": 41,
          "name": "F2",
          "ticks": 11620,
          "time": 121.04166666666667,
          "velocity": 0.6299212598425197
        },
        {
          "duration": 46.92708333333333,
          "durationTicks": 4505,
          "midi": 53,
          "name": "F3",
          "ticks": 11620,
          "time": 121.04166666666667,
          "velocity": 0.6929133858267716
        },
        {
          "duration": 0.041666666666671404,
          "durationTicks": 4,
          "midi": 40,
          "name": "E2",
          "ticks": 11634,
          "time": 121.1875,
          "velocity": 0.6299212598425197
        },
        {
          "duration": 0.020833333333328596,
          "durationTicks": 2,
          "midi": 52,
          "name": "E3",
          "ticks": 11635,
          "time": 121.19791666666667,
          "velocity": 0.7559055118110236
        },
        {
          "duration": 0.0729166666666714,
          "durationTicks": 7,
          "midi": 40,
          "name": "E2",
          "ticks": 11648,
          "time": 121.33333333333333,
          "velocity": 0.5669291338582677
        },
        {
          "duration": 0.0625,
          "durationTicks": 6,
          "midi": 52,
          "name": "E3",
          "ticks": 11648,
          "time": 121.33333333333333,
          "velocity": 0.6929133858267716
        },
        {
          "duration": 0.03125,
          "durationTicks": 3,
          "midi": 39,
          "name": "D#2",
          "ticks": 11664,
          "time": 121.5,
          "velocity": 0.6299212598425197
        },
        {
          "duration": 0.0625,
          "durationTicks": 6,
          "midi": 39,
          "name": "D#2",
          "ticks": 11676,
          "time": 121.625,
          "velocity": 0.6299212598425197
        },
        {
          "duration": 0.041666666666671404,
          "durationTicks": 4,
          "midi": 50,
          "name": "D3",
          "ticks": 11690,
          "time": 121.77083333333333,
          "velocity": 0.6929133858267716
        },
        {
          "duration": 0.041666666666671404,
          "durationTicks": 4,
          "midi": 38,
          "name": "D2",
          "ticks": 11691,
          "time": 121.78125,
          "velocity": 0.6299212598425197
        },
        {
          "duration": 0.052083333333328596,
          "durationTicks": 5,
          "midi": 50,
          "name": "D3",
          "ticks": 11704,
          "time": 121.91666666666667,
          "velocity": 0.6929133858267716
        },
        {
          "duration": 0.041666666666671404,
          "durationTicks": 4,
          "midi": 38,
          "name": "D2",
          "ticks": 11705,
          "time": 121.92708333333333,
          "velocity": 0.5669291338582677
        },
        {
          "duration": 0.1770833333333286,
          "durationTicks": 17,
          "midi": 49,
          "name": "C#3",
          "ticks": 11718,
          "time": 122.0625,
          "velocity": 0.6929133858267716
        },
        {
          "duration": 0.04166666666665719,
          "durationTicks": 4,
          "midi": 37,
          "name": "C#2",
          "ticks": 11719,
          "time": 122.07291666666667,
          "velocity": 0.5669291338582677
        },
        {
          "duration": 2.1145833333333286,
          "durationTicks": 203,
          "midi": 49,
          "name": "C#3",
          "ticks": 11730,
          "time": 122.1875,
          "velocity": 0.6299212598425197
        },
        {
          "duration": 0.0625,
          "durationTicks": 6,
          "midi": 37,
          "name": "C#2",
          "ticks": 11732,
          "time": 122.20833333333333,
          "velocity": 0.5669291338582677
        },
        {
          "duration": 0.03125,
          "durationTicks": 3,
          "midi": 48,
          "name": "C3",
          "ticks": 11745,
          "time": 122.34375,
          "velocity": 0.8188976377952756
        },
        {
          "duration": 0.04166666666665719,
          "durationTicks": 4,
          "midi": 36,
          "name": "C2",
          "ticks": 11746,
          "time": 122.35416666666667,
          "velocity": 0.6299212598425197
        },
        {
          "duration": 0.041666666666671404,
          "durationTicks": 4,
          "midi": 48,
          "name": "C3",
          "ticks": 11760,
          "time": 122.5,
          "velocity": 0.8188976377952756
        },
        {
          "duration": 0.052083333333328596,
          "durationTicks": 5,
          "midi": 36,
          "name": "C2",
          "ticks": 11761,
          "time": 122.51041666666667,
          "velocity": 0.6299212598425197
        },
        {
          "duration": 0.041666666666671404,
          "durationTicks": 4,
          "midi": 48,
          "name": "C3",
          "ticks": 11774,
          "time": 122.64583333333333,
          "velocity": 0.8188976377952756
        },
        {
          "duration": 0.041666666666671404,
          "durationTicks": 4,
          "midi": 36,
          "name": "C2",
          "ticks": 11775,
          "time": 122.65625,
          "velocity": 0.6299212598425197
        },
        {
          "duration": 0.052083333333328596,
          "durationTicks": 5,
          "midi": 48,
          "name": "C3",
          "ticks": 11787,
          "time": 122.78125,
          "velocity": 0.8188976377952756
        },
        {
          "duration": 0.04166666666665719,
          "durationTicks": 4,
          "midi": 36,
          "name": "C2",
          "ticks": 11788,
          "time": 122.79166666666667,
          "velocity": 0.6299212598425197
        },
        {
          "duration": 0.09375,
          "durationTicks": 9,
          "midi": 47,
          "name": "B2",
          "ticks": 11803,
          "time": 122.94791666666667,
          "velocity": 0.8188976377952756
        },
        {
          "duration": 0.09375,
          "durationTicks": 9,
          "midi": 35,
          "name": "B1",
          "ticks": 11804,
          "time": 122.95833333333333,
          "velocity": 0.6929133858267716
        },
        {
          "duration": 0.052083333333328596,
          "durationTicks": 5,
          "midi": 48,
          "name": "C3",
          "ticks": 11817,
          "time": 123.09375,
          "velocity": 0.7559055118110236
        },
        {
          "duration": 0.04166666666665719,
          "durationTicks": 4,
          "midi": 36,
          "name": "C2",
          "ticks": 11818,
          "time": 123.10416666666667,
          "velocity": 0.5669291338582677
        },
        {
          "duration": 0.041666666666671404,
          "durationTicks": 4,
          "midi": 48,
          "name": "C3",
          "ticks": 11831,
          "time": 123.23958333333333,
          "velocity": 0.7559055118110236
        },
        {
          "duration": 0.03125,
          "durationTicks": 3,
          "midi": 36,
          "name": "C2",
          "ticks": 11832,
          "time": 123.25,
          "velocity": 0.6299212598425197
        },
        {
          "duration": 0.05208333333334281,
          "durationTicks": 5,
          "midi": 48,
          "name": "C3",
          "ticks": 11843,
          "time": 123.36458333333333,
          "velocity": 0.7559055118110236
        },
        {
          "duration": 0.052083333333328596,
          "durationTicks": 5,
          "midi": 36,
          "name": "C2",
          "ticks": 11844,
          "time": 123.375,
          "velocity": 0.5669291338582677
        },
        {
          "duration": 0.07291666666665719,
          "durationTicks": 7,
          "midi": 47,
          "name": "B2",
          "ticks": 11857,
          "time": 123.51041666666667,
          "velocity": 0.8188976377952756
        },
        {
          "duration": 0.0729166666666714,
          "durationTicks": 7,
          "midi": 35,
          "name": "B1",
          "ticks": 11858,
          "time": 123.52083333333333,
          "velocity": 0.6929133858267716
        },
        {
          "duration": 0.052083333333328596,
          "durationTicks": 5,
          "midi": 48,
          "name": "C3",
          "ticks": 11871,
          "time": 123.65625,
          "velocity": 0.7559055118110236
        },
        {
          "duration": 0.041666666666671404,
          "durationTicks": 4,
          "midi": 36,
          "name": "C2",
          "ticks": 11873,
          "time": 123.67708333333333,
          "velocity": 0.5039370078740157
        },
        {
          "duration": 0.0729166666666714,
          "durationTicks": 7,
          "midi": 36,
          "name": "C2",
          "ticks": 11885,
          "time": 123.80208333333333,
          "velocity": 0.6299212598425197
        },
        {
          "duration": 0.0625,
          "durationTicks": 6,
          "midi": 48,
          "name": "C3",
          "ticks": 11885,
          "time": 123.80208333333333,
          "velocity": 0.8188976377952756
        },
        {
          "duration": 0.04166666666665719,
          "durationTicks": 4,
          "midi": 36,
          "name": "C2",
          "ticks": 11899,
          "time": 123.94791666666667,
          "velocity": 0.5669291338582677
        },
        {
          "duration": 0.052083333333328596,
          "durationTicks": 5,
          "midi": 48,
          "name": "C3",
          "ticks": 11899,
          "time": 123.94791666666667,
          "velocity": 0.7559055118110236
        },
        {
          "duration": 0.09375,
          "durationTicks": 9,
          "midi": 48,
          "name": "C3",
          "ticks": 11914,
          "time": 124.10416666666667,
          "velocity": 0.8188976377952756
        },
        {
          "duration": 0.09375,
          "durationTicks": 9,
          "midi": 36,
          "name": "C2",
          "ticks": 11915,
          "time": 124.11458333333333,
          "velocity": 0.6929133858267716
        },
        {
          "duration": 0.1875,
          "durationTicks": 18,
          "midi": 49,
          "name": "C#3",
          "ticks": 11929,
          "time": 124.26041666666667,
          "velocity": 0.7559055118110236
        },
        {
          "duration": 0.041666666666671404,
          "durationTicks": 4,
          "midi": 37,
          "name": "C#2",
          "ticks": 11930,
          "time": 124.27083333333333,
          "velocity": 0.5669291338582677
        },
        {
          "duration": 0.041666666666671404,
          "durationTicks": 4,
          "midi": 37,
          "name": "C#2",
          "ticks": 11943,
          "time": 124.40625,
          "velocity": 0.6299212598425197
        },
        {
          "duration": 0.1875,
          "durationTicks": 18,
          "midi": 49,
          "name": "C#3",
          "ticks": 11943,
          "time": 124.40625,
          "velocity": 0.6929133858267716
        },
        {
          "duration": 0.34375,
          "durationTicks": 33,
          "midi": 49,
          "name": "C#3",
          "ticks": 11956,
          "time": 124.54166666666667,
          "velocity": 0.7559055118110236
        },
        {
          "duration": 0.04166666666665719,
          "durationTicks": 4,
          "midi": 37,
          "name": "C#2",
          "ticks": 11959,
          "time": 124.57291666666667,
          "velocity": 0.5669291338582677
        },
        {
          "duration": 0.09375,
          "durationTicks": 9,
          "midi": 48,
          "name": "C3",
          "ticks": 11971,
          "time": 124.69791666666667,
          "velocity": 0.8188976377952756
        },
        {
          "duration": 0.09375,
          "durationTicks": 9,
          "midi": 36,
          "name": "C2",
          "ticks": 11972,
          "time": 124.70833333333333,
          "velocity": 0.6929133858267716
        },
        {
          "duration": 0.052083333333328596,
          "durationTicks": 5,
          "midi": 37,
          "name": "C#2",
          "ticks": 11985,
          "time": 124.84375,
          "velocity": 0.6299212598425197
        },
        {
          "duration": 0.1979166666666714,
          "durationTicks": 19,
          "midi": 49,
          "name": "C#3",
          "ticks": 11985,
          "time": 124.84375,
          "velocity": 0.7559055118110236
        },
        {
          "duration": 0.1979166666666714,
          "durationTicks": 19,
          "midi": 49,
          "name": "C#3",
          "ticks": 12000,
          "time": 125,
          "velocity": 0.7559055118110236
        },
        {
          "duration": 0.03125,
          "durationTicks": 3,
          "midi": 37,
          "name": "C#2",
          "ticks": 12001,
          "time": 125.01041666666667,
          "velocity": 0.6299212598425197
        },
        {
          "duration": 0.03125,
          "durationTicks": 3,
          "midi": 37,
          "name": "C#2",
          "ticks": 12014,
          "time": 125.14583333333333,
          "velocity": 0.6299212598425197
        },
        {
          "duration": 0.3020833333333428,
          "durationTicks": 29,
          "midi": 49,
          "name": "C#3",
          "ticks": 12014,
          "time": 125.14583333333333,
          "velocity": 0.7559055118110236
        },
        {
          "duration": 0.6875,
          "durationTicks": 66,
          "midi": 49,
          "name": "C#3",
          "ticks": 12030,
          "time": 125.3125,
          "velocity": 0.8188976377952756
        },
        {
          "duration": 0.1458333333333286,
          "durationTicks": 14,
          "midi": 37,
          "name": "C#2",
          "ticks": 12031,
          "time": 125.32291666666667,
          "velocity": 0.6299212598425197
        },
        {
          "duration": 0.041666666666671404,
          "durationTicks": 4,
          "midi": 50,
          "name": "D3",
          "ticks": 12044,
          "time": 125.45833333333333,
          "velocity": 0.6929133858267716
        },
        {
          "duration": 0.04166666666665719,
          "durationTicks": 4,
          "midi": 38,
          "name": "D2",
          "ticks": 12046,
          "time": 125.47916666666667,
          "velocity": 0.5039370078740157
        },
        {
          "duration": 0.03125,
          "durationTicks": 3,
          "midi": 50,
          "name": "D3",
          "ticks": 12059,
          "time": 125.61458333333333,
          "velocity": 0.6929133858267716
        },
        {
          "duration": 0.041666666666671404,
          "durationTicks": 4,
          "midi": 38,
          "name": "D2",
          "ticks": 12060,
          "time": 125.625,
          "velocity": 0.5039370078740157
        },
        {
          "duration": 0.052083333333328596,
          "durationTicks": 5,
          "midi": 38,
          "name": "D2",
          "ticks": 12072,
          "time": 125.75,
          "velocity": 0.5039370078740157
        },
        {
          "duration": 0.041666666666671404,
          "durationTicks": 4,
          "midi": 50,
          "name": "D3",
          "ticks": 12072,
          "time": 125.75,
          "velocity": 0.6299212598425197
        },
        {
          "duration": 4.968750000000014,
          "durationTicks": 477,
          "midi": 49,
          "name": "C#3",
          "ticks": 12086,
          "time": 125.89583333333333,
          "velocity": 0.6299212598425197
        },
        {
          "duration": 0.1041666666666714,
          "durationTicks": 10,
          "midi": 37,
          "name": "C#2",
          "ticks": 12087,
          "time": 125.90625,
          "velocity": 0.5039370078740157
        },
        {
          "duration": 0.03125,
          "durationTicks": 3,
          "midi": 50,
          "name": "D3",
          "ticks": 12101,
          "time": 126.05208333333333,
          "velocity": 0.6299212598425197
        },
        {
          "duration": 0.041666666666671404,
          "durationTicks": 4,
          "midi": 38,
          "name": "D2",
          "ticks": 12102,
          "time": 126.0625,
          "velocity": 0.4409448818897638
        },
        {
          "duration": 0.03125,
          "durationTicks": 3,
          "midi": 38,
          "name": "D2",
          "ticks": 12115,
          "time": 126.19791666666667,
          "velocity": 0.5039370078740157
        },
        {
          "duration": 0.020833333333328596,
          "durationTicks": 2,
          "midi": 50,
          "name": "D3",
          "ticks": 12115,
          "time": 126.19791666666667,
          "velocity": 0.5669291338582677
        },
        {
          "duration": 0.041666666666671404,
          "durationTicks": 4,
          "midi": 38,
          "name": "D2",
          "ticks": 12129,
          "time": 126.34375,
          "velocity": 0.5039370078740157
        },
        {
          "duration": 0.03125,
          "durationTicks": 3,
          "midi": 50,
          "name": "D3",
          "ticks": 12129,
          "time": 126.34375,
          "velocity": 0.6299212598425197
        },
        {
          "duration": 1.5833333333333286,
          "durationTicks": 152,
          "midi": 38,
          "name": "D2",
          "ticks": 12154,
          "time": 126.60416666666667,
          "velocity": 0.4409448818897638
        },
        {
          "duration": 1.5833333333333286,
          "durationTicks": 152,
          "midi": 50,
          "name": "D3",
          "ticks": 12154,
          "time": 126.60416666666667,
          "velocity": 0.5039370078740157
        },
        {
          "duration": 37.70833333333334,
          "durationTicks": 3620,
          "midi": 65,
          "name": "F4",
          "ticks": 12292,
          "time": 128.04166666666666,
          "velocity": 0.5039370078740157
        },
        {
          "duration": 1.125,
          "durationTicks": 108,
          "midi": 62,
          "name": "D4",
          "ticks": 12293,
          "time": 128.05208333333334,
          "velocity": 0.4409448818897638
        },
        {
          "duration": 15.21875,
          "durationTicks": 1461,
          "midi": 68,
          "name": "G#4",
          "ticks": 12293,
          "time": 128.05208333333334,
          "velocity": 0.5039370078740157
        },
        {
          "duration": 0.11458333333334281,
          "durationTicks": 11,
          "midi": 58,
          "name": "A#3",
          "ticks": 12295,
          "time": 128.07291666666666,
          "velocity": 0.5039370078740157
        },
        {
          "duration": 41.85416666666666,
          "durationTicks": 4018,
          "midi": 65,
          "name": "F4",
          "ticks": 12314,
          "time": 128.27083333333334,
          "velocity": 0.5039370078740157
        },
        {
          "duration": 1.1458333333333144,
          "durationTicks": 110,
          "midi": 67,
          "name": "G4",
          "ticks": 12314,
          "time": 128.27083333333334,
          "velocity": 0.5039370078740157
        },
        {
          "duration": 0.8958333333333428,
          "durationTicks": 86,
          "midi": 59,
          "name": "B3",
          "ticks": 12315,
          "time": 128.28125,
          "velocity": 0.4409448818897638
        },
        {
          "duration": 1.1354166666666572,
          "durationTicks": 109,
          "midi": 62,
          "name": "D4",
          "ticks": 12315,
          "time": 128.28125,
          "velocity": 0.5039370078740157
        },
        {
          "duration": 14.677083333333314,
          "durationTicks": 1409,
          "midi": 67,
          "name": "G4",
          "ticks": 12401,
          "time": 129.17708333333334,
          "velocity": 0.4409448818897638
        },
        {
          "duration": 41.59375,
          "durationTicks": 3993,
          "midi": 65,
          "name": "F4",
          "ticks": 12402,
          "time": 129.1875,
          "velocity": 0.3779527559055118
        },
        {
          "duration": 0.09375,
          "durationTicks": 9,
          "midi": 59,
          "name": "B3",
          "ticks": 12405,
          "time": 129.21875,
          "velocity": 0.4409448818897638
        },
        {
          "duration": 9.260416666666657,
          "durationTicks": 889,
          "midi": 62,
          "name": "D4",
          "ticks": 12405,
          "time": 129.21875,
          "velocity": 0.3779527559055118
        },
        {
          "duration": 0.05208333333334281,
          "durationTicks": 5,
          "midi": 37,
          "name": "C#2",
          "ticks": 12558,
          "time": 130.8125,
          "velocity": 0.4409448818897638
        },
        {
          "duration": 0.1770833333333428,
          "durationTicks": 17,
          "midi": 49,
          "name": "C#3",
          "ticks": 12559,
          "time": 130.82291666666666,
          "velocity": 0.4409448818897638
        },
        {
          "duration": 0.04166666666665719,
          "durationTicks": 4,
          "midi": 37,
          "name": "C#2",
          "ticks": 12572,
          "time": 130.95833333333334,
          "velocity": 0.4409448818897638
        },
        {
          "duration": 0.03125,
          "durationTicks": 3,
          "midi": 36,
          "name": "C2",
          "ticks": 12586,
          "time": 131.10416666666666,
          "velocity": 0.5039370078740157
        },
        {
          "duration": 0.03125,
          "durationTicks": 3,
          "midi": 48,
          "name": "C3",
          "ticks": 12586,
          "time": 131.10416666666666,
          "velocity": 0.6299212598425197
        },
        {
          "duration": 0.03125,
          "durationTicks": 3,
          "midi": 48,
          "name": "C3",
          "ticks": 12600,
          "time": 131.25,
          "velocity": 0.6299212598425197
        },
        {
          "duration": 0.041666666666685614,
          "durationTicks": 4,
          "midi": 36,
          "name": "C2",
          "ticks": 12601,
          "time": 131.26041666666666,
          "velocity": 0.5669291338582677
        },
        {
          "duration": 0.03125,
          "durationTicks": 3,
          "midi": 47,
          "name": "B2",
          "ticks": 12616,
          "time": 131.41666666666666,
          "velocity": 0.5039370078740157
        },
        {
          "duration": 0.04166666666665719,
          "durationTicks": 4,
          "midi": 35,
          "name": "B1",
          "ticks": 12617,
          "time": 131.42708333333334,
          "velocity": 0.3779527559055118
        },
        {
          "duration": 0.05208333333334281,
          "durationTicks": 5,
          "midi": 34,
          "name": "A#1",
          "ticks": 12634,
          "time": 131.60416666666666,
          "velocity": 0.5039370078740157
        },
        {
          "duration": 0.03125,
          "durationTicks": 3,
          "midi": 46,
          "name": "A#2",
          "ticks": 12634,
          "time": 131.60416666666666,
          "velocity": 0.5039370078740157
        },
        {
          "duration": 0.07291666666668561,
          "durationTicks": 7,
          "midi": 33,
          "name": "A1",
          "ticks": 12652,
          "time": 131.79166666666666,
          "velocity": 0.5669291338582677
        },
        {
          "duration": 0.08333333333334281,
          "durationTicks": 8,
          "midi": 45,
          "name": "A2",
          "ticks": 12652,
          "time": 131.79166666666666,
          "velocity": 0.5669291338582677
        },
        {
          "duration": 0.23958333333331439,
          "durationTicks": 23,
          "midi": 44,
          "name": "G#2",
          "ticks": 12677,
          "time": 132.05208333333334,
          "velocity": 0.5669291338582677
        },
        {
          "duration": 0.1979166666666572,
          "durationTicks": 19,
          "midi": 32,
          "name": "G#1",
          "ticks": 12678,
          "time": 132.0625,
          "velocity": 0.5039370078740157
        },
        {
          "duration": 0.04166666666665719,
          "durationTicks": 4,
          "midi": 33,
          "name": "A1",
          "ticks": 12699,
          "time": 132.28125,
          "velocity": 0.4409448818897638
        },
        {
          "duration": 0.07291666666665719,
          "durationTicks": 7,
          "midi": 45,
          "name": "A2",
          "ticks": 12699,
          "time": 132.28125,
          "velocity": 0.5039370078740157
        },
        {
          "duration": 5.53125,
          "durationTicks": 531,
          "midi": 33,
          "name": "A1",
          "ticks": 12732,
          "time": 132.625,
          "velocity": 0.3779527559055118
        },
        {
          "duration": 5.53125,
          "durationTicks": 531,
          "midi": 45,
          "name": "A2",
          "ticks": 12732,
          "time": 132.625,
          "velocity": 0.3779527559055118
        },
        {
          "duration": 0.04166666666665719,
          "durationTicks": 4,
          "midi": 69,
          "name": "A4",
          "ticks": 13262,
          "time": 138.14583333333334,
          "velocity": 0.4409448818897638
        },
        {
          "duration": 23.46875,
          "durationTicks": 2253,
          "midi": 60,
          "name": "C4",
          "ticks": 13263,
          "time": 138.15625,
          "velocity": 0.31496062992125984
        },
        {
          "duration": 0.05208333333334281,
          "durationTicks": 5,
          "midi": 64,
          "name": "E4",
          "ticks": 13263,
          "time": 138.15625,
          "velocity": 0.31496062992125984
        },
        {
          "duration": 0.15625,
          "durationTicks": 15,
          "midi": 59,
          "name": "B3",
          "ticks": 13279,
          "time": 138.32291666666666,
          "velocity": 0.3779527559055118
        },
        {
          "duration": 0.7395833333333428,
          "durationTicks": 71,
          "midi": 62,
          "name": "D4",
          "ticks": 13279,
          "time": 138.32291666666666,
          "velocity": 0.31496062992125984
        },
        {
          "duration": 9.041666666666686,
          "durationTicks": 868,
          "midi": 68,
          "name": "G#4",
          "ticks": 13279,
          "time": 138.32291666666666,
          "velocity": 0.5039370078740157
        },
        {
          "duration": 0.0625,
          "durationTicks": 6,
          "midi": 52,
          "name": "E3",
          "ticks": 13294,
          "time": 138.47916666666666,
          "velocity": 0.3779527559055118
        },
        {
          "duration": 0.04166666666665719,
          "durationTicks": 4,
          "midi": 59,
          "name": "B3",
          "ticks": 13308,
          "time": 138.625,
          "velocity": 0.3779527559055118
        },
        {
          "duration": 28.322916666666686,
          "durationTicks": 2719,
          "midi": 60,
          "name": "C4",
          "ticks": 13321,
          "time": 138.76041666666666,
          "velocity": 0.5039370078740157
        },
        {
          "duration": 0.041666666666685614,
          "durationTicks": 4,
          "midi": 69,
          "name": "A4",
          "ticks": 13321,
          "time": 138.76041666666666,
          "velocity": 0.3779527559055118
        },
        {
          "duration": 0.052083333333314386,
          "durationTicks": 5,
          "midi": 64,
          "name": "E4",
          "ticks": 13322,
          "time": 138.77083333333334,
          "velocity": 0.4409448818897638
        },
        {
          "duration": 0.14583333333331439,
          "durationTicks": 14,
          "midi": 59,
          "name": "B3",
          "ticks": 13337,
          "time": 138.92708333333334,
          "velocity": 0.3779527559055118
        },
        {
          "duration": 8.90625,
          "durationTicks": 855,
          "midi": 68,
          "name": "G#4",
          "ticks": 13338,
          "time": 138.9375,
          "velocity": 0.4409448818897638
        },
        {
          "duration": 0.3020833333333428,
          "durationTicks": 29,
          "midi": 62,
          "name": "D4",
          "ticks": 13339,
          "time": 138.94791666666666,
          "velocity": 0.31496062992125984
        },
        {
          "duration": 0.04166666666665719,
          "durationTicks": 4,
          "midi": 52,
          "name": "E3",
          "ticks": 13352,
          "time": 139.08333333333334,
          "velocity": 0.4409448818897638
        },
        {
          "duration": 0.6354166666666572,
          "durationTicks": 61,
          "midi": 62,
          "name": "D4",
          "ticks": 13365,
          "time": 139.21875,
          "velocity": 0.5039370078740157
        },
        {
          "duration": 11.625,
          "durationTicks": 1116,
          "midi": 72,
          "name": "C5",
          "ticks": 13379,
          "time": 139.36458333333334,
          "velocity": 0.5039370078740157
        },
        {
          "duration": 0.03125,
          "durationTicks": 3,
          "midi": 69,
          "name": "A4",
          "ticks": 13381,
          "time": 139.38541666666666,
          "velocity": 0.3779527559055118
        },
        {
          "duration": 0.15625,
          "durationTicks": 15,
          "midi": 71,
          "name": "B4",
          "ticks": 13393,
          "time": 139.51041666666666,
          "velocity": 0.6299212598425197
        },
        {
          "duration": 0.125,
          "durationTicks": 12,
          "midi": 64,
          "name": "E4",
          "ticks": 13394,
          "time": 139.52083333333334,
          "velocity": 0.4409448818897638
        },
        {
          "duration": 8.979166666666657,
          "durationTicks": 862,
          "midi": 68,
          "name": "G#4",
          "ticks": 13394,
          "time": 139.52083333333334,
          "velocity": 0.5039370078740157
        },
        {
          "duration": 0.052083333333314386,
          "durationTicks": 5,
          "midi": 52,
          "name": "E3",
          "ticks": 13409,
          "time": 139.67708333333334,
          "velocity": 0.4409448818897638
        },
        {
          "duration": 7.875,
          "durationTicks": 756,
          "midi": 62,
          "name": "D4",
          "ticks": 13422,
          "time": 139.8125,
          "velocity": 0.6299212598425197
        },
        {
          "duration": 0.041666666666685614,
          "durationTicks": 4,
          "midi": 76,
          "name": "E5",
          "ticks": 13435,
          "time": 139.94791666666666,
          "velocity": 0.6929133858267716
        },
        {
          "duration": 0.052083333333314386,
          "durationTicks": 5,
          "midi": 69,
          "name": "A4",
          "ticks": 13436,
          "time": 139.95833333333334,
          "velocity": 0.6929133858267716
        },
        {
          "duration": 11.895833333333314,
          "durationTicks": 1142,
          "midi": 72,
          "name": "C5",
          "ticks": 13436,
          "time": 139.95833333333334,
          "velocity": 0.6929133858267716
        },
        {
          "duration": 0.1770833333333428,
          "durationTicks": 17,
          "midi": 71,
          "name": "B4",
          "ticks": 13450,
          "time": 140.10416666666666,
          "velocity": 0.6929133858267716
        },
        {
          "duration": 0.22916666666668561,
          "durationTicks": 22,
          "midi": 74,
          "name": "D5",
          "ticks": 13450,
          "time": 140.10416666666666,
          "velocity": 0.7559055118110236
        },
        {
          "duration": 8.760416666666657,
          "durationTicks": 841,
          "midi": 68,
          "name": "G#4",
          "ticks": 13451,
          "time": 140.11458333333334,
          "velocity": 0.6929133858267716
        },
        {
          "duration": 0.0625,
          "durationTicks": 6,
          "midi": 64,
          "name": "E4",
          "ticks": 13465,
          "time": 140.26041666666666,
          "velocity": 0.6929133858267716
        },
        {
          "duration": 0.041666666666685614,
          "durationTicks": 4,
          "midi": 52,
          "name": "E3",
          "ticks": 13480,
          "time": 140.41666666666666,
          "velocity": 0.6929133858267716
        },
        {
          "duration": 18.947916666666657,
          "durationTicks": 1819,
          "midi": 72,
          "name": "C5",
          "ticks": 13493,
          "time": 140.55208333333334,
          "velocity": 0.8188976377952756
        },
        {
          "duration": 0.0625,
          "durationTicks": 6,
          "midi": 76,
          "name": "E5",
          "ticks": 13493,
          "time": 140.55208333333334,
          "velocity": 0.7559055118110236
        },
        {
          "duration": 0.052083333333314386,
          "durationTicks": 5,
          "midi": 81,
          "name": "A5",
          "ticks": 13493,
          "time": 140.55208333333334,
          "velocity": 0.7559055118110236
        },
        {
          "duration": 0.3020833333333428,
          "durationTicks": 29,
          "midi": 76,
          "name": "E5",
          "ticks": 13509,
          "time": 140.71875,
          "velocity": 0.7559055118110236
        },
        {
          "duration": 1.8645833333333428,
          "durationTicks": 179,
          "midi": 80,
          "name": "G#5",
          "ticks": 13509,
          "time": 140.71875,
          "velocity": 0.8188976377952756
        },
        {
          "duration": 0.2916666666666856,
          "durationTicks": 28,
          "midi": 71,
          "name": "B4",
          "ticks": 13510,
          "time": 140.72916666666666,
          "velocity": 0.6929133858267716
        },
        {
          "duration": 0.15625,
          "durationTicks": 15,
          "midi": 64,
          "name": "E4",
          "ticks": 13523,
          "time": 140.86458333333334,
          "velocity": 0.7559055118110236
        },
        {
          "duration": 0.6770833333333144,
          "durationTicks": 65,
          "midi": 52,
          "name": "E3",
          "ticks": 13538,
          "time": 141.02083333333334,
          "velocity": 0.7559055118110236
        },
        {
          "duration": 0.052083333333314386,
          "durationTicks": 5,
          "midi": 69,
          "name": "A4",
          "ticks": 13550,
          "time": 141.14583333333334,
          "velocity": 0.7559055118110236
        },
        {
          "duration": 20.677083333333314,
          "durationTicks": 1985,
          "midi": 72,
          "name": "C5",
          "ticks": 13550,
          "time": 141.14583333333334,
          "velocity": 0.7559055118110236
        },
        {
          "duration": 3.9895833333333144,
          "durationTicks": 383,
          "midi": 75,
          "name": "D#5",
          "ticks": 13550,
          "time": 141.14583333333334,
          "velocity": 0.7559055118110236
        },
        {
          "duration": 0.6458333333333144,
          "durationTicks": 62,
          "midi": 78,
          "name": "F#5",
          "ticks": 13550,
          "time": 141.14583333333334,
          "velocity": 0.7559055118110236
        },
        {
          "duration": 1.4375,
          "durationTicks": 138,
          "midi": 84,
          "name": "C6",
          "ticks": 13550,
          "time": 141.14583333333334,
          "velocity": 0.8188976377952756
        },
        {
          "duration": 0.3020833333333428,
          "durationTicks": 29,
          "midi": 71,
          "name": "B4",
          "ticks": 13566,
          "time": 141.3125,
          "velocity": 0.8188976377952756
        },
        {
          "duration": 8.1875,
          "durationTicks": 786,
          "midi": 68,
          "name": "G#4",
          "ticks": 13567,
          "time": 141.32291666666666,
          "velocity": 0.6929133858267716
        },
        {
          "duration": 0.2916666666666856,
          "durationTicks": 28,
          "midi": 76,
          "name": "E5",
          "ticks": 13567,
          "time": 141.32291666666666,
          "velocity": 0.8188976377952756
        },
        {
          "duration": 0.2916666666666856,
          "durationTicks": 28,
          "midi": 83,
          "name": "B5",
          "ticks": 13567,
          "time": 141.32291666666666,
          "velocity": 0.8188976377952756
        },
        {
          "duration": 8.760416666666657,
          "durationTicks": 841,
          "midi": 80,
          "name": "G#5",
          "ticks": 13568,
          "time": 141.33333333333334,
          "velocity": 0.7559055118110236
        },
        {
          "duration": 0.16666666666668561,
          "durationTicks": 16,
          "midi": 64,
          "name": "E4",
          "ticks": 13579,
          "time": 141.44791666666666,
          "velocity": 0.7559055118110236
        },
        {
          "duration": 0.9791666666666856,
          "durationTicks": 94,
          "midi": 52,
          "name": "E3",
          "ticks": 13594,
          "time": 141.60416666666666,
          "velocity": 0.8188976377952756
        },
        {
          "duration": 0.05208333333334281,
          "durationTicks": 5,
          "midi": 69,
          "name": "A4",
          "ticks": 13606,
          "time": 141.72916666666666,
          "velocity": 0.8188976377952756
        },
        {
          "duration": 24.6875,
          "durationTicks": 2370,
          "midi": 72,
          "name": "C5",
          "ticks": 13606,
          "time": 141.72916666666666,
          "velocity": 0.8188976377952756
        },
        {
          "duration": 8.6875,
          "durationTicks": 834,
          "midi": 75,
          "name": "D#5",
          "ticks": 13606,
          "time": 141.72916666666666,
          "velocity": 0.7559055118110236
        },
        {
          "duration": 8.697916666666686,
          "durationTicks": 835,
          "midi": 78,
          "name": "F#5",
          "ticks": 13606,
          "time": 141.72916666666666,
          "velocity": 0.6929133858267716
        },
        {
          "duration": 4.770833333333343,
          "durationTicks": 458,
          "midi": 84,
          "name": "C6",
          "ticks": 13606,
          "time": 141.72916666666666,
          "velocity": 0.8188976377952756
        },
        {
          "duration": 1.9583333333333144,
          "durationTicks": 188,
          "midi": 71,
          "name": "B4",
          "ticks": 13622,
          "time": 141.89583333333334,
          "velocity": 0.8818897637795275
        },
        {
          "duration": 9.083333333333343,
          "durationTicks": 872,
          "midi": 68,
          "name": "G#4",
          "ticks": 13623,
          "time": 141.90625,
          "velocity": 0.7559055118110236
        },
        {
          "duration": 0.6770833333333428,
          "durationTicks": 65,
          "midi": 76,
          "name": "E5",
          "ticks": 13623,
          "time": 141.90625,
          "velocity": 0.8188976377952756
        },
        {
          "duration": 9.083333333333343,
          "durationTicks": 872,
          "midi": 80,
          "name": "G#5",
          "ticks": 13623,
          "time": 141.90625,
          "velocity": 0.7559055118110236
        },
        {
          "duration": 1.3229166666666572,
          "durationTicks": 127,
          "midi": 83,
          "name": "B5",
          "ticks": 13623,
          "time": 141.90625,
          "velocity": 0.7559055118110236
        },
        {
          "duration": 0.5416666666666856,
          "durationTicks": 52,
          "midi": 64,
          "name": "E4",
          "ticks": 13636,
          "time": 142.04166666666666,
          "velocity": 0.7559055118110236
        },
        {
          "duration": 5.53125,
          "durationTicks": 531,
          "midi": 52,
          "name": "E3",
          "ticks": 13653,
          "time": 142.21875,
          "velocity": 0.8188976377952756
        },
        {
          "duration": 8.0625,
          "durationTicks": 774,
          "midi": 84,
          "name": "C6",
          "ticks": 13668,
          "time": 142.375,
          "velocity": 0.8818897637795275
        },
        {
          "duration": 24.697916666666686,
          "durationTicks": 2371,
          "midi": 72,
          "name": "C5",
          "ticks": 13669,
          "time": 142.38541666666666,
          "velocity": 0.8188976377952756
        },
        {
          "duration": 6.3125,
          "durationTicks": 606,
          "midi": 71,
          "name": "B4",
          "ticks": 13687,
          "time": 142.57291666666666,
          "velocity": 0.8818897637795275
        },
        {
          "duration": 9.96875,
          "durationTicks": 957,
          "midi": 68,
          "name": "G#4",
          "ticks": 13688,
          "time": 142.58333333333334,
          "velocity": 0.6929133858267716
        },
        {
          "duration": 1.40625,
          "durationTicks": 135,
          "midi": 83,
          "name": "B5",
          "ticks": 13688,
          "time": 142.58333333333334,
          "velocity": 0.8188976377952756
        },
        {
          "duration": 0.4479166666666572,
          "durationTicks": 43,
          "midi": 76,
          "name": "E5",
          "ticks": 13707,
          "time": 142.78125,
          "velocity": 0.8188976377952756
        },
        {
          "duration": 1.6979166666666572,
          "durationTicks": 163,
          "midi": 83,
          "name": "B5",
          "ticks": 13721,
          "time": 142.92708333333334,
          "velocity": 0.7559055118110236
        },
        {
          "duration": 2.239583333333343,
          "durationTicks": 215,
          "midi": 83,
          "name": "B5",
          "ticks": 13735,
          "time": 143.07291666666666,
          "velocity": 0.7559055118110236
        },
        {
          "duration": 9.90625,
          "durationTicks": 951,
          "midi": 67,
          "name": "G4",
          "ticks": 13750,
          "time": 143.22916666666666,
          "velocity": 0.6929133858267716
        },
        {
          "duration": 6.28125,
          "durationTicks": 603,
          "midi": 71,
          "name": "B4",
          "ticks": 13750,
          "time": 143.22916666666666,
          "velocity": 0.6929133858267716
        },
        {
          "duration": 4.125,
          "durationTicks": 396,
          "midi": 83,
          "name": "B5",
          "ticks": 13751,
          "time": 143.23958333333334,
          "velocity": 0.8188976377952756
        },
        {
          "duration": 0.4583333333333144,
          "durationTicks": 44,
          "midi": 76,
          "name": "E5",
          "ticks": 13766,
          "time": 143.39583333333334,
          "velocity": 0.7559055118110236
        },
        {
          "duration": 7.4375,
          "durationTicks": 714,
          "midi": 83,
          "name": "B5",
          "ticks": 13781,
          "time": 143.55208333333334,
          "velocity": 0.6299212598425197
        },
        {
          "duration": 8.354166666666686,
          "durationTicks": 802,
          "midi": 83,
          "name": "B5",
          "ticks": 13795,
          "time": 143.69791666666666,
          "velocity": 0.6929133858267716
        },
        {
          "duration": 13.645833333333343,
          "durationTicks": 1310,
          "midi": 66,
          "name": "F#4",
          "ticks": 13810,
          "time": 143.85416666666666,
          "velocity": 0.3779527559055118
        },
        {
          "duration": 2.114583333333343,
          "durationTicks": 203,
          "midi": 69,
          "name": "A4",
          "ticks": 13810,
          "time": 143.85416666666666,
          "velocity": 0.5039370078740157
        },
        {
          "duration": 8.822916666666686,
          "durationTicks": 847,
          "midi": 83,
          "name": "B5",
          "ticks": 13810,
          "time": 143.85416666666666,
          "velocity": 0.6929133858267716
        },
        {
          "duration": 6.979166666666657,
          "durationTicks": 670,
          "midi": 75,
          "name": "D#5",
          "ticks": 13826,
          "time": 144.02083333333334,
          "velocity": 0.5669291338582677
        },
        {
          "duration": 9.552083333333343,
          "durationTicks": 917,
          "midi": 83,
          "name": "B5",
          "ticks": 13839,
          "time": 144.15625,
          "velocity": 0.6299212598425197
        },
        {
          "duration": 11.708333333333343,
          "durationTicks": 1124,
          "midi": 83,
          "name": "B5",
          "ticks": 13854,
          "time": 144.3125,
          "velocity": 0.5669291338582677
        },
        {
          "duration": 2.947916666666657,
          "durationTicks": 283,
          "midi": 69,
          "name": "A4",
          "ticks": 13869,
          "time": 144.46875,
          "velocity": 0.5039370078740157
        },
        {
          "duration": 12.354166666666657,
          "durationTicks": 1186,
          "midi": 83,
          "name": "B5",
          "ticks": 13869,
          "time": 144.46875,
          "velocity": 0.6299212598425197
        },
        {
          "duration": 9.072916666666686,
          "durationTicks": 871,
          "midi": 75,
          "name": "D#5",
          "ticks": 13885,
          "time": 144.63541666666666,
          "velocity": 0.5669291338582677
        },
        {
          "duration": 14.729166666666657,
          "durationTicks": 1414,
          "midi": 83,
          "name": "B5",
          "ticks": 13898,
          "time": 144.77083333333334,
          "velocity": 0.5669291338582677
        },
        {
          "duration": 17.625,
          "durationTicks": 1692,
          "midi": 83,
          "name": "B5",
          "ticks": 13914,
          "time": 144.9375,
          "velocity": 0.5669291338582677
        },
        {
          "duration": 2.916666666666657,
          "durationTicks": 280,
          "midi": 69,
          "name": "A4",
          "ticks": 13932,
          "time": 145.125,
          "velocity": 0.4409448818897638
        },
        {
          "duration": 2.2916666666666856,
          "durationTicks": 220,
          "midi": 64,
          "name": "E4",
          "ticks": 13933,
          "time": 145.13541666666666,
          "velocity": 0.4409448818897638
        },
        {
          "duration": 0.6354166666666572,
          "durationTicks": 61,
          "midi": 76,
          "name": "E5",
          "ticks": 13952,
          "time": 145.33333333333334,
          "velocity": 0.5669291338582677
        },
        {
          "duration": 5.5,
          "durationTicks": 528,
          "midi": 84,
          "name": "C6",
          "ticks": 13969,
          "time": 145.51041666666666,
          "velocity": 0.5039370078740157
        },
        {
          "duration": 6.135416666666657,
          "durationTicks": 589,
          "midi": 84,
          "name": "C6",
          "ticks": 13989,
          "time": 145.71875,
          "velocity": 0.6299212598425197
        },
        {
          "duration": 10.072916666666686,
          "durationTicks": 967,
          "midi": 68,
          "name": "G#4",
          "ticks": 14011,
          "time": 145.94791666666666,
          "velocity": 0.4409448818897638
        },
        {
          "duration": 8.625,
          "durationTicks": 828,
          "midi": 84,
          "name": "C6",
          "ticks": 14011,
          "time": 145.94791666666666,
          "velocity": 0.5669291338582677
        },
        {
          "duration": 2.072916666666657,
          "durationTicks": 199,
          "midi": 64,
          "name": "E4",
          "ticks": 14013,
          "time": 145.96875,
          "velocity": 0.3779527559055118
        },
        {
          "duration": 1.1354166666666856,
          "durationTicks": 109,
          "midi": 76,
          "name": "E5",
          "ticks": 14038,
          "time": 146.22916666666666,
          "velocity": 0.5669291338582677
        },
        {
          "duration": 1.28125,
          "durationTicks": 123,
          "midi": 69,
          "name": "A4",
          "ticks": 14146,
          "time": 147.35416666666666,
          "velocity": 0.4409448818897638
        },
        {
          "duration": 21.229166666666657,
          "durationTicks": 2038,
          "midi": 60,
          "name": "C4",
          "ticks": 14147,
          "time": 147.36458333333334,
          "velocity": 0.4409448818897638
        },
        {
          "duration": 1.5,
          "durationTicks": 144,
          "midi": 64,
          "name": "E4",
          "ticks": 14147,
          "time": 147.36458333333334,
          "velocity": 0.4409448818897638
        },
        {
          "duration": 0.7395833333333428,
          "durationTicks": 71,
          "midi": 62,
          "name": "D4",
          "ticks": 14164,
          "time": 147.54166666666666,
          "velocity": 0.3779527559055118
        },
        {
          "duration": 21.447916666666686,
          "durationTicks": 2059,
          "midi": 68,
          "name": "G#4",
          "ticks": 14164,
          "time": 147.54166666666666,
          "velocity": 0.5669291338582677
        },
        {
          "duration": 0.14583333333331439,
          "durationTicks": 14,
          "midi": 59,
          "name": "B3",
          "ticks": 14165,
          "time": 147.55208333333334,
          "velocity": 0.4409448818897638
        },
        {
          "duration": 0.6770833333333428,
          "durationTicks": 65,
          "midi": 52,
          "name": "E3",
          "ticks": 14178,
          "time": 147.6875,
          "velocity": 0.4409448818897638
        },
        {
          "duration": 0.041666666666685614,
          "durationTicks": 4,
          "midi": 59,
          "name": "B3",
          "ticks": 14194,
          "time": 147.85416666666666,
          "velocity": 0.5039370078740157
        },
        {
          "duration": 21.4375,
          "durationTicks": 2058,
          "midi": 60,
          "name": "C4",
          "ticks": 14207,
          "time": 147.98958333333334,
          "velocity": 0.5669291338582677
        },
        {
          "duration": 1.6354166666666572,
          "durationTicks": 157,
          "midi": 64,
          "name": "E4",
          "ticks": 14208,
          "time": 148,
          "velocity": 0.4409448818897638
        },
        {
          "duration": 1.2395833333333428,
          "durationTicks": 119,
          "midi": 69,
          "name": "A4",
          "ticks": 14208,
          "time": 148,
          "velocity": 0.5039370078740157
        },
        {
          "duration": 0.1354166666666572,
          "durationTicks": 13,
          "midi": 59,
          "name": "B3",
          "ticks": 14223,
          "time": 148.15625,
          "velocity": 0.3779527559055118
        },
        {
          "duration": 22.625,
          "durationTicks": 2172,
          "midi": 68,
          "name": "G#4",
          "ticks": 14223,
          "time": 148.15625,
          "velocity": 0.5039370078740157
        },
        {
          "duration": 0.3125,
          "durationTicks": 30,
          "midi": 62,
          "name": "D4",
          "ticks": 14224,
          "time": 148.16666666666666,
          "velocity": 0.3779527559055118
        },
        {
          "duration": 0.65625,
          "durationTicks": 63,
          "midi": 52,
          "name": "E3",
          "ticks": 14237,
          "time": 148.30208333333334,
          "velocity": 0.4409448818897638
        },
        {
          "duration": 0.6354166666666856,
          "durationTicks": 61,
          "midi": 62,
          "name": "D4",
          "ticks": 14251,
          "time": 148.44791666666666,
          "velocity": 0.5039370078740157
        },
        {
          "duration": 20.010416666666657,
          "durationTicks": 1921,
          "midi": 72,
          "name": "C5",
          "ticks": 14264,
          "time": 148.58333333333334,
          "velocity": 0.5669291338582677
        },
        {
          "duration": 1.8020833333333428,
          "durationTicks": 173,
          "midi": 69,
          "name": "A4",
          "ticks": 14266,
          "time": 148.60416666666666,
          "velocity": 0.5039370078740157
        },
        {
          "duration": 1.3645833333333428,
          "durationTicks": 131,
          "midi": 71,
          "name": "B4",
          "ticks": 14278,
          "time": 148.72916666666666,
          "velocity": 0.6929133858267716
        },
        {
          "duration": 1.4895833333333144,
          "durationTicks": 143,
          "midi": 64,
          "name": "E4",
          "ticks": 14279,
          "time": 148.73958333333334,
          "velocity": 0.5669291338582677
        },
        {
          "duration": 0.8958333333333428,
          "durationTicks": 86,
          "midi": 52,
          "name": "E3",
          "ticks": 14295,
          "time": 148.90625,
          "velocity": 0.4409448818897638
        },
        {
          "duration": 8.46875,
          "durationTicks": 813,
          "midi": 62,
          "name": "D4",
          "ticks": 14308,
          "time": 149.04166666666666,
          "velocity": 0.6299212598425197
        },
        {
          "duration": 1.8125,
          "durationTicks": 174,
          "midi": 69,
          "name": "A4",
          "ticks": 14322,
          "time": 149.1875,
          "velocity": 0.6929133858267716
        },
        {
          "duration": 20.354166666666657,
          "durationTicks": 1954,
          "midi": 72,
          "name": "C5",
          "ticks": 14322,
          "time": 149.1875,
          "velocity": 0.6929133858267716
        },
        {
          "duration": 0.03125,
          "durationTicks": 3,
          "midi": 76,
          "name": "E5",
          "ticks": 14322,
          "time": 149.1875,
          "velocity": 0.7559055118110236
        },
        {
          "duration": 1.2395833333333144,
          "durationTicks": 119,
          "midi": 71,
          "name": "B4",
          "ticks": 14336,
          "time": 149.33333333333334,
          "velocity": 0.6929133858267716
        },
        {
          "duration": 0.3020833333333144,
          "durationTicks": 29,
          "midi": 74,
          "name": "D5",
          "ticks": 14336,
          "time": 149.33333333333334,
          "velocity": 0.7559055118110236
        },
        {
          "duration": 1.5104166666666856,
          "durationTicks": 145,
          "midi": 64,
          "name": "E4",
          "ticks": 14350,
          "time": 149.47916666666666,
          "velocity": 0.4409448818897638
        },
        {
          "duration": 1.3541666666666856,
          "durationTicks": 130,
          "midi": 52,
          "name": "E3",
          "ticks": 14365,
          "time": 149.63541666666666,
          "velocity": 0.7559055118110236
        },
        {
          "duration": 21.864583333333343,
          "durationTicks": 2099,
          "midi": 72,
          "name": "C5",
          "ticks": 14380,
          "time": 149.79166666666666,
          "velocity": 0.6929133858267716
        },
        {
          "duration": 0.041666666666685614,
          "durationTicks": 4,
          "midi": 76,
          "name": "E5",
          "ticks": 14380,
          "time": 149.79166666666666,
          "velocity": 0.6929133858267716
        },
        {
          "duration": 0.041666666666685614,
          "durationTicks": 4,
          "midi": 81,
          "name": "A5",
          "ticks": 14380,
          "time": 149.79166666666666,
          "velocity": 0.7559055118110236
        },
        {
          "duration": 3.177083333333343,
          "durationTicks": 305,
          "midi": 71,
          "name": "B4",
          "ticks": 14394,
          "time": 149.9375,
          "velocity": 0.6929133858267716
        },
        {
          "duration": 0.2916666666666572,
          "durationTicks": 28,
          "midi": 76,
          "name": "E5",
          "ticks": 14394,
          "time": 149.9375,
          "velocity": 0.6929133858267716
        },
        {
          "duration": 1.90625,
          "durationTicks": 183,
          "midi": 80,
          "name": "G#5",
          "ticks": 14395,
          "time": 149.94791666666666,
          "velocity": 0.7559055118110236
        },
        {
          "duration": 1.7604166666666572,
          "durationTicks": 169,
          "midi": 64,
          "name": "E4",
          "ticks": 14409,
          "time": 150.09375,
          "velocity": 0.7559055118110236
        },
        {
          "duration": 1.625,
          "durationTicks": 156,
          "midi": 52,
          "name": "E3",
          "ticks": 14422,
          "time": 150.22916666666666,
          "velocity": 0.8188976377952756
        },
        {
          "duration": 4.833333333333343,
          "durationTicks": 464,
          "midi": 69,
          "name": "A4",
          "ticks": 14436,
          "time": 150.375,
          "velocity": 0.8188976377952756
        },
        {
          "duration": 4.010416666666657,
          "durationTicks": 385,
          "midi": 75,
          "name": "D#5",
          "ticks": 14436,
          "time": 150.375,
          "velocity": 0.8188976377952756
        },
        {
          "duration": 0.6458333333333428,
          "durationTicks": 62,
          "midi": 78,
          "name": "F#5",
          "ticks": 14436,
          "time": 150.375,
          "velocity": 0.7559055118110236
        },
        {
          "duration": 4.947916666666657,
          "durationTicks": 475,
          "midi": 84,
          "name": "C6",
          "ticks": 14436,
          "time": 150.375,
          "velocity": 0.8188976377952756
        },
        {
          "duration": 5.729166666666657,
          "durationTicks": 550,
          "midi": 71,
          "name": "B4",
          "ticks": 14451,
          "time": 150.53125,
          "velocity": 0.8818897637795275
        },
        {
          "duration": 0.4583333333333428,
          "durationTicks": 44,
          "midi": 76,
          "name": "E5",
          "ticks": 14451,
          "time": 150.53125,
          "velocity": 0.7559055118110236
        },
        {
          "duration": 5.34375,
          "durationTicks": 513,
          "midi": 64,
          "name": "E4",
          "ticks": 14465,
          "time": 150.67708333333334,
          "velocity": 0.6299212598425197
        },
        {
          "duration": 17.291666666666686,
          "durationTicks": 1660,
          "midi": 52,
          "name": "E3",
          "ticks": 14479,
          "time": 150.82291666666666,
          "velocity": 0.8188976377952756
        },
        {
          "duration": 13.322916666666657,
          "durationTicks": 1279,
          "midi": 69,
          "name": "A4",
          "ticks": 14493,
          "time": 150.96875,
          "velocity": 0.8188976377952756
        },
        {
          "duration": 4.208333333333343,
          "durationTicks": 404,
          "midi": 75,
          "name": "D#5",
          "ticks": 14493,
          "time": 150.96875,
          "velocity": 0.7559055118110236
        },
        {
          "duration": 7.09375,
          "durationTicks": 681,
          "midi": 78,
          "name": "F#5",
          "ticks": 14493,
          "time": 150.96875,
          "velocity": 0.6929133858267716
        },
        {
          "duration": 7.885416666666657,
          "durationTicks": 757,
          "midi": 71,
          "name": "B4",
          "ticks": 14508,
          "time": 151.125,
          "velocity": 0.8188976377952756
        },
        {
          "duration": 0.7291666666666572,
          "durationTicks": 70,
          "midi": 76,
          "name": "E5",
          "ticks": 14508,
          "time": 151.125,
          "velocity": 0.8188976377952756
        },
        {
          "duration": 6.78125,
          "durationTicks": 651,
          "midi": 64,
          "name": "E4",
          "ticks": 14523,
          "time": 151.28125,
          "velocity": 0.8188976377952756
        },
        {
          "duration": 19.760416666666686,
          "durationTicks": 1897,
          "midi": 52,
          "name": "E3",
          "ticks": 14542,
          "time": 151.47916666666666,
          "velocity": 0.8188976377952756
        },
        {
          "duration": 8.947916666666657,
          "durationTicks": 859,
          "midi": 71,
          "name": "B4",
          "ticks": 14576,
          "time": 151.83333333333334,
          "velocity": 0.8188976377952756
        },
        {
          "duration": 0.4791666666666856,
          "durationTicks": 46,
          "midi": 76,
          "name": "E5",
          "ticks": 14596,
          "time": 152.04166666666666,
          "velocity": 0.7559055118110236
        },
        {
          "duration": 4.375,
          "durationTicks": 420,
          "midi": 67,
          "name": "G4",
          "ticks": 14639,
          "time": 152.48958333333334,
          "velocity": 0.6929133858267716
        },
        {
          "duration": 13.927083333333314,
          "durationTicks": 1337,
          "midi": 71,
          "name": "B4",
          "ticks": 14639,
          "time": 152.48958333333334,
          "velocity": 0.7559055118110236
        },
        {
          "duration": 0.4583333333333428,
          "durationTicks": 44,
          "midi": 76,
          "name": "E5",
          "ticks": 14655,
          "time": 152.65625,
          "velocity": 0.7559055118110236
        },
        {
          "duration": 5.75,
          "durationTicks": 552,
          "midi": 66,
          "name": "F#4",
          "ticks": 14696,
          "time": 153.08333333333334,
          "velocity": 0.6299212598425197
        },
        {
          "duration": 14.885416666666657,
          "durationTicks": 1429,
          "midi": 69,
          "name": "A4",
          "ticks": 14696,
          "time": 153.08333333333334,
          "velocity": 0.7559055118110236
        },
        {
          "duration": 15.739583333333343,
          "durationTicks": 1511,
          "midi": 69,
          "name": "A4",
          "ticks": 14754,
          "time": 153.6875,
          "velocity": 0.8188976377952756
        },
        {
          "duration": 15.75,
          "durationTicks": 1512,
          "midi": 69,
          "name": "A4",
          "ticks": 14820,
          "time": 154.375,
          "velocity": 0.6929133858267716
        },
        {
          "duration": 5.229166666666686,
          "durationTicks": 502,
          "midi": 64,
          "name": "E4",
          "ticks": 14821,
          "time": 154.38541666666666,
          "velocity": 0.5669291338582677
        },
        {
          "duration": 0.7083333333333428,
          "durationTicks": 68,
          "midi": 76,
          "name": "E5",
          "ticks": 14910,
          "time": 155.3125,
          "velocity": 0.5669291338582677
        },
        {
          "duration": 11.979166666666657,
          "durationTicks": 1150,
          "midi": 71,
          "name": "B4",
          "ticks": 14975,
          "time": 155.98958333333334,
          "velocity": 0.5669291338582677
        },
        {
          "duration": 2.052083333333343,
          "durationTicks": 197,
          "midi": 67,
          "name": "G4",
          "ticks": 14977,
          "time": 156.01041666666666,
          "velocity": 0.5669291338582677
        },
        {
          "duration": 2.041666666666657,
          "durationTicks": 196,
          "midi": 57,
          "name": "A3",
          "ticks": 14978,
          "time": 156.02083333333334,
          "velocity": 0.5039370078740157
        },
        {
          "duration": 0.1979166666666572,
          "durationTicks": 19,
          "midi": 81,
          "name": "A5",
          "ticks": 15036,
          "time": 156.625,
          "velocity": 0.6929133858267716
        },
        {
          "duration": 3.96875,
          "durationTicks": 381,
          "midi": 66,
          "name": "F#4",
          "ticks": 15054,
          "time": 156.8125,
          "velocity": 0.6299212598425197
        },
        {
          "duration": 0.625,
          "durationTicks": 60,
          "midi": 81,
          "name": "A5",
          "ticks": 15054,
          "time": 156.8125,
          "velocity": 0.6929133858267716
        },
        {
          "duration": 2.0104166666666856,
          "durationTicks": 193,
          "midi": 62,
          "name": "D4",
          "ticks": 15055,
          "time": 156.82291666666666,
          "velocity": 0.5669291338582677
        },
        {
          "duration": 0.4791666666666572,
          "durationTicks": 46,
          "midi": 74,
          "name": "D5",
          "ticks": 15068,
          "time": 156.95833333333334,
          "velocity": 0.7559055118110236
        },
        {
          "duration": 2.395833333333343,
          "durationTicks": 230,
          "midi": 81,
          "name": "A5",
          "ticks": 15084,
          "time": 157.125,
          "velocity": 0.7559055118110236
        },
        {
          "duration": 3.53125,
          "durationTicks": 339,
          "midi": 78,
          "name": "F#5",
          "ticks": 15096,
          "time": 157.25,
          "velocity": 0.7559055118110236
        },
        {
          "duration": 2.25,
          "durationTicks": 216,
          "midi": 57,
          "name": "A3",
          "ticks": 15112,
          "time": 157.41666666666666,
          "velocity": 0.6299212598425197
        },
        {
          "duration": 5.145833333333343,
          "durationTicks": 494,
          "midi": 64,
          "name": "E4",
          "ticks": 15112,
          "time": 157.41666666666666,
          "velocity": 0.7559055118110236
        },
        {
          "duration": 6.697916666666657,
          "durationTicks": 643,
          "midi": 67,
          "name": "G4",
          "ticks": 15129,
          "time": 157.59375,
          "velocity": 0.7559055118110236
        },
        {
          "duration": 0.4270833333333428,
          "durationTicks": 41,
          "midi": 76,
          "name": "E5",
          "ticks": 15144,
          "time": 157.75,
          "velocity": 0.6929133858267716
        },
        {
          "duration": 2.09375,
          "durationTicks": 201,
          "midi": 62,
          "name": "D4",
          "ticks": 15173,
          "time": 158.05208333333334,
          "velocity": 0.6299212598425197
        },
        {
          "duration": 0.7708333333333428,
          "durationTicks": 74,
          "midi": 59,
          "name": "B3",
          "ticks": 15174,
          "time": 158.0625,
          "velocity": 0.6299212598425197
        },
        {
          "duration": 2.875,
          "durationTicks": 276,
          "midi": 76,
          "name": "E5",
          "ticks": 15174,
          "time": 158.0625,
          "velocity": 0.6929133858267716
        },
        {
          "duration": 3.416666666666657,
          "durationTicks": 328,
          "midi": 66,
          "name": "F#4",
          "ticks": 15188,
          "time": 158.20833333333334,
          "velocity": 0.6299212598425197
        },
        {
          "duration": 0.4583333333333428,
          "durationTicks": 44,
          "midi": 74,
          "name": "D5",
          "ticks": 15204,
          "time": 158.375,
          "velocity": 0.6299212598425197
        },
        {
          "duration": 10.03125,
          "durationTicks": 963,
          "midi": 71,
          "name": "B4",
          "ticks": 15222,
          "time": 158.5625,
          "velocity": 0.5669291338582677
        },
        {
          "duration": 11.322916666666657,
          "durationTicks": 1087,
          "midi": 71,
          "name": "B4",
          "ticks": 15245,
          "time": 158.80208333333334,
          "velocity": 0.6299212598425197
        },
        {
          "duration": 12.833333333333343,
          "durationTicks": 1232,
          "midi": 60,
          "name": "C4",
          "ticks": 15247,
          "time": 158.82291666666666,
          "velocity": 0.4409448818897638
        },
        {
          "duration": 5.46875,
          "durationTicks": 525,
          "midi": 64,
          "name": "E4",
          "ticks": 15247,
          "time": 158.82291666666666,
          "velocity": 0.5039370078740157
        },
        {
          "duration": 2.791666666666657,
          "durationTicks": 268,
          "midi": 57,
          "name": "A3",
          "ticks": 15248,
          "time": 158.83333333333334,
          "velocity": 0.4409448818897638
        },
        {
          "duration": 0.8229166666666856,
          "durationTicks": 79,
          "midi": 81,
          "name": "A5",
          "ticks": 15295,
          "time": 159.32291666666666,
          "velocity": 0.6929133858267716
        },
        {
          "duration": 4.802083333333314,
          "durationTicks": 461,
          "midi": 81,
          "name": "A5",
          "ticks": 15311,
          "time": 159.48958333333334,
          "velocity": 0.6299212598425197
        },
        {
          "duration": 6.197916666666657,
          "durationTicks": 595,
          "midi": 62,
          "name": "D4",
          "ticks": 15312,
          "time": 159.5,
          "velocity": 0.7559055118110236
        },
        {
          "duration": 0.5,
          "durationTicks": 48,
          "midi": 74,
          "name": "D5",
          "ticks": 15326,
          "time": 159.64583333333334,
          "velocity": 0.7559055118110236
        },
        {
          "duration": 0.65625,
          "durationTicks": 63,
          "midi": 55,
          "name": "G3",
          "ticks": 15372,
          "time": 160.125,
          "velocity": 0.6299212598425197
        },
        {
          "duration": 0.65625,
          "durationTicks": 63,
          "midi": 59,
          "name": "B3",
          "ticks": 15372,
          "time": 160.125,
          "velocity": 0.7559055118110236
        },
        {
          "duration": 10.510416666666686,
          "durationTicks": 1009,
          "midi": 71,
          "name": "B4",
          "ticks": 15400,
          "time": 160.41666666666666,
          "velocity": 0.6929133858267716
        },
        {
          "duration": 3.729166666666657,
          "durationTicks": 358,
          "midi": 76,
          "name": "E5",
          "ticks": 15414,
          "time": 160.5625,
          "velocity": 0.6929133858267716
        },
        {
          "duration": 4.927083333333314,
          "durationTicks": 473,
          "midi": 76,
          "name": "E5",
          "ticks": 15434,
          "time": 160.77083333333334,
          "velocity": 0.6299212598425197
        },
        {
          "duration": 4.239583333333343,
          "durationTicks": 407,
          "midi": 57,
          "name": "A3",
          "ticks": 15435,
          "time": 160.78125,
          "velocity": 0.5669291338582677
        },
        {
          "duration": 0.3020833333333428,
          "durationTicks": 29,
          "midi": 74,
          "name": "D5",
          "ticks": 15487,
          "time": 161.32291666666666,
          "velocity": 0.6299212598425197
        },
        {
          "duration": 0.9583333333333428,
          "durationTicks": 92,
          "midi": 59,
          "name": "B3",
          "ticks": 15514,
          "time": 161.60416666666666,
          "velocity": 0.4409448818897638
        },
        {
          "duration": 2.6770833333333144,
          "durationTicks": 257,
          "midi": 55,
          "name": "G3",
          "ticks": 15515,
          "time": 161.61458333333334,
          "velocity": 0.4409448818897638
        },
        {
          "duration": 4.583333333333314,
          "durationTicks": 440,
          "midi": 64,
          "name": "E4",
          "ticks": 15536,
          "time": 161.83333333333334,
          "velocity": 0.5669291338582677
        },
        {
          "duration": 8.010416666666657,
          "durationTicks": 769,
          "midi": 69,
          "name": "A4",
          "ticks": 15626,
          "time": 162.77083333333334,
          "velocity": 0.5039370078740157
        },
        {
          "duration": 3.229166666666657,
          "durationTicks": 310,
          "midi": 76,
          "name": "E5",
          "ticks": 15666,
          "time": 163.1875,
          "velocity": 0.5039370078740157
        },
        {
          "duration": 5.208333333333343,
          "durationTicks": 500,
          "midi": 57,
          "name": "A3",
          "ticks": 15685,
          "time": 163.38541666666666,
          "velocity": 0.5039370078740157
        },
        {
          "duration": 5.208333333333343,
          "durationTicks": 500,
          "midi": 64,
          "name": "E4",
          "ticks": 15685,
          "time": 163.38541666666666,
          "velocity": 0.5039370078740157
        },
        {
          "duration": 3.8125,
          "durationTicks": 366,
          "midi": 62,
          "name": "D4",
          "ticks": 15759,
          "time": 164.15625,
          "velocity": 0.5039370078740157
        },
        {
          "duration": 5.260416666666686,
          "durationTicks": 505,
          "midi": 57,
          "name": "A3",
          "ticks": 15760,
          "time": 164.16666666666666,
          "velocity": 0.5039370078740157
        },
        {
          "duration": 0.4583333333333428,
          "durationTicks": 44,
          "midi": 74,
          "name": "D5",
          "ticks": 15798,
          "time": 164.5625,
          "velocity": 0.5669291338582677
        },
        {
          "duration": 1.4479166666666572,
          "durationTicks": 139,
          "midi": 55,
          "name": "G3",
          "ticks": 15837,
          "time": 164.96875,
          "velocity": 0.5669291338582677
        },
        {
          "duration": 5.15625,
          "durationTicks": 495,
          "midi": 62,
          "name": "D4",
          "ticks": 15837,
          "time": 164.96875,
          "velocity": 0.6299212598425197
        },
        {
          "duration": 0.34375,
          "durationTicks": 33,
          "midi": 74,
          "name": "D5",
          "ticks": 15874,
          "time": 165.35416666666666,
          "velocity": 0.6299212598425197
        },
        {
          "duration": 3.5416666666666856,
          "durationTicks": 340,
          "midi": 64,
          "name": "E4",
          "ticks": 15925,
          "time": 165.88541666666666,
          "velocity": 0.6929133858267716
        },
        {
          "duration": 0.6875,
          "durationTicks": 66,
          "midi": 74,
          "name": "D5",
          "ticks": 15974,
          "time": 166.39583333333334,
          "velocity": 0.7559055118110236
        },
        {
          "duration": 0.8958333333333428,
          "durationTicks": 86,
          "midi": 59,
          "name": "B3",
          "ticks": 16039,
          "time": 167.07291666666666,
          "velocity": 0.8188976377952756
        },
        {
          "duration": 3.520833333333343,
          "durationTicks": 338,
          "midi": 62,
          "name": "D4",
          "ticks": 16057,
          "time": 167.26041666666666,
          "velocity": 0.8188976377952756
        },
        {
          "duration": 0.375,
          "durationTicks": 36,
          "midi": 74,
          "name": "D5",
          "ticks": 16089,
          "time": 167.59375,
          "velocity": 0.8188976377952756
        },
        {
          "duration": 3.427083333333343,
          "durationTicks": 329,
          "midi": 64,
          "name": "E4",
          "ticks": 16150,
          "time": 168.22916666666666,
          "velocity": 0.6929133858267716
        },
        {
          "duration": 0.125,
          "durationTicks": 12,
          "midi": 48,
          "name": "C3",
          "ticks": 16199,
          "time": 168.73958333333334,
          "velocity": 0.7559055118110236
        },
        {
          "duration": 0.15625,
          "durationTicks": 15,
          "midi": 50,
          "name": "D3",
          "ticks": 16280,
          "time": 169.58333333333334,
          "velocity": 0.6929133858267716
        },
        {
          "duration": 0.3541666666666572,
          "durationTicks": 34,
          "midi": 59,
          "name": "B3",
          "ticks": 16298,
          "time": 169.77083333333334,
          "velocity": 0.6929133858267716
        },
        {
          "duration": 0.21875,
          "durationTicks": 21,
          "midi": 50,
          "name": "D3",
          "ticks": 16341,
          "time": 170.21875,
          "velocity": 0.6929133858267716
        },
        {
          "duration": 0.3854166666666572,
          "durationTicks": 37,
          "midi": 59,
          "name": "B3",
          "ticks": 16358,
          "time": 170.39583333333334,
          "velocity": 0.7559055118110236
        },
        {
          "duration": 0.7604166666666572,
          "durationTicks": 73,
          "midi": 74,
          "name": "D5",
          "ticks": 16406,
          "time": 170.89583333333334,
          "velocity": 0.6929133858267716
        },
        {
          "duration": 0.0625,
          "durationTicks": 6,
          "midi": 48,
          "name": "C3",
          "ticks": 16493,
          "time": 171.80208333333334,
          "velocity": 0.6299212598425197
        }
      ],
      "endOfTrackTicks": 16543
    }
  ]
}